<svg width="40" height="40" viewBox="0 0 40 40" fill="none" xmlns="http://www.w3.org/2000/svg">
<path d="M20.7026 18.4682L5.57757 2.6557C4.80414 1.79632 3.51507 1.79632 2.6557 2.56976C2.22601 2.99945 2.05414 3.51507 2.05414 4.0307C2.05414 4.54632 2.22601 5.06195 2.56976 5.49164L16.3198 19.8432L2.56976 34.2807C1.79632 35.0541 1.79632 36.4291 2.6557 37.2026C3.51507 37.976 4.80414 37.976 5.57757 37.1166L20.7026 21.3041C21.476 20.5307 21.476 19.2416 20.7026 18.4682ZM37.2026 18.4682L22.0776 2.6557C21.3041 1.79632 20.0151 1.79632 19.1557 2.56976C18.726 2.99945 18.5541 3.51507 18.5541 4.0307C18.5541 4.54632 18.726 5.06195 19.0698 5.49164L32.8198 19.8432L19.0698 34.2807C18.2963 35.0541 18.2963 36.4291 19.1557 37.2026C20.0151 37.976 21.3041 37.976 22.0776 37.1166L37.2026 21.3041C37.976 20.5307 37.976 19.2416 37.2026 18.4682Z" fill="url(#paint0_linear)"/>
<defs>
<linearGradient id="paint0_linear" x1="37.9292" y1="23.3433" x2="-9.0708" y2="24.3433" gradientUnits="userSpaceOnUse">
<stop stop-color="#44D2FF"/>
<stop offset="1" stop-color="#44D2FF" stop-opacity="0"/>
</linearGradient>
</defs>
</svg>
