<svg width="20" height="20" viewBox="0 0 20 20" fill="none" xmlns="http://www.w3.org/2000/svg">
<path d="M17.75 5.125C17.75 5.44141 17.6094 5.72266 17.3984 5.93359L8.39844 14.9336C8.1875 15.1445 7.90625 15.25 7.625 15.25C7.30859 15.25 7.02734 15.1445 6.81641 14.9336L2.31641 10.4336C2.10547 10.2227 2 9.94141 2 9.625C2 8.99219 2.49219 8.5 3.125 8.5C3.40625 8.5 3.6875 8.64062 3.89844 8.85156L7.625 12.543L15.8164 4.35156C16.0273 4.14062 16.3086 4 16.625 4C17.2227 4 17.75 4.49219 17.75 5.125Z" fill="#794BFB"/>
</svg>
