<svg width="845" height="767" fill="none" xmlns="http://www.w3.org/2000/svg">
  <g style="mix-blend-mode:hard-light">
    <path d="M498.564 692.842c-46.811 0-92.194-9.154-134.912-27.195-41.265-17.436-78.317-42.404-110.114-74.2-31.796-31.797-56.764-68.849-74.2-110.114-18.066-42.718-27.22-88.101-27.22-134.912 0-46.811 9.154-92.193 27.196-134.912 17.436-41.265 42.403-78.317 74.2-110.113 31.797-31.7969 68.848-56.7644 110.114-74.2005C406.346 9.15396 451.728 0 498.54 0c46.811 0 92.193 9.15396 134.911 27.1955 41.266 17.4361 78.317 42.4036 110.114 74.2005 31.797 31.796 56.764 68.848 74.2 110.113 18.042 42.719 27.196 88.101 27.196 134.912 0 46.811-9.154 92.194-27.196 134.912-17.436 41.265-42.403 78.317-74.2 110.114-31.797 31.796-68.848 56.764-110.114 74.2-42.694 18.041-88.1 27.195-134.887 27.195Zm0-692.260793c-190.707 0-345.84 155.132793-345.84 345.839793 0 190.683 155.133 345.84 345.84 345.84 190.683 0 345.84-155.133 345.84-345.84C844.38 155.714 689.247.581207 498.564.581207Z" fill="url(#a)"/>
    <path d="M498.564 679.548c-45.019 0-88.658-8.791-129.73-26.154-39.667-16.758-75.29-40.781-105.875-71.343-30.586-30.586-54.585-66.209-71.367-105.876-17.364-41.071-26.154-84.71-26.154-129.729 0-45.019 8.79-88.658 26.154-129.73 16.758-39.667 40.781-75.29 71.367-105.875 30.561-30.6104 66.184-54.6335 105.875-71.3915 41.072-17.3634 84.711-26.1541 129.73-26.1541 45.019 0 88.658 8.7907 129.729 26.1541 39.667 16.758 75.29 40.7811 105.876 71.3665 30.586 30.586 54.585 66.209 71.367 105.876 17.363 41.072 26.154 84.711 26.154 129.73 0 45.019-8.791 88.657-26.154 129.729-16.758 39.667-40.781 75.29-71.367 105.876-30.586 30.586-66.209 54.584-105.876 71.343-41.071 17.363-84.734 26.178-129.729 26.178Zm0-665.6472c-183.37 0-332.521 149.1752-332.521 332.5212 0 183.345 149.175 332.52 332.521 332.52 183.345 0 332.521-149.175 332.521-332.52-.025-183.346-149.176-332.5212-332.521-332.5212Z" fill="url(#b)"/>
    <path d="M498.564 666.229c-43.203 0-85.122-8.452-124.547-25.113-38.093-16.104-72.287-39.134-101.638-68.509-29.351-29.351-52.405-63.569-68.509-101.638-16.661-39.425-25.113-81.344-25.113-124.547s8.452-85.122 25.113-124.547c16.104-38.093 39.134-72.287 68.509-101.638 29.351-29.375 63.545-52.4294 101.638-68.5094 39.425-16.6611 81.344-25.1128 124.547-25.1128s85.122 8.4517 124.547 25.1128c38.093 16.1042 72.287 39.1344 101.638 68.5094 29.351 29.351 52.405 63.569 68.509 101.638 16.661 39.425 25.113 81.344 25.113 124.547s-8.452 85.122-25.113 124.547c-16.104 38.093-39.134 72.287-68.509 101.638-29.351 29.35-63.569 52.405-101.638 68.509-39.449 16.661-81.344 25.113-124.547 25.113Zm0-639.0088c-176.008 0-319.202 143.1938-319.202 319.2018 0 176.007 143.194 319.201 319.202 319.201s319.202-143.194 319.202-319.201c0-176.008-143.194-319.2018-319.202-319.2018Z" fill="url(#c)"/>
    <path d="M498.564 652.91c-41.411 0-81.563-8.089-119.365-24.072-36.495-15.426-69.284-37.512-97.424-65.652s-50.226-60.905-65.652-97.4c-15.959-37.778-24.071-77.953-24.071-119.364s8.088-81.562 24.071-119.365c15.426-36.494 37.512-69.284 65.652-97.424s60.905-50.2255 97.424-65.6516c37.778-15.9589 77.954-24.0715 119.365-24.0715 41.41 0 81.562 8.0884 119.364 24.0715 36.495 15.4261 69.284 37.5116 97.424 65.6516s50.226 60.905 65.652 97.424c15.959 37.778 24.072 77.954 24.072 119.365s-8.089 81.562-24.072 119.364c-15.426 36.495-37.512 69.285-65.652 97.425-28.14 28.139-60.905 50.225-97.424 65.651-37.802 15.959-77.954 24.048-119.364 24.048Zm0-612.3947c-168.67 0-305.883 137.2127-305.883 305.8827S329.894 652.28 498.564 652.28s305.882-137.212 305.882-305.882c0-168.646-137.212-305.8827-305.882-305.8827Z" fill="url(#d)"/>
    <path d="M498.564 639.59c-39.619 0-78.026-7.749-114.182-23.03-34.921-14.748-66.282-35.889-93.186-62.794-26.905-26.905-48.047-58.266-62.795-93.186-15.28-36.156-23.03-74.564-23.03-114.183 0-39.618 7.75-78.026 23.03-114.182 14.748-34.92 35.89-66.281 62.795-93.186 26.904-26.905 58.265-48.0461 93.186-62.7942 36.156-15.2808 74.563-23.0301 114.182-23.0301s78.027 7.7493 114.182 23.0301c34.921 14.7481 66.282 35.8892 93.186 62.7942 26.905 26.905 48.047 58.266 62.795 93.186 15.28 36.156 23.03 74.564 23.03 114.182 0 39.619-7.75 78.027-23.03 114.183-14.748 34.92-35.89 66.281-62.795 93.186-26.904 26.905-58.265 48.046-93.186 62.794-36.155 15.305-74.588 23.03-114.182 23.03Zm0-585.7557c-161.332 0-292.587 131.2547-292.587 292.5877 0 161.332 131.255 292.587 292.587 292.587s292.587-131.255 292.587-292.587c-.024-161.333-131.279-292.5877-292.587-292.5877Z" fill="url(#e)"/>
    <path d="M498.564 626.295c-37.827 0-74.491-7.386-109-21.989-33.322-14.094-63.254-34.266-88.948-59.936-25.694-25.694-45.867-55.626-59.961-88.948-14.579-34.509-21.965-71.174-21.965-109 0-37.827 7.386-74.491 21.965-109 14.094-33.322 34.267-63.254 59.961-88.948 25.694-25.694 55.626-45.867 88.948-59.9612 34.509-14.5785 71.173-21.9646 109-21.9646 37.826 0 74.491 7.3861 109 21.9646 33.322 14.0942 63.254 34.2672 88.948 59.9612 25.694 25.694 45.866 55.626 59.936 88.948 14.579 34.509 21.989 71.173 21.989 109 0 37.826-7.386 74.491-21.989 109-14.094 33.322-34.266 63.254-59.936 88.948-25.694 25.694-55.626 45.866-88.948 59.936-34.534 14.579-71.198 21.989-109 21.989Zm0-559.1414c-153.995 0-279.268 125.2734-279.268 279.2684 0 153.994 125.273 279.268 279.268 279.268 153.994 0 279.268-125.274 279.268-279.268 0-153.995-125.298-279.2684-279.268-279.2684Z" fill="url(#f)"/>
    <path d="M498.564 612.976c-71.246 0-138.206-27.704-188.528-78.026-50.323-50.323-78.027-117.258-78.027-188.528s27.704-138.205 78.027-188.528c50.322-50.323 117.282-78.0265 188.528-78.0265 71.27 0 138.205 27.7035 188.527 78.0265 50.323 50.323 78.027 117.282 78.027 188.528 0 71.27-27.704 138.205-78.027 188.528-50.322 50.322-117.282 78.026-188.527 78.026Zm0-532.5031c-146.657 0-265.949 119.3161-265.949 265.9491 0 146.657 119.316 265.949 265.949 265.949 146.657 0 265.949-119.317 265.949-265.949 0-146.657-119.317-265.9491-265.949-265.9491Z" fill="url(#g)"/>
    <path d="M498.564 599.656c-67.71 0-131.304-26.323-179.108-74.127-47.804-47.804-74.127-111.422-74.127-179.108 0-67.71 26.323-131.303 74.127-179.107 47.804-47.804 111.422-74.1276 179.108-74.1276S629.867 119.51 677.671 167.314s74.128 111.421 74.128 179.107c0 67.711-26.324 131.304-74.128 179.108s-111.421 74.127-179.107 74.127Zm0-505.8884c-139.295 0-252.63 113.3344-252.63 252.6294 0 139.295 113.335 252.63 252.63 252.63 139.295 0 252.629-113.335 252.629-252.63 0-139.295-113.334-252.6294-252.629-252.6294Z" fill="url(#h)"/>
    <path d="M498.564 586.337c-64.15 0-124.402-24.943-169.687-70.229-45.286-45.285-70.229-105.561-70.229-169.687 0-64.15 24.943-124.401 70.229-169.687 45.285-45.285 105.561-70.228 169.687-70.228 64.15 0 124.402 24.943 169.711 70.228 45.286 45.286 70.229 105.561 70.229 169.687 0 64.151-24.943 124.402-70.229 169.687-45.309 45.286-105.585 70.229-169.711 70.229Zm0-479.25c-131.957 0-239.335 107.353-239.335 239.334 0 131.958 107.353 239.335 239.335 239.335 131.957 0 239.334-107.353 239.334-239.335-.024-131.981-107.377-239.334-239.334-239.334Z" fill="url(#i)"/>
    <path d="M498.564 573.042c-60.59 0-117.5-23.563-160.291-66.33-42.767-42.791-66.33-99.7-66.33-160.291 0-60.59 23.563-117.5 66.33-160.291 42.791-42.766 99.701-66.329 160.291-66.329s117.5 23.563 160.291 66.329c42.791 42.791 66.33 99.701 66.33 160.291 0 60.591-23.563 117.5-66.33 160.291-42.791 42.767-99.725 66.33-160.291 66.33Zm0-452.636c-124.62 0-226.015 101.396-226.015 226.015 0 124.62 101.395 226.016 226.015 226.016 124.62 0 226.015-101.396 226.015-226.016 0-124.619-101.395-226.015-226.015-226.015Z" fill="url(#j)"/>
    <path d="M498.564 559.723c-57.031 0-110.599-22.182-150.871-62.431-40.273-40.272-62.431-93.84-62.431-150.87 0-57.031 22.183-110.598 62.431-150.871 40.272-40.272 93.84-62.431 150.871-62.431 57.03 0 110.598 22.183 150.87 62.431 40.273 40.273 62.431 93.84 62.431 150.871 0 57.03-22.182 110.598-62.431 150.87-40.272 40.249-93.864 62.431-150.87 62.431Zm0-425.997c-117.282 0-212.697 95.414-212.697 212.696s95.415 212.696 212.697 212.696S711.26 463.704 711.26 346.422s-95.414-212.696-212.696-212.696Z" fill="url(#k)"/>
    <path d="M498.564 546.404c-53.471 0-103.697-20.778-141.451-58.532-37.754-37.754-58.532-87.98-58.532-141.45 0-53.471 20.803-103.697 58.532-141.451 37.754-37.754 87.98-58.532 141.451-58.532 53.47 0 103.696 20.803 141.45 58.532 37.754 37.754 58.532 87.98 58.532 141.451 0 53.47-20.802 103.696-58.532 141.45-37.754 37.754-88.004 58.532-141.45 58.532Zm0-399.383c-109.945 0-199.377 89.456-199.377 199.401 0 109.944 89.457 199.377 199.377 199.377 109.944 0 199.401-89.457 199.401-199.377-.024-109.945-89.457-199.401-199.401-199.401Z" fill="url(#l)"/>
    <path d="M498.564 533.109c-49.911 0-96.795-19.398-132.03-54.657-35.236-35.236-54.657-82.12-54.657-132.03 0-49.911 19.397-96.795 54.657-132.03 35.235-35.236 82.119-54.658 132.03-54.658s96.794 19.398 132.03 54.658c35.235 35.235 54.657 82.119 54.657 132.03 0 49.91-19.398 96.794-54.657 132.03-35.236 35.235-82.144 54.657-132.03 54.657Zm0-372.769c-102.607 0-186.082 83.475-186.082 186.082 0 102.606 83.475 186.081 186.082 186.081 102.606 0 186.082-83.475 186.082-186.081-.025-102.607-83.5-186.082-186.082-186.082Z" fill="url(#m)"/>
    <path d="M498.563 519.789c-46.35 0-89.892-18.017-122.609-50.758-32.717-32.717-50.759-76.283-50.759-122.61 0-46.35 18.018-89.892 50.759-122.609 32.717-32.717 76.283-50.759 122.609-50.759 46.351 0 89.893 18.018 122.61 50.759 32.717 32.717 50.759 76.283 50.759 122.609 0 46.351-18.018 89.893-50.759 122.61-32.717 32.741-76.283 50.758-122.61 50.758Zm0-346.13c-95.268 0-172.762 77.494-172.762 172.762 0 95.269 77.494 172.763 172.762 172.763 95.269 0 172.763-77.494 172.763-172.763 0-95.268-77.518-172.762-172.763-172.762Z" fill="url(#n)"/>
    <path d="M498.564 506.47c-42.792 0-82.991-16.637-113.214-46.859-30.223-30.223-46.859-70.423-46.859-113.214s16.636-82.991 46.859-113.213c30.223-30.223 70.422-46.86 113.214-46.86 42.791 0 82.99 16.637 113.213 46.86 30.223 30.222 46.86 70.422 46.86 113.213S642 429.388 611.777 459.611c-30.223 30.222-70.447 46.859-113.213 46.859Zm0-319.516c-87.932 0-159.444 71.536-159.444 159.443 0 87.931 71.537 159.444 159.444 159.444 87.931 0 159.443-71.537 159.443-159.444 0-87.907-71.536-159.443-159.443-159.443Z" fill="url(#o)"/>
    <path d="M498.564 493.151c-39.232 0-76.09-15.256-103.794-42.96-27.704-27.704-42.96-64.562-42.96-103.793 0-39.232 15.256-76.09 42.96-103.794 27.704-27.704 64.562-42.96 103.794-42.96 39.231 0 76.089 15.256 103.793 42.96 27.704 27.704 42.96 64.562 42.96 103.794 0 39.231-15.256 76.089-42.96 103.793-27.704 27.704-64.586 42.96-103.793 42.96Zm0-292.878c-80.57 0-146.149 65.555-146.149 146.149 0 80.593 65.555 146.148 146.149 146.148 80.593 0 146.148-65.555 146.148-146.148 0-80.594-65.579-146.149-146.148-146.149Z" fill="url(#p)"/>
    <path d="M498.564 479.856c-35.672 0-69.188-13.876-94.373-39.062-25.186-25.185-39.062-58.701-39.062-94.372 0-35.672 13.876-69.188 39.062-94.373 25.185-25.186 58.701-39.062 94.373-39.062 35.671 0 69.187 13.876 94.372 39.062 25.186 25.185 39.062 58.701 39.062 94.373 0 35.671-13.876 69.187-39.062 94.372-25.185 25.186-58.701 39.062-94.372 39.062Zm0-266.264c-73.232 0-132.829 59.574-132.829 132.83 0 73.231 59.597 132.829 132.829 132.829 73.231 0 132.829-59.574 132.829-132.829-.024-73.256-59.598-132.83-132.829-132.83Z" fill="url(#q)"/>
    <path d="M498.564 466.537c-32.112 0-62.286-12.496-84.953-35.163-22.667-22.667-35.163-52.841-35.163-84.952 0-32.112 12.496-62.286 35.163-84.953 22.667-22.667 52.841-35.163 84.953-35.163 32.111 0 62.285 12.496 84.952 35.163 22.667 22.667 35.163 52.841 35.163 84.953 0 32.111-12.496 62.285-35.163 84.952-22.691 22.667-52.841 35.163-84.952 35.163Zm0-239.625c-65.894 0-119.51 53.616-119.51 119.51s53.616 119.51 119.51 119.51 119.51-53.616 119.51-119.51-53.616-119.51-119.51-119.51Z" fill="url(#r)"/>
    <path d="M346.445 766.042c-46.811 0-92.193-9.154-134.911-27.195-41.266-17.436-78.317-42.404-110.114-74.201-31.7967-31.796-56.7642-68.848-74.2003-110.113C9.15395 511.814 0 466.432 0 419.621c0-46.811 9.15395-92.193 27.1955-134.912 17.4361-41.265 42.4036-78.317 74.2005-110.114 31.796-31.796 68.848-56.764 110.113-74.2 42.719-18.0413 88.101-27.1953 134.912-27.1953 46.811 0 92.194 9.154 134.912 27.1953 41.265 17.436 78.317 42.404 110.114 74.2 31.796 31.797 56.764 68.849 74.2 110.114 18.042 42.719 27.196 88.101 27.196 134.912 0 46.811-9.154 92.193-27.196 134.912-17.436 41.265-42.404 78.317-74.2 110.113-31.797 31.797-68.849 56.765-110.114 74.201-42.694 18.041-88.101 27.195-134.888 27.195Zm0-692.2611C155.738 73.7809.60542 228.914.60542 419.621c0 190.683 155.13258 345.84 345.83958 345.84 190.684 0 345.841-155.133 345.841-345.84-.025-190.707-155.157-345.8401-345.841-345.8401Z" fill="url(#s)"/>
    <path d="M346.446 752.748c-45.019 0-88.658-8.791-129.73-26.155-39.667-16.758-75.29-40.781-105.876-71.342-30.5855-30.586-54.5843-66.209-71.3666-105.876-17.3634-41.072-26.1541-84.71-26.1541-129.729 0-45.019 8.7907-88.658 26.1541-129.73 16.758-39.667 40.7811-75.29 71.3666-105.876 30.562-30.61 66.185-54.633 105.876-71.391 41.072-17.3632 84.711-26.1539 129.73-26.1539 45.019 0 88.657 8.7907 129.729 26.1539 39.667 16.758 75.29 40.781 105.876 71.367 30.586 30.586 54.584 66.209 71.367 105.876 17.363 41.072 26.154 84.71 26.154 129.729 0 45.019-8.791 88.658-26.154 129.73-16.758 39.667-40.781 75.29-71.367 105.876-30.586 30.585-66.209 54.584-105.876 71.342-41.072 17.364-84.735 26.179-129.729 26.179Zm0-665.6475c-183.37 0-332.5213 149.1755-332.5213 332.5205 0 183.346 149.1753 332.521 332.5213 332.521 183.345 0 332.52-149.175 332.52-332.521-.024-183.345-149.175-332.5205-332.52-332.5205Z" fill="url(#t)"/>
    <path d="M346.446 739.428c-43.203 0-85.122-8.451-124.547-25.112-38.093-16.104-72.288-39.135-101.638-68.51-29.351-29.35-52.4054-63.569-68.5096-101.637-16.6611-39.425-25.1128-81.345-25.1128-124.548 0-43.202 8.4517-85.122 25.1128-124.546 16.1042-38.093 39.1344-72.288 68.5096-101.638 29.35-29.375 63.545-52.43 101.638-68.51 39.425-16.661 81.344-25.1125 124.547-25.1125 43.202 0 85.122 8.4515 124.547 25.1125 38.093 16.104 72.287 39.135 101.637 68.51 29.351 29.35 52.406 63.569 68.51 101.638 16.661 39.424 25.113 81.344 25.113 124.546 0 43.203-8.452 85.123-25.113 124.548-16.104 38.093-39.135 72.287-68.51 101.637-29.35 29.351-63.569 52.406-101.637 68.51-39.45 16.661-81.345 25.112-124.547 25.112Zm0-639.008c-176.008 0-319.202 143.194-319.202 319.201 0 176.008 143.194 319.202 319.202 319.202 176.007 0 319.201-143.194 319.201-319.202 0-176.007-143.194-319.201-319.201-319.201Z" fill="url(#u)"/>
    <path d="M346.445 726.109c-41.41 0-81.562-8.088-119.364-24.071-36.495-15.426-69.284-37.512-97.424-65.652s-50.226-60.905-65.6521-97.4c-15.9589-37.778-24.0715-77.954-24.0715-119.364 0-41.411 8.0884-81.563 24.0715-119.365 15.4261-36.495 37.5121-69.284 65.6521-97.424 28.14-28.14 60.905-50.226 97.424-65.652 37.778-15.959 77.954-24.071 119.364-24.071 41.411 0 81.562 8.088 119.365 24.071 36.495 15.426 69.284 37.512 97.424 65.652s50.226 60.905 65.652 97.424c15.959 37.778 24.071 77.954 24.071 119.365 0 41.41-8.088 81.562-24.071 119.364-15.426 36.495-37.512 69.284-65.652 97.424s-60.905 50.226-97.424 65.652c-37.803 15.959-77.954 24.047-119.365 24.047Zm0-612.394c-168.67 0-305.882 137.212-305.882 305.882 0 168.67 137.212 305.883 305.882 305.883 168.67 0 305.883-137.213 305.883-305.883 0-168.645-137.213-305.882-305.883-305.882Z" fill="url(#v)"/>
    <path d="M346.446 712.79c-39.619 0-78.027-7.749-114.182-23.03-34.921-14.748-66.282-35.89-93.187-62.794-26.905-26.905-48.0458-58.266-62.7938-93.187-15.2808-36.155-23.0302-74.563-23.0302-114.182s7.7494-78.026 23.0302-114.182c14.748-34.921 35.8888-66.281 62.7938-93.186 26.905-26.905 58.266-48.046 93.187-62.794 36.155-15.281 74.563-23.031 114.182-23.031 39.618 0 78.026 7.75 114.182 23.031 34.921 14.748 66.281 35.889 93.186 62.794 26.905 26.905 48.046 58.265 62.794 93.186 15.281 36.156 23.03 74.563 23.03 114.182s-7.749 78.027-23.03 114.182c-14.748 34.921-35.889 66.282-62.794 93.187-26.905 26.904-58.265 48.046-93.186 62.794-36.156 15.305-74.588 23.03-114.182 23.03Zm0-585.756c-161.333 0-292.5876 131.255-292.5876 292.587 0 161.333 131.2546 292.588 292.5876 292.588 161.332 0 292.587-131.255 292.587-292.588-.024-161.332-131.279-292.587-292.587-292.587Z" fill="url(#w)"/>
    <path d="M346.445 699.495c-37.826 0-74.49-7.386-108.999-21.989-33.323-14.094-63.255-34.267-88.949-59.937-25.694-25.694-45.866-55.625-59.9604-88.948-14.5785-34.509-21.9647-71.173-21.9647-109 0-37.826 7.3862-74.49 21.9647-108.999 14.0944-33.323 34.2664-63.255 59.9604-88.949 25.694-25.694 55.626-45.866 88.949-59.96 34.509-14.579 71.173-21.965 108.999-21.965 37.827 0 74.491 7.386 109 21.965 33.323 14.094 63.254 34.266 88.948 59.96 25.695 25.694 45.867 55.626 59.937 88.949 14.579 34.509 21.989 71.173 21.989 108.999 0 37.827-7.386 74.491-21.989 109-14.094 33.323-34.267 63.254-59.937 88.948-25.694 25.694-55.625 45.867-88.948 59.937-34.533 14.579-71.197 21.989-109 21.989Zm0-559.142c-153.994 0-279.2676 125.274-279.2676 279.268 0 153.995 125.2736 279.269 279.2676 279.269 153.995 0 279.269-125.274 279.269-279.269 0-153.994-125.298-279.268-279.269-279.268Z" fill="url(#x)"/>
    <path d="M346.445 686.176c-71.245 0-138.205-27.704-188.527-78.027-50.323-50.322-78.0268-117.258-78.0268-188.528s27.7038-138.205 78.0268-188.527c50.322-50.323 117.282-78.027 188.527-78.027 71.27 0 138.206 27.704 188.528 78.027C585.296 281.416 613 348.376 613 419.621c0 71.27-27.704 138.206-78.027 188.528-50.322 50.323-117.282 78.027-188.528 78.027Zm0-532.503c-146.657 0-265.9484 119.316-265.9484 265.948 0 146.657 119.3164 265.949 265.9484 265.949 146.657 0 265.949-119.316 265.949-265.949 0-146.656-119.316-265.948-265.949-265.948Z" fill="url(#y)"/>
    <path d="M346.446 672.856c-67.711 0-131.304-26.324-179.108-74.127-47.804-47.804-74.1275-111.422-74.1275-179.108 0-67.71 26.3235-131.303 74.1275-179.107s111.422-74.128 179.108-74.128c67.685 0 131.303 26.324 179.107 74.128s74.128 111.421 74.128 179.107c0 67.71-26.324 131.304-74.128 179.108-47.804 47.803-111.422 74.127-179.107 74.127Zm0-505.889c-139.295 0-252.6301 113.335-252.6301 252.63 0 139.295 113.3351 252.63 252.6301 252.63 139.295 0 252.629-113.335 252.629-252.63 0-139.295-113.334-252.63-252.629-252.63Z" fill="url(#z)"/>
    <path d="M346.446 659.537c-64.151 0-124.402-24.943-169.687-70.229-45.286-45.285-70.229-105.561-70.229-169.687 0-64.15 24.943-124.402 70.229-169.687 45.285-45.285 105.561-70.229 169.687-70.229 64.15 0 124.401 24.944 169.711 70.229 45.285 45.285 70.229 105.561 70.229 169.687 0 64.15-24.944 124.402-70.229 169.687-45.31 45.286-105.585 70.229-169.711 70.229Zm0-479.251c-131.958 0-239.335 107.353-239.335 239.335 0 131.957 107.353 239.335 239.335 239.335 131.957 0 239.334-107.353 239.334-239.335-.024-131.982-107.377-239.335-239.334-239.335Z" fill="url(#A)"/>
    <path d="M346.446 646.242c-60.591 0-117.5-23.563-160.291-66.33-42.767-42.791-66.33-99.701-66.33-160.291s23.563-117.5 66.33-160.291c42.791-42.767 99.7-66.33 160.291-66.33 60.59 0 117.5 23.563 160.291 66.33 42.791 42.791 66.329 99.701 66.329 160.291s-23.562 117.5-66.329 160.291c-42.791 42.767-99.725 66.33-160.291 66.33Zm0-452.636c-124.62 0-226.016 101.395-226.016 226.015 0 124.62 101.396 226.015 226.016 226.015 124.619 0 226.015-101.395 226.015-226.015 0-124.62-101.396-226.015-226.015-226.015Z" fill="url(#B)"/>
    <path d="M346.445 632.923c-57.03 0-110.598-22.183-150.87-62.431-40.273-40.272-62.431-93.84-62.431-150.871 0-57.03 22.182-110.598 62.431-150.87 40.272-40.273 93.84-62.431 150.87-62.431 57.031 0 110.598 22.182 150.871 62.431 40.273 40.272 62.431 93.84 62.431 150.87 0 57.031-22.183 110.599-62.431 150.871-40.273 40.248-93.864 62.431-150.871 62.431Zm0-425.998c-117.282 0-212.696 95.414-212.696 212.696s95.414 212.697 212.696 212.697 212.696-95.415 212.696-212.697-95.414-212.696-212.696-212.696Z" fill="url(#C)"/>
    <path d="M346.445 619.604c-53.47 0-103.696-20.778-141.45-58.532-37.754-37.754-58.532-87.98-58.532-141.451 0-53.47 20.802-103.696 58.532-141.45 37.754-37.754 87.98-58.532 141.45-58.532 53.471 0 103.697 20.802 141.451 58.532 37.754 37.754 58.532 87.98 58.532 141.45 0 53.471-20.803 103.697-58.532 141.451-37.754 37.754-88.004 58.532-141.451 58.532Zm0-399.384c-109.944 0-199.376 89.457-199.376 199.401 0 109.945 89.456 199.377 199.376 199.377 109.945 0 199.401-89.457 199.401-199.377-.024-109.944-89.456-199.401-199.401-199.401Z" fill="url(#D)"/>
    <path d="M346.446 606.309c-49.911 0-96.795-19.398-132.03-54.658-35.236-35.235-54.658-82.119-54.658-132.03s19.398-96.794 54.658-132.03c35.235-35.235 82.119-54.657 132.03-54.657 49.91 0 96.794 19.398 132.03 54.657 35.235 35.236 54.657 82.119 54.657 132.03s-19.398 96.795-54.657 132.03c-35.236 35.236-82.144 54.658-132.03 54.658Zm0-372.77c-102.607 0-186.082 83.476-186.082 186.082 0 102.607 83.475 186.082 186.082 186.082 102.606 0 186.081-83.475 186.081-186.082-.024-102.606-83.499-186.082-186.081-186.082Z" fill="url(#E)"/>
    <path d="M346.445 592.989c-46.351 0-89.893-18.017-122.609-50.758-32.717-32.717-50.759-76.283-50.759-122.61 0-46.351 18.017-89.893 50.759-122.609 32.716-32.717 76.282-50.759 122.609-50.759 46.351 0 89.893 18.017 122.61 50.759 32.717 32.716 50.758 76.282 50.758 122.609 0 46.351-18.017 89.893-50.758 122.61-32.717 32.741-76.283 50.758-122.61 50.758Zm0-346.13c-95.269 0-172.762 77.493-172.762 172.762s77.493 172.763 172.762 172.763 172.763-77.494 172.763-172.763-77.518-172.762-172.763-172.762Z" fill="url(#F)"/>
    <path d="M346.445 579.67c-42.791 0-82.991-16.637-113.213-46.86-30.223-30.222-46.86-70.422-46.86-113.213s16.637-82.991 46.86-113.214c30.222-30.222 70.422-46.859 113.213-46.859s82.991 16.637 113.214 46.859c30.222 30.223 46.859 70.423 46.859 113.214s-16.637 82.991-46.859 113.213c-30.223 30.223-70.447 46.86-113.214 46.86Zm0-319.516c-87.931 0-159.443 71.536-159.443 159.443 0 87.931 71.536 159.443 159.443 159.443 87.931 0 159.444-71.536 159.444-159.443 0-87.907-71.537-159.443-159.444-159.443Z" fill="url(#G)"/>
    <path d="M346.445 566.351c-39.231 0-76.089-15.257-103.793-42.961-27.704-27.704-42.961-64.562-42.961-103.793 0-39.231 15.257-76.089 42.961-103.793 27.704-27.704 64.562-42.96 103.793-42.96 39.231 0 76.089 15.256 103.793 42.96 27.704 27.704 42.961 64.562 42.961 103.793 0 39.231-15.257 76.089-42.961 103.793-27.704 27.704-64.586 42.961-103.793 42.961Zm0-292.878c-80.569 0-146.148 65.555-146.148 146.148 0 80.594 65.555 146.149 146.148 146.149 80.594 0 146.149-65.555 146.149-146.149 0-80.593-65.579-146.148-146.149-146.148Z" fill="url(#H)"/>
    <path d="M346.445 553.056c-35.671 0-69.187-13.876-94.372-39.062-25.186-25.185-39.062-58.701-39.062-94.373 0-35.671 13.876-69.187 39.062-94.373 25.185-25.185 58.701-39.061 94.372-39.061 35.672 0 69.188 13.876 94.373 39.061 25.186 25.186 39.062 58.702 39.062 94.373 0 35.672-13.876 69.188-39.062 94.373-25.185 25.186-58.701 39.062-94.373 39.062Zm0-266.264c-73.231 0-132.829 59.573-132.829 132.829 0 73.232 59.598 132.829 132.829 132.829 73.232 0 132.829-59.573 132.829-132.829-.024-73.256-59.597-132.829-132.829-132.829Z" fill="url(#I)"/>
    <path d="M346.445 539.737c-32.111 0-62.285-12.496-84.952-35.163-22.667-22.667-35.163-52.841-35.163-84.953 0-32.111 12.496-62.285 35.163-84.952 22.667-22.667 52.841-35.163 84.952-35.163 32.112 0 62.286 12.496 84.953 35.163 22.667 22.667 35.163 52.841 35.163 84.952 0 32.112-12.496 62.286-35.163 84.953-22.691 22.667-52.841 35.163-84.953 35.163Zm0-239.625c-65.893 0-119.509 53.616-119.509 119.509 0 65.894 53.616 119.51 119.509 119.51 65.894 0 119.51-53.616 119.51-119.51 0-65.893-53.616-119.509-119.51-119.509Z" fill="url(#J)"/>
  </g>
  <defs>
    <linearGradient id="a" x1="645.073" y1="279.074" x2="59.4748" y2="658.798" gradientUnits="userSpaceOnUse">
      <stop stop-color="#794BFB"/>
      <stop offset="1" stop-color="#43D2FF"/>
    </linearGradient>
    <linearGradient id="b" x1="645.073" y1="279.074" x2="59.4748" y2="658.798" gradientUnits="userSpaceOnUse">
      <stop stop-color="#794BFB"/>
      <stop offset="1" stop-color="#43D2FF"/>
    </linearGradient>
    <linearGradient id="c" x1="645.073" y1="279.074" x2="59.4748" y2="658.798" gradientUnits="userSpaceOnUse">
      <stop stop-color="#794BFB"/>
      <stop offset="1" stop-color="#43D2FF"/>
    </linearGradient>
    <linearGradient id="d" x1="645.073" y1="279.074" x2="59.4748" y2="658.798" gradientUnits="userSpaceOnUse">
      <stop stop-color="#794BFB"/>
      <stop offset="1" stop-color="#43D2FF"/>
    </linearGradient>
    <linearGradient id="e" x1="645.073" y1="279.074" x2="59.4748" y2="658.798" gradientUnits="userSpaceOnUse">
      <stop stop-color="#794BFB"/>
      <stop offset="1" stop-color="#43D2FF"/>
    </linearGradient>
    <linearGradient id="f" x1="645.073" y1="279.074" x2="59.4748" y2="658.798" gradientUnits="userSpaceOnUse">
      <stop stop-color="#794BFB"/>
      <stop offset="1" stop-color="#43D2FF"/>
    </linearGradient>
    <linearGradient id="g" x1="645.073" y1="279.074" x2="59.4748" y2="658.798" gradientUnits="userSpaceOnUse">
      <stop stop-color="#794BFB"/>
      <stop offset="1" stop-color="#43D2FF"/>
    </linearGradient>
    <linearGradient id="h" x1="645.073" y1="279.074" x2="59.4748" y2="658.798" gradientUnits="userSpaceOnUse">
      <stop stop-color="#794BFB"/>
      <stop offset="1" stop-color="#43D2FF"/>
    </linearGradient>
    <linearGradient id="i" x1="645.073" y1="279.074" x2="59.4748" y2="658.798" gradientUnits="userSpaceOnUse">
      <stop stop-color="#794BFB"/>
      <stop offset="1" stop-color="#43D2FF"/>
    </linearGradient>
    <linearGradient id="j" x1="645.073" y1="279.074" x2="59.4748" y2="658.798" gradientUnits="userSpaceOnUse">
      <stop stop-color="#794BFB"/>
      <stop offset="1" stop-color="#43D2FF"/>
    </linearGradient>
    <linearGradient id="k" x1="645.073" y1="279.074" x2="59.4748" y2="658.798" gradientUnits="userSpaceOnUse">
      <stop stop-color="#794BFB"/>
      <stop offset="1" stop-color="#43D2FF"/>
    </linearGradient>
    <linearGradient id="l" x1="645.073" y1="279.074" x2="59.4748" y2="658.798" gradientUnits="userSpaceOnUse">
      <stop stop-color="#794BFB"/>
      <stop offset="1" stop-color="#43D2FF"/>
    </linearGradient>
    <linearGradient id="m" x1="645.073" y1="279.074" x2="59.4748" y2="658.798" gradientUnits="userSpaceOnUse">
      <stop stop-color="#794BFB"/>
      <stop offset="1" stop-color="#43D2FF"/>
    </linearGradient>
    <linearGradient id="n" x1="645.073" y1="279.074" x2="59.4748" y2="658.798" gradientUnits="userSpaceOnUse">
      <stop stop-color="#794BFB"/>
      <stop offset="1" stop-color="#43D2FF"/>
    </linearGradient>
    <linearGradient id="o" x1="645.073" y1="279.074" x2="59.4748" y2="658.798" gradientUnits="userSpaceOnUse">
      <stop stop-color="#794BFB"/>
      <stop offset="1" stop-color="#43D2FF"/>
    </linearGradient>
    <linearGradient id="p" x1="645.073" y1="279.074" x2="59.4748" y2="658.798" gradientUnits="userSpaceOnUse">
      <stop stop-color="#794BFB"/>
      <stop offset="1" stop-color="#43D2FF"/>
    </linearGradient>
    <linearGradient id="q" x1="645.073" y1="279.074" x2="59.4748" y2="658.798" gradientUnits="userSpaceOnUse">
      <stop stop-color="#794BFB"/>
      <stop offset="1" stop-color="#43D2FF"/>
    </linearGradient>
    <linearGradient id="r" x1="645.073" y1="279.074" x2="59.4748" y2="658.798" gradientUnits="userSpaceOnUse">
      <stop stop-color="#794BFB"/>
      <stop offset="1" stop-color="#43D2FF"/>
    </linearGradient>
    <linearGradient id="s" x1="645.073" y1="279.074" x2="59.4748" y2="658.798" gradientUnits="userSpaceOnUse">
      <stop stop-color="#794BFB"/>
      <stop offset="1" stop-color="#43D2FF"/>
    </linearGradient>
    <linearGradient id="t" x1="645.073" y1="279.074" x2="59.4748" y2="658.798" gradientUnits="userSpaceOnUse">
      <stop stop-color="#794BFB"/>
      <stop offset="1" stop-color="#43D2FF"/>
    </linearGradient>
    <linearGradient id="u" x1="645.073" y1="279.074" x2="59.4748" y2="658.798" gradientUnits="userSpaceOnUse">
      <stop stop-color="#794BFB"/>
      <stop offset="1" stop-color="#43D2FF"/>
    </linearGradient>
    <linearGradient id="v" x1="645.073" y1="279.074" x2="59.4748" y2="658.798" gradientUnits="userSpaceOnUse">
      <stop stop-color="#794BFB"/>
      <stop offset="1" stop-color="#43D2FF"/>
    </linearGradient>
    <linearGradient id="w" x1="645.073" y1="279.074" x2="59.4748" y2="658.798" gradientUnits="userSpaceOnUse">
      <stop stop-color="#794BFB"/>
      <stop offset="1" stop-color="#43D2FF"/>
    </linearGradient>
    <linearGradient id="x" x1="645.073" y1="279.074" x2="59.4748" y2="658.798" gradientUnits="userSpaceOnUse">
      <stop stop-color="#794BFB"/>
      <stop offset="1" stop-color="#43D2FF"/>
    </linearGradient>
    <linearGradient id="y" x1="645.073" y1="279.074" x2="59.4748" y2="658.798" gradientUnits="userSpaceOnUse">
      <stop stop-color="#794BFB"/>
      <stop offset="1" stop-color="#43D2FF"/>
    </linearGradient>
    <linearGradient id="z" x1="645.073" y1="279.074" x2="59.4748" y2="658.798" gradientUnits="userSpaceOnUse">
      <stop stop-color="#794BFB"/>
      <stop offset="1" stop-color="#43D2FF"/>
    </linearGradient>
    <linearGradient id="A" x1="645.073" y1="279.074" x2="59.4748" y2="658.798" gradientUnits="userSpaceOnUse">
      <stop stop-color="#794BFB"/>
      <stop offset="1" stop-color="#43D2FF"/>
    </linearGradient>
    <linearGradient id="B" x1="645.073" y1="279.074" x2="59.4748" y2="658.798" gradientUnits="userSpaceOnUse">
      <stop stop-color="#794BFB"/>
      <stop offset="1" stop-color="#43D2FF"/>
    </linearGradient>
    <linearGradient id="C" x1="645.073" y1="279.074" x2="59.4748" y2="658.798" gradientUnits="userSpaceOnUse">
      <stop stop-color="#794BFB"/>
      <stop offset="1" stop-color="#43D2FF"/>
    </linearGradient>
    <linearGradient id="D" x1="645.073" y1="279.074" x2="59.4748" y2="658.798" gradientUnits="userSpaceOnUse">
      <stop stop-color="#794BFB"/>
      <stop offset="1" stop-color="#43D2FF"/>
    </linearGradient>
    <linearGradient id="E" x1="645.073" y1="279.074" x2="59.4748" y2="658.798" gradientUnits="userSpaceOnUse">
      <stop stop-color="#794BFB"/>
      <stop offset="1" stop-color="#43D2FF"/>
    </linearGradient>
    <linearGradient id="F" x1="645.073" y1="279.074" x2="59.4748" y2="658.798" gradientUnits="userSpaceOnUse">
      <stop stop-color="#794BFB"/>
      <stop offset="1" stop-color="#43D2FF"/>
    </linearGradient>
    <linearGradient id="G" x1="645.073" y1="279.074" x2="59.4748" y2="658.798" gradientUnits="userSpaceOnUse">
      <stop stop-color="#794BFB"/>
      <stop offset="1" stop-color="#43D2FF"/>
    </linearGradient>
    <linearGradient id="H" x1="645.073" y1="279.074" x2="59.4748" y2="658.798" gradientUnits="userSpaceOnUse">
      <stop stop-color="#794BFB"/>
      <stop offset="1" stop-color="#43D2FF"/>
    </linearGradient>
    <linearGradient id="I" x1="645.073" y1="279.074" x2="59.4748" y2="658.798" gradientUnits="userSpaceOnUse">
      <stop stop-color="#794BFB"/>
      <stop offset="1" stop-color="#43D2FF"/>
    </linearGradient>
    <linearGradient id="J" x1="645.073" y1="279.074" x2="59.4748" y2="658.798" gradientUnits="userSpaceOnUse">
      <stop stop-color="#794BFB"/>
      <stop offset="1" stop-color="#43D2FF"/>
    </linearGradient>
  </defs>
</svg>
