<svg width="974" height="863" fill="none" xmlns="http://www.w3.org/2000/svg">
  <g style="mix-blend-mode:hard-light">
    <path d="M685.341 125.186c36.749 38.945 64.76 83.887 83.286 133.59 17.889 48.019 26.205 98.445 24.713 149.86-1.492 51.415-12.716 101.274-33.359 148.175-21.358 48.565-51.928 91.808-90.872 128.556-38.945 36.749-83.887 64.76-133.59 83.286-48.019 17.889-98.445 26.204-149.86 24.713-51.415-1.492-101.273-12.717-148.174-33.36-48.546-21.376-91.788-51.946-128.537-90.89-36.7486-38.945-64.7598-83.887-83.2858-133.59C7.77317 487.507-.542105 437.081.949566 385.666 2.44124 334.251 13.666 284.392 34.3088 237.491 55.6853 188.946 86.255 145.703 125.2 108.955c38.944-36.7488 83.886-64.7601 133.589-83.2861C306.808 7.77991 357.234-.535273 408.649.956405 460.064 2.44808 509.923 13.6728 556.824 34.3157c48.526 21.3563 91.788 51.9461 128.517 90.8703ZM109.412 668.639c149.713 158.66 400.562 165.938 559.222 16.225 158.639-149.694 165.937-400.562 16.224-559.221C535.164-32.9968 284.296-40.2947 125.637 109.418-33.0036 259.151-40.2814 510 109.412 668.639Z" fill="url(#a)"/>
    <path d="M674.281 135.623c35.342 37.454 62.286 80.66 80.084 128.461 17.198 46.157 25.177 94.652 23.763 144.09-1.435 49.458-12.232 97.389-32.058 142.491-20.539 46.689-49.943 88.26-87.397 123.602-37.454 35.342-80.66 62.286-128.461 80.084-46.156 17.198-94.652 25.177-144.109 23.743-49.458-1.396-97.41-12.174-142.511-32.039-46.689-20.539-88.26-49.943-123.602-87.397-35.3417-37.454-62.2864-80.66-80.0837-128.461-17.1984-46.157-25.1778-94.652-23.7429-144.109 1.4349-49.457 12.2314-97.389 32.0579-142.491 20.5387-46.689 49.943-88.26 87.3967-123.602 37.454-35.3416 80.66-62.2863 128.461-80.0837 46.157-17.1984 94.652-25.1778 144.109-23.7429 49.458 1.4349 97.389 12.2314 142.471 32.0769 46.688 20.5387 88.299 49.9441 123.622 87.3777Zm-553.787 522.56c143.952 152.555 385.149 159.533 537.684 15.599 152.535-143.933 159.533-385.149 15.599-537.684C529.844-16.4365 288.628-23.4347 136.093 120.499-16.4225 264.452-23.4397 505.648 120.494 658.183Z" fill="url(#b)"/>
    <path d="M663.2 146.079c33.916 35.943 59.793 77.452 76.882 123.332 16.506 44.334 24.19 90.861 22.793 138.34-1.377 47.46-11.746 93.503-30.775 136.787-19.72 44.811-47.96 84.751-83.903 118.667-35.943 33.916-77.452 59.793-123.332 76.882-44.334 16.506-90.861 24.19-138.34 22.793-47.481-1.358-93.504-11.707-136.787-30.776-44.811-19.72-84.751-47.96-118.667-83.902-33.9158-35.943-59.7927-77.453-76.8816-123.332-16.5066-44.334-24.1903-90.862-22.7933-138.341 1.377-47.46 11.7464-93.503 30.7754-136.786 19.7201-44.812 47.9605-84.751 83.9025-118.667 35.943-33.916 77.453-59.793 123.332-76.8818 44.334-16.5067 90.862-24.1904 138.341-22.7933 47.46 1.3769 93.503 11.7463 136.786 30.7754 44.83 19.7401 84.751 47.9597 118.667 83.9027ZM131.575 647.726c138.173 146.431 369.717 153.148 516.147 14.975 146.43-138.173 153.148-369.717 14.974-516.147C524.523.124069 292.98-6.59358 146.549 131.58.119324 269.753-6.5983 501.296 131.575 647.726Z" fill="url(#c)"/>
    <path d="M652.119 156.535c32.509 34.452 57.301 74.206 73.68 118.203 15.816 42.472 23.183 87.09 21.863 132.592-1.32 45.502-11.241 89.598-29.493 131.082-18.902 42.934-45.957 81.223-80.409 113.732-34.452 32.509-74.206 57.301-118.203 73.68-42.472 15.816-87.089 23.183-132.591 21.863-45.502-1.321-89.599-11.242-131.101-29.514-42.935-18.901-81.224-45.956-113.733-80.408s-57.3002-74.206-73.6794-118.203c-15.816-42.472-23.1829-87.09-21.8627-132.592 1.3201-45.502 11.2411-89.598 29.513-131.101 18.9014-42.934 45.9571-81.223 80.4091-113.732 34.451-32.509 74.205-57.3005 118.202-73.6797 42.472-15.8161 87.09-23.1828 132.592-21.8627 45.502 1.3201 89.598 11.2411 131.101 29.513 42.954 18.9215 81.203 45.9764 113.712 80.4274ZM142.636 637.289c132.413 140.326 354.284 146.763 494.61 14.35 140.325-132.412 146.762-354.284 14.349-494.609C519.183 16.7041 297.311 10.267 156.986 142.68 16.6803 275.073 10.2232 496.964 142.636 637.289Z" fill="url(#d)"/>
    <path d="M641.038 166.991c31.102 32.961 54.807 70.998 70.477 113.074 15.145 40.63 22.176 83.318 20.914 126.823-1.263 43.505-10.757 85.713-28.231 125.396-18.084 41.097-43.954 77.696-76.915 108.798-32.961 31.102-70.998 54.807-113.074 70.478-40.63 15.144-83.317 22.175-126.822 20.913-43.505-1.262-85.713-10.756-125.397-28.231-41.096-18.084-77.695-43.954-108.797-76.914-31.103-32.961-54.8073-70.999-70.478-113.074-15.1445-40.631-22.1754-83.318-20.9132-126.823 1.2622-43.505 10.7561-85.713 28.2307-125.397 18.0835-41.096 43.9535-77.695 76.9145-108.797 32.961-31.103 70.998-54.8071 113.074-70.4779 40.63-15.1444 83.317-22.1753 126.822-20.9131 43.505 1.2622 85.713 10.7561 125.397 28.2306 41.117 18.0644 77.715 43.9744 108.798 76.9144ZM153.716 626.833c126.653 134.221 338.891 140.379 473.112 13.726 134.221-126.652 140.379-338.891 13.726-473.112C513.902 33.2265 301.663 27.069 167.443 153.721 33.2406 280.394 27.0831 492.632 153.716 626.833Z" fill="url(#e)"/>
    <path d="M629.977 177.429c29.696 31.47 52.334 67.771 67.276 107.944 14.434 38.788 21.149 79.526 19.963 121.054-1.205 41.547-10.271 81.827-26.929 119.712-17.265 39.22-41.969 74.148-73.439 103.843-31.47 29.696-67.772 52.334-107.926 67.296-38.787 14.434-79.526 21.149-121.073 19.943-41.547-1.205-81.827-10.271-119.712-26.929-39.22-17.265-74.148-41.969-103.843-73.439-29.695-31.47-52.333-67.772-67.2957-107.926-14.4336-38.787-21.1488-79.526-19.9434-121.073 1.2054-41.547 10.2711-81.827 26.9481-119.692 17.265-39.22 41.951-74.168 73.421-103.863 31.47-29.696 67.771-52.334 107.945-67.2757 38.787-14.4337 79.525-21.1487 121.053-19.9635 41.547 1.2054 81.828 10.271 119.692 26.9482 39.239 17.285 74.187 41.971 103.863 73.421ZM164.798 616.377C285.69 744.494 488.256 750.37 616.372 629.479c128.117-120.892 133.994-323.459 13.102-451.575C508.582 49.7875 306.015 43.9106 177.899 164.803 49.7827 285.695 43.9247 488.281 164.798 616.377Z" fill="url(#f)"/>
    <path d="M618.896 187.885c55.931 59.273 85.449 136.729 83.088 218.1-2.361 81.371-36.299 156.966-95.592 212.916-59.294 55.95-136.73 85.448-218.101 83.088-81.371-2.361-156.985-36.319-212.916-95.593-55.95-59.293-85.4482-136.729-83.0874-218.1 2.3607-81.371 36.3194-156.985 95.5924-212.916 59.293-55.95 136.729-85.4484 218.1-83.0876 81.371 2.3607 156.986 36.3186 212.916 95.5926ZM175.879 605.921C291.01 727.933 483.925 733.51 605.916 618.398c122.012-115.132 127.589-308.046 12.477-430.038C503.261 66.3483 310.347 60.771 188.355 175.884 66.3435 291.015 60.7662 483.93 175.879 605.921Z" fill="url(#g)"/>
    <path d="M607.815 198.341c53.155 56.332 81.178 129.903 78.936 207.202-2.243 77.299-34.504 149.141-90.816 202.277-56.332 53.156-129.903 81.179-207.202 78.936-77.299-2.242-149.141-34.504-202.277-90.816-53.137-56.311-81.179-129.903-78.936-207.202 2.242-77.298 34.504-149.141 90.816-202.277 56.331-53.155 129.903-81.178 207.202-78.936 77.298 2.243 149.141 34.504 202.277 90.816ZM186.939 595.484c109.352 115.887 292.614 121.204 408.501 11.852 115.887-109.352 121.203-292.614 11.851-408.501-109.352-115.8866-292.613-121.2035-408.5-11.851-115.8871 109.352-121.204 292.613-11.852 408.5Z" fill="url(#h)"/>
    <path d="M596.734 208.797c50.361 53.37 76.909 123.078 74.784 196.304-2.124 73.226-32.689 141.297-86.039 191.638-53.37 50.361-123.078 76.909-196.304 74.785-73.227-2.125-141.297-32.69-191.639-86.04-50.36-53.37-76.908-123.078-74.803-196.324 2.125-73.226 32.69-141.297 86.04-191.638 53.37-50.361 123.078-76.909 196.304-74.784 73.245 2.144 141.315 32.709 191.657 86.059ZM198.02 585.028c103.592 109.782 277.2 114.839 387.002 11.228 109.783-103.592 114.839-277.2 11.228-387.003-103.591-109.7819-277.2-114.8383-387.002-11.227C99.4644 301.657 94.4282 475.246 198.02 585.028Z" fill="url(#i)"/>
    <path d="M585.673 219.234c47.566 50.409 72.639 116.252 70.652 185.426-2.027 69.173-30.875 133.453-81.283 181.018-50.409 47.566-116.253 72.639-185.427 70.652-69.172-2.026-133.452-30.875-181.018-81.283s-72.639-116.252-70.651-185.426c2.007-69.193 30.874-133.452 81.283-181.018 50.408-47.566 116.252-72.639 185.426-70.652 69.173 2.027 133.471 30.895 181.018 81.283ZM209.101 574.572c97.831 103.677 261.788 108.434 365.465 10.603 103.678-97.832 108.435-261.788 10.603-365.466-97.831-103.677-261.787-108.434-365.465-10.603-103.678 97.832-108.434 261.788-10.603 365.466Z" fill="url(#j)"/>
    <path d="M574.593 229.69c44.771 47.447 68.369 109.427 66.5 174.528-1.89 65.121-29.06 125.608-76.507 170.38-47.447 44.771-109.427 68.369-174.528 66.499-65.12-1.889-125.608-29.059-170.379-76.506-44.771-47.447-68.369-109.427-66.5-174.528 1.889-65.121 29.06-125.608 76.506-170.379 47.447-44.772 109.427-68.369 174.529-66.5 65.1 1.908 125.626 29.08 170.379 76.506Zm-354.41 334.426c92.071 97.573 246.355 102.049 343.928 9.978 97.573-92.071 102.049-246.355 9.978-343.928-92.071-97.573-246.355-102.05-343.928-9.979-97.573 92.071-102.05 246.356-9.978 343.929Z" fill="url(#k)"/>
    <path d="M563.512 240.146c41.976 44.486 64.119 102.583 62.348 163.63-1.771 61.048-27.245 117.764-71.73 159.741-44.485 41.976-102.601 64.099-163.63 62.348-61.048-1.771-117.764-27.245-159.74-71.73-41.977-44.485-64.1-102.601-62.349-163.63 1.772-61.048 27.245-117.764 71.731-159.74 44.485-41.977 102.601-64.1 163.629-62.349 61.048 1.772 117.783 27.266 159.741 71.73ZM231.243 553.679c86.311 91.468 230.943 95.644 322.412 9.334 91.468-86.311 95.645-230.943 9.353-322.391-86.311-91.469-230.962-95.665-322.41-9.374-91.45 86.331-95.665 230.962-9.355 322.431Z" fill="url(#l)"/>
    <path d="M552.451 250.583c39.182 41.524 59.849 95.757 58.176 152.751-1.653 56.976-25.411 109.94-66.934 149.122-41.524 39.182-95.757 59.849-152.751 58.176-56.976-1.653-109.94-25.411-149.122-66.934-39.182-41.524-59.849-95.757-58.176-152.751 1.653-56.976 25.411-109.94 66.934-149.122 41.524-39.182 95.757-59.849 152.751-58.176 56.976 1.653 109.959 25.431 149.122 66.934ZM242.324 543.222c80.55 85.364 215.529 89.28 300.893 8.73 85.364-80.55 89.28-215.529 8.73-300.893-80.55-85.364-215.529-89.28-300.893-8.73-85.345 80.571-89.261 215.55-8.73 300.893Z" fill="url(#m)"/>
    <path d="M541.37 261.04c36.387 38.562 55.58 88.931 54.025 141.853-1.535 52.903-23.617 102.114-62.158 138.482-38.562 36.387-88.931 55.58-141.853 54.025-52.903-1.535-102.114-23.617-138.482-62.158-36.388-38.562-55.58-88.931-54.025-141.853 1.535-52.903 23.616-102.114 62.158-138.482 38.562-36.387 88.931-55.58 141.853-54.025 52.923 1.516 102.113 23.616 138.482 62.158ZM253.405 532.767c74.79 79.259 200.097 82.894 279.356 8.104 79.26-74.79 82.895-200.096 8.105-279.356-74.79-79.259-200.097-82.894-279.356-8.104-79.259 74.789-82.876 200.116-8.105 279.356Z" fill="url(#n)"/>
    <path d="M530.289 271.496c33.592 35.6 51.31 82.105 49.892 130.975-1.418 48.87-21.802 94.269-57.402 127.862-35.6 33.593-82.105 51.31-130.975 49.892-48.869-1.417-94.269-21.801-127.862-57.401-33.593-35.601-51.31-82.106-49.892-130.975 1.418-48.87 21.802-94.27 57.402-127.862 35.6-33.593 82.105-51.31 130.975-49.893 48.869 1.418 94.288 21.822 127.862 57.402ZM264.466 522.329c69.03 73.155 184.684 76.491 257.819 7.48 73.155-69.029 76.49-184.684 7.48-257.819-69.03-73.154-184.684-76.49-257.819-7.48-73.134 69.011-76.49 184.685-7.48 257.819Z" fill="url(#o)"/>
    <path d="M519.208 281.952c30.798 32.639 47.04 75.28 45.741 120.077-1.3 44.797-19.987 86.425-52.626 117.223-32.638 30.798-75.279 47.04-120.077 45.741-44.797-1.3-86.424-19.987-117.223-52.626-30.798-32.638-47.04-75.279-45.74-120.077 1.3-44.797 19.987-86.425 52.625-117.223 32.639-30.798 75.28-47.04 120.077-45.74 44.797 1.299 86.444 20.007 117.223 52.625ZM275.547 511.873c63.25 67.03 169.271 70.125 236.321 6.856 67.05-63.269 70.126-169.271 6.856-236.321-63.269-67.05-169.27-70.125-236.32-6.856-67.051 63.269-70.107 169.291-6.857 236.321Z" fill="url(#p)"/>
    <path d="M508.147 292.389c28.003 29.677 42.77 68.454 41.589 109.179-1.182 40.725-18.172 78.581-47.849 106.584-29.677 28.003-68.454 42.771-109.179 41.589-40.724-1.181-78.58-18.172-106.584-47.849-28.003-29.677-42.77-68.454-41.589-109.179 1.182-40.724 18.172-78.58 47.849-106.584 29.677-28.003 68.454-42.77 109.179-41.589 40.725 1.182 78.581 18.172 106.584 47.849ZM286.628 501.417c57.49 60.925 153.838 63.74 214.784 6.231 60.925-57.489 63.721-153.858 6.231-214.783-57.49-60.926-153.838-63.741-214.784-6.232-60.926 57.529-63.721 153.859-6.231 214.784Z" fill="url(#q)"/>
    <path d="M497.066 302.845c25.209 26.715 38.501 61.629 37.437 98.281-1.063 36.652-16.357 70.736-43.072 95.945-26.715 25.209-61.628 38.501-98.281 37.437-36.652-1.063-70.736-16.357-95.945-43.072-25.208-26.715-38.5-61.629-37.437-98.281 1.063-36.652 16.357-70.736 43.072-95.945 26.716-25.209 61.629-38.5 98.281-37.437 36.671 1.083 70.736 16.357 95.945 43.072ZM297.709 490.961c51.729 54.82 138.426 57.336 193.247 5.606 54.82-51.729 57.336-138.426 5.606-193.247-51.729-54.82-138.426-57.335-193.246-5.606-54.821 51.729-57.336 138.426-5.607 193.247Z" fill="url(#r)"/>
  </g>
  <g style="mix-blend-mode:hard-light">
    <path d="M865.659 194.277c36.749 38.945 64.76 83.887 83.286 133.59 17.889 48.019 26.204 98.445 24.713 149.86-1.492 51.415-12.717 101.273-33.359 148.174-21.358 48.566-51.928 91.809-90.872 128.557-38.945 36.749-83.887 64.76-133.59 83.286-48.019 17.889-98.445 26.204-149.86 24.713-51.415-1.492-101.274-12.717-148.175-33.36-48.545-21.376-91.788-51.946-128.536-90.891-36.749-38.944-64.76-83.886-83.286-133.589-17.889-48.019-26.204-98.445-24.713-149.86 1.492-51.415 12.717-101.274 33.36-148.175 21.376-48.545 51.946-91.788 90.89-128.536 38.945-36.749 83.887-64.76 133.59-83.2863 48.019-17.889 98.445-26.2042 149.86-24.7125 51.415 1.4917 101.274 12.7164 148.175 33.3598 48.526 21.356 91.788 51.946 128.517 90.87ZM289.73 737.73c149.713 158.66 400.562 165.937 559.221 16.224 158.639-149.693 165.939-400.561 16.225-559.221C715.482 36.094 464.614 28.7961 305.955 178.509 147.314 328.242 140.036 579.091 289.73 737.73Z" fill="url(#s)"/>
    <path d="M854.599 204.714c35.342 37.454 62.286 80.66 80.084 128.461 17.198 46.157 25.177 94.652 23.763 144.09-1.435 49.457-12.232 97.389-32.058 142.491-20.539 46.688-49.943 88.26-87.397 123.602-37.454 35.342-80.66 62.286-128.461 80.084-46.157 17.198-94.652 25.177-144.109 23.742-49.459-1.395-97.41-12.173-142.511-32.038-46.689-20.539-88.26-49.943-123.602-87.397-35.342-37.454-62.286-80.66-80.084-128.461-17.198-46.157-25.178-94.653-23.743-144.11 1.435-49.457 12.232-97.388 32.058-142.49 20.539-46.689 49.943-88.26 87.397-123.602 37.454-35.342 80.66-62.286 128.461-80.084 46.157-17.1982 94.652-25.1776 144.109-23.7428 49.457 1.4349 97.389 12.2315 142.471 32.0768 46.688 20.539 88.299 49.944 123.622 87.378Zm-553.787 522.56c143.952 152.555 385.149 159.533 537.684 15.599C991.03 598.94 998.029 357.724 854.095 205.189 710.162 52.6544 468.946 45.6561 316.411 189.59c-152.516 143.953-159.533 385.149-15.599 537.684Z" fill="url(#t)"/>
    <path d="M843.518 215.17c33.916 35.942 59.793 77.452 76.882 123.332 16.506 44.334 24.19 90.861 22.793 138.34-1.377 47.46-11.746 93.503-30.775 136.787-19.72 44.811-47.96 84.751-83.903 118.667-35.943 33.916-77.453 59.793-123.332 76.881-44.334 16.507-90.862 24.191-138.341 22.794-47.48-1.358-93.504-11.708-136.786-30.776-44.811-19.72-84.751-47.96-118.667-83.902-33.916-35.943-59.793-77.453-76.882-123.332-16.506-44.334-24.19-90.862-22.793-138.341 1.377-47.46 11.746-93.503 30.775-136.786 19.72-44.812 47.96-84.751 83.903-118.667 35.943-33.916 77.453-59.793 123.332-76.882 44.334-16.507 90.861-24.1904 138.34-22.793 47.46 1.377 93.503 11.746 136.787 30.775 44.83 19.74 84.751 47.96 118.667 83.903ZM311.893 716.817c138.173 146.43 369.716 153.148 516.147 14.975 146.43-138.173 153.147-369.717 14.974-516.147C704.841 69.2149 473.298 62.4972 326.867 200.67c-146.43 138.173-153.147 369.717-14.974 516.147Z" fill="url(#u)"/>
    <path d="M832.437 225.626c32.509 34.452 57.301 74.206 73.68 118.203 15.816 42.472 23.183 87.09 21.863 132.592-1.321 45.502-11.242 89.598-29.493 131.082-18.902 42.934-45.957 81.223-80.409 113.732-34.452 32.509-74.206 57.3-118.203 73.68-42.472 15.816-87.089 23.182-132.591 21.862-45.503-1.32-89.599-11.241-131.102-29.513-42.934-18.901-81.223-45.957-113.732-80.408-32.509-34.452-57.3-74.206-73.68-118.203-15.816-42.472-23.182-87.09-21.862-132.592 1.32-45.502 11.241-89.598 29.513-131.101 18.901-42.934 45.957-81.223 80.408-113.732 34.452-32.509 74.206-57.301 118.203-73.68 42.472-15.816 87.09-23.183 132.592-21.863 45.502 1.321 89.598 11.242 131.101 29.513 42.953 18.922 81.203 45.976 113.712 80.428ZM322.954 706.38c132.413 140.326 354.284 146.763 494.61 14.35 140.325-132.413 146.762-354.284 14.349-494.61C699.501 85.7949 477.629 79.3578 337.304 211.771c-140.306 132.393-146.763 354.284-14.35 494.609Z" fill="url(#v)"/>
    <path d="M821.356 236.082c31.102 32.961 54.807 70.998 70.477 113.074 15.145 40.63 22.176 83.317 20.913 126.822-1.262 43.505-10.756 85.713-28.23 125.397-18.084 41.097-43.954 77.696-76.915 108.798-32.961 31.102-70.998 54.807-113.074 70.477-40.63 15.145-83.317 22.176-126.822 20.914-43.505-1.263-85.713-10.757-125.397-28.231-41.096-18.084-77.695-43.954-108.798-76.915-31.102-32.961-54.806-70.998-70.477-113.074-15.145-40.63-22.175-83.317-20.913-126.822 1.262-43.505 10.756-85.713 28.23-125.397 18.084-41.096 43.954-77.695 76.915-108.797 32.961-31.103 70.998-54.807 113.074-70.478 40.63-15.144 83.317-22.175 126.822-20.913 43.505 1.262 85.713 10.756 125.397 28.23 41.117 18.065 77.715 43.974 108.798 76.915ZM334.034 695.924c126.653 134.221 338.891 140.379 473.112 13.726 134.221-126.652 140.379-338.891 13.726-473.112C694.22 102.317 481.981 96.1599 347.76 222.812c-134.201 126.673-140.359 338.911-13.726 473.112Z" fill="url(#w)"/>
    <path d="M810.295 246.519c29.696 31.47 52.334 67.772 67.276 107.945 14.433 38.787 21.149 79.526 19.963 121.054-1.205 41.547-10.271 81.827-26.929 119.712-17.265 39.22-41.969 74.148-73.439 103.843-31.47 29.695-67.772 52.333-107.926 67.296-38.787 14.433-79.526 21.149-121.073 19.943-41.547-1.205-81.827-10.271-119.712-26.929-39.22-17.265-74.148-41.97-103.843-73.44-29.696-31.47-52.334-67.771-67.296-107.926-14.433-38.787-21.149-79.525-19.943-121.072 1.205-41.547 10.271-81.827 26.948-119.692 17.265-39.22 41.951-74.168 73.421-103.863 31.47-29.696 67.771-52.334 107.944-67.276 38.788-14.434 79.526-21.149 121.054-19.963 41.547 1.205 81.827 10.271 119.692 26.948 39.239 17.285 74.187 41.971 103.863 73.42ZM345.116 685.468c120.892 128.116 323.458 133.993 451.574 13.101 128.117-120.892 133.994-323.458 13.102-451.574C688.9 118.878 486.333 113.001 358.217 233.893c-128.116 120.892-133.974 323.479-13.101 451.575Z" fill="url(#x)"/>
    <path d="M799.214 256.975c55.931 59.274 85.449 136.73 83.088 218.101-2.361 81.371-36.299 156.966-95.593 212.916-59.293 55.95-136.729 85.448-218.1 83.088-81.371-2.361-156.985-36.32-212.916-95.593-55.95-59.293-85.448-136.729-83.088-218.1 2.361-81.371 36.32-156.985 95.593-212.916 59.293-55.95 136.729-85.449 218.1-83.088 81.371 2.361 156.986 36.319 212.916 95.592ZM356.197 675.012c115.131 122.012 308.046 127.589 430.037 12.476 122.012-115.131 127.589-308.046 12.477-430.037-115.132-122.012-308.046-127.589-430.038-12.477-122.012 115.132-127.589 308.046-12.476 430.038Z" fill="url(#y)"/>
    <path d="M788.133 267.432c53.155 56.331 81.178 129.903 78.936 207.202-2.243 77.299-34.505 149.141-90.816 202.277-56.332 53.155-129.904 81.179-207.202 78.936-77.299-2.243-149.141-34.504-202.277-90.816-53.137-56.311-81.179-129.903-78.936-207.202 2.242-77.299 34.504-149.141 90.815-202.277 56.332-53.155 129.904-81.179 207.203-78.936 77.298 2.243 149.141 34.504 202.277 90.816ZM367.257 664.575c109.352 115.887 292.614 121.204 408.501 11.852 115.886-109.353 121.203-292.614 11.851-408.501s-292.613-121.204-408.5-11.851c-115.887 109.352-121.204 292.613-11.852 408.5Z" fill="url(#z)"/>
    <path d="M777.052 277.888c50.36 53.37 76.908 123.078 74.784 196.304-2.124 73.226-32.689 141.297-86.039 191.638-53.37 50.361-123.078 76.909-196.304 74.785-73.227-2.125-141.297-32.69-191.639-86.04-50.36-53.37-76.908-123.078-74.803-196.324 2.125-73.226 32.69-141.297 86.039-191.638 53.371-50.361 123.078-76.909 196.305-74.785 73.245 2.145 141.315 32.71 191.657 86.06ZM378.338 654.119c103.592 109.782 277.2 114.839 387.002 11.228 109.783-103.592 114.839-277.2 11.228-387.003-103.592-109.782-277.2-114.838-387.002-11.228-109.784 103.631-114.82 277.221-11.228 387.003Z" fill="url(#A)"/>
    <path d="M765.991 288.325c47.566 50.408 72.639 116.252 70.651 185.426-2.026 69.173-30.874 133.452-81.283 181.018-50.408 47.566-116.252 72.639-185.426 70.652-69.172-2.027-133.452-30.875-181.018-81.283-47.566-50.409-72.639-116.252-70.651-185.426 2.007-69.193 30.874-133.453 81.283-181.018 50.408-47.566 116.252-72.639 185.426-70.652 69.173 2.026 133.471 30.895 181.018 81.283ZM389.419 643.663c97.831 103.677 261.788 108.434 365.465 10.603 103.678-97.832 108.435-261.788 10.603-365.466-97.831-103.677-261.787-108.434-365.465-10.603-103.678 97.832-108.435 261.788-10.603 365.466Z" fill="url(#B)"/>
    <path d="M754.911 298.781c44.771 47.447 68.369 109.427 66.499 174.528-1.889 65.121-29.059 125.608-76.506 170.379-47.447 44.772-109.427 68.369-174.528 66.5-65.121-1.889-125.608-29.059-170.379-76.506-44.772-47.447-68.369-109.427-66.5-174.528 1.889-65.121 29.06-125.608 76.506-170.379 47.447-44.772 109.427-68.37 174.528-66.5 65.101 1.908 125.627 29.08 170.38 76.506ZM400.5 633.206c92.071 97.574 246.356 102.05 343.929 9.979 97.573-92.071 102.049-246.355 9.978-343.929-92.071-97.573-246.355-102.049-343.928-9.978-97.574 92.071-102.05 246.355-9.979 343.928Z" fill="url(#C)"/>
    <path d="M743.829 309.237c41.977 44.485 64.12 102.582 62.349 163.63-1.771 61.048-27.245 117.764-71.73 159.74-44.485 41.977-102.601 64.1-163.63 62.349-61.048-1.772-117.764-27.245-159.74-71.73-41.977-44.486-64.1-102.601-62.349-163.63 1.771-61.048 27.245-117.764 71.73-159.74 44.486-41.977 102.601-64.1 163.63-62.349 61.048 1.771 117.783 27.265 159.74 71.73ZM411.561 622.769c86.311 91.469 230.943 95.645 322.411 9.335 91.469-86.311 95.645-230.943 9.354-322.391-86.311-91.469-230.962-95.666-322.41-9.374-91.45 86.331-95.665 230.962-9.355 322.43Z" fill="url(#D)"/>
    <path d="M732.768 319.674c39.182 41.524 59.85 95.757 58.177 152.751-1.653 56.976-25.411 109.939-66.935 149.121-41.523 39.182-95.756 59.85-152.751 58.177-56.975-1.653-109.939-25.411-149.121-66.935-39.182-41.523-59.849-95.756-58.176-152.751 1.653-56.975 25.411-109.939 66.934-149.121 41.524-39.182 95.757-59.849 152.751-58.176 56.976 1.653 109.958 25.431 149.121 66.934ZM422.642 612.313c80.55 85.364 215.529 89.28 300.893 8.73 85.364-80.551 89.28-215.53 8.73-300.893-80.551-85.364-215.53-89.28-300.893-8.73-85.345 80.57-89.261 215.549-8.73 300.893Z" fill="url(#E)"/>
    <path d="M721.688 330.131c36.387 38.562 55.58 88.931 54.025 141.853-1.535 52.903-23.617 102.114-62.159 138.482-38.561 36.387-88.93 55.58-141.852 54.025-52.903-1.535-102.114-23.617-138.483-62.158-36.387-38.562-55.579-88.931-54.024-141.853 1.534-52.903 23.616-102.114 62.158-138.482 38.561-36.388 88.931-55.58 141.853-54.025 52.923 1.516 102.113 23.616 138.482 62.158ZM433.723 601.857c74.79 79.26 200.097 82.895 279.356 8.105 79.259-74.79 82.895-200.097 8.105-279.356-74.79-79.259-200.097-82.895-279.356-8.105-79.259 74.79-82.876 200.117-8.105 279.356Z" fill="url(#F)"/>
    <path d="M710.607 340.587c33.592 35.6 51.31 82.105 49.892 130.975-1.418 48.87-21.802 94.269-57.402 127.862-35.6 33.593-82.105 51.31-130.975 49.892-48.87-1.418-94.269-21.801-127.862-57.402-33.593-35.6-51.31-82.105-49.892-130.974 1.418-48.87 21.801-94.27 57.402-127.863 35.6-33.592 82.105-51.31 130.975-49.892 48.869 1.418 94.288 21.822 127.862 57.402ZM444.784 591.42c69.029 73.155 184.684 76.491 257.819 7.48 73.154-69.029 76.49-184.684 7.48-257.819-69.03-73.154-184.685-76.49-257.819-7.48-73.135 69.011-76.491 184.685-7.48 257.819Z" fill="url(#G)"/>
    <path d="M699.526 351.043c30.798 32.638 47.04 75.279 45.74 120.077-1.299 44.797-19.986 86.425-52.625 117.223-32.638 30.798-75.279 47.04-120.077 45.74-44.797-1.299-86.425-19.986-117.223-52.625-30.798-32.638-47.04-75.28-45.74-120.077 1.299-44.797 19.986-86.425 52.625-117.223 32.639-30.798 75.28-47.04 120.077-45.74 44.797 1.299 86.444 20.006 117.223 52.625ZM455.865 580.964c63.25 67.03 169.271 70.125 236.321 6.856 67.05-63.269 70.125-169.271 6.856-236.321-63.269-67.05-169.271-70.125-236.321-6.856-67.05 63.269-70.106 169.291-6.856 236.321Z" fill="url(#H)"/>
    <path d="M688.465 361.48c28.003 29.677 42.77 68.454 41.589 109.179-1.182 40.725-18.172 78.58-47.849 106.584-29.677 28.003-68.454 42.77-109.179 41.589-40.725-1.182-78.58-18.172-106.584-47.849-28.003-29.677-42.77-68.454-41.589-109.179 1.182-40.725 18.172-78.58 47.849-106.584 29.677-28.003 68.454-42.77 109.179-41.589 40.725 1.182 78.58 18.172 106.584 47.849ZM466.946 570.508c57.49 60.925 153.838 63.74 214.784 6.231 60.925-57.49 63.721-153.858 6.231-214.784-57.49-60.925-153.838-63.74-214.784-6.231-60.926 57.529-63.721 153.859-6.231 214.784Z" fill="url(#I)"/>
    <path d="M677.384 371.936c25.209 26.715 38.501 61.628 37.437 98.281-1.063 36.652-16.357 70.736-43.072 95.945-26.715 25.208-61.629 38.5-98.281 37.437-36.652-1.063-70.736-16.357-95.945-43.072-25.209-26.716-38.5-61.629-37.437-98.281 1.063-36.652 16.357-70.736 43.072-95.945 26.715-25.209 61.629-38.501 98.281-37.437 36.671 1.083 70.736 16.357 95.945 43.072ZM478.027 560.051c51.729 54.821 138.426 57.336 193.247 5.607 54.82-51.729 57.336-138.426 5.606-193.247-51.729-54.82-138.426-57.336-193.247-5.606-54.82 51.729-57.335 138.426-5.606 193.246Z" fill="url(#J)"/>
  </g>
  <defs>
    <linearGradient id="a" x1="45.7722" y1="259.031" x2="821.403" y2="448.123" gradientUnits="userSpaceOnUse">
      <stop stop-color="#43D2FF"/>
      <stop offset="1" stop-color="#794BFB"/>
    </linearGradient>
    <linearGradient id="b" x1="45.7722" y1="259.031" x2="821.403" y2="448.123" gradientUnits="userSpaceOnUse">
      <stop stop-color="#43D2FF"/>
      <stop offset="1" stop-color="#794BFB"/>
    </linearGradient>
    <linearGradient id="c" x1="45.7722" y1="259.031" x2="821.403" y2="448.123" gradientUnits="userSpaceOnUse">
      <stop stop-color="#43D2FF"/>
      <stop offset="1" stop-color="#794BFB"/>
    </linearGradient>
    <linearGradient id="d" x1="45.7722" y1="259.031" x2="821.403" y2="448.123" gradientUnits="userSpaceOnUse">
      <stop stop-color="#43D2FF"/>
      <stop offset="1" stop-color="#794BFB"/>
    </linearGradient>
    <linearGradient id="e" x1="45.7722" y1="259.031" x2="821.403" y2="448.123" gradientUnits="userSpaceOnUse">
      <stop stop-color="#43D2FF"/>
      <stop offset="1" stop-color="#794BFB"/>
    </linearGradient>
    <linearGradient id="f" x1="45.7722" y1="259.031" x2="821.403" y2="448.123" gradientUnits="userSpaceOnUse">
      <stop stop-color="#43D2FF"/>
      <stop offset="1" stop-color="#794BFB"/>
    </linearGradient>
    <linearGradient id="g" x1="45.7722" y1="259.031" x2="821.403" y2="448.123" gradientUnits="userSpaceOnUse">
      <stop stop-color="#43D2FF"/>
      <stop offset="1" stop-color="#794BFB"/>
    </linearGradient>
    <linearGradient id="h" x1="45.7722" y1="259.031" x2="821.403" y2="448.123" gradientUnits="userSpaceOnUse">
      <stop stop-color="#43D2FF"/>
      <stop offset="1" stop-color="#794BFB"/>
    </linearGradient>
    <linearGradient id="i" x1="45.7722" y1="259.031" x2="821.403" y2="448.123" gradientUnits="userSpaceOnUse">
      <stop stop-color="#43D2FF"/>
      <stop offset="1" stop-color="#794BFB"/>
    </linearGradient>
    <linearGradient id="j" x1="45.7722" y1="259.031" x2="821.403" y2="448.123" gradientUnits="userSpaceOnUse">
      <stop stop-color="#43D2FF"/>
      <stop offset="1" stop-color="#794BFB"/>
    </linearGradient>
    <linearGradient id="k" x1="45.7722" y1="259.031" x2="821.403" y2="448.123" gradientUnits="userSpaceOnUse">
      <stop stop-color="#43D2FF"/>
      <stop offset="1" stop-color="#794BFB"/>
    </linearGradient>
    <linearGradient id="l" x1="45.7722" y1="259.031" x2="821.403" y2="448.123" gradientUnits="userSpaceOnUse">
      <stop stop-color="#43D2FF"/>
      <stop offset="1" stop-color="#794BFB"/>
    </linearGradient>
    <linearGradient id="m" x1="45.7722" y1="259.031" x2="821.403" y2="448.123" gradientUnits="userSpaceOnUse">
      <stop stop-color="#43D2FF"/>
      <stop offset="1" stop-color="#794BFB"/>
    </linearGradient>
    <linearGradient id="n" x1="45.7722" y1="259.031" x2="821.403" y2="448.123" gradientUnits="userSpaceOnUse">
      <stop stop-color="#43D2FF"/>
      <stop offset="1" stop-color="#794BFB"/>
    </linearGradient>
    <linearGradient id="o" x1="45.7722" y1="259.031" x2="821.403" y2="448.123" gradientUnits="userSpaceOnUse">
      <stop stop-color="#43D2FF"/>
      <stop offset="1" stop-color="#794BFB"/>
    </linearGradient>
    <linearGradient id="p" x1="45.7722" y1="259.031" x2="821.403" y2="448.123" gradientUnits="userSpaceOnUse">
      <stop stop-color="#43D2FF"/>
      <stop offset="1" stop-color="#794BFB"/>
    </linearGradient>
    <linearGradient id="q" x1="45.7722" y1="259.031" x2="821.403" y2="448.123" gradientUnits="userSpaceOnUse">
      <stop stop-color="#43D2FF"/>
      <stop offset="1" stop-color="#794BFB"/>
    </linearGradient>
    <linearGradient id="r" x1="45.7722" y1="259.031" x2="821.403" y2="448.123" gradientUnits="userSpaceOnUse">
      <stop stop-color="#43D2FF"/>
      <stop offset="1" stop-color="#794BFB"/>
    </linearGradient>
    <linearGradient id="s" x1="226.09" y1="328.122" x2="1001.72" y2="517.214" gradientUnits="userSpaceOnUse">
      <stop stop-color="#43D2FF"/>
      <stop offset="1" stop-color="#794BFB"/>
    </linearGradient>
    <linearGradient id="t" x1="226.09" y1="328.122" x2="1001.72" y2="517.214" gradientUnits="userSpaceOnUse">
      <stop stop-color="#43D2FF"/>
      <stop offset="1" stop-color="#794BFB"/>
    </linearGradient>
    <linearGradient id="u" x1="226.09" y1="328.122" x2="1001.72" y2="517.214" gradientUnits="userSpaceOnUse">
      <stop stop-color="#43D2FF"/>
      <stop offset="1" stop-color="#794BFB"/>
    </linearGradient>
    <linearGradient id="v" x1="226.09" y1="328.122" x2="1001.72" y2="517.214" gradientUnits="userSpaceOnUse">
      <stop stop-color="#43D2FF"/>
      <stop offset="1" stop-color="#794BFB"/>
    </linearGradient>
    <linearGradient id="w" x1="226.09" y1="328.122" x2="1001.72" y2="517.214" gradientUnits="userSpaceOnUse">
      <stop stop-color="#43D2FF"/>
      <stop offset="1" stop-color="#794BFB"/>
    </linearGradient>
    <linearGradient id="x" x1="226.09" y1="328.122" x2="1001.72" y2="517.214" gradientUnits="userSpaceOnUse">
      <stop stop-color="#43D2FF"/>
      <stop offset="1" stop-color="#794BFB"/>
    </linearGradient>
    <linearGradient id="y" x1="226.09" y1="328.122" x2="1001.72" y2="517.214" gradientUnits="userSpaceOnUse">
      <stop stop-color="#43D2FF"/>
      <stop offset="1" stop-color="#794BFB"/>
    </linearGradient>
    <linearGradient id="z" x1="226.09" y1="328.122" x2="1001.72" y2="517.214" gradientUnits="userSpaceOnUse">
      <stop stop-color="#43D2FF"/>
      <stop offset="1" stop-color="#794BFB"/>
    </linearGradient>
    <linearGradient id="A" x1="226.09" y1="328.122" x2="1001.72" y2="517.214" gradientUnits="userSpaceOnUse">
      <stop stop-color="#43D2FF"/>
      <stop offset="1" stop-color="#794BFB"/>
    </linearGradient>
    <linearGradient id="B" x1="226.09" y1="328.122" x2="1001.72" y2="517.214" gradientUnits="userSpaceOnUse">
      <stop stop-color="#43D2FF"/>
      <stop offset="1" stop-color="#794BFB"/>
    </linearGradient>
    <linearGradient id="C" x1="226.09" y1="328.122" x2="1001.72" y2="517.214" gradientUnits="userSpaceOnUse">
      <stop stop-color="#43D2FF"/>
      <stop offset="1" stop-color="#794BFB"/>
    </linearGradient>
    <linearGradient id="D" x1="226.09" y1="328.122" x2="1001.72" y2="517.214" gradientUnits="userSpaceOnUse">
      <stop stop-color="#43D2FF"/>
      <stop offset="1" stop-color="#794BFB"/>
    </linearGradient>
    <linearGradient id="E" x1="226.09" y1="328.122" x2="1001.72" y2="517.214" gradientUnits="userSpaceOnUse">
      <stop stop-color="#43D2FF"/>
      <stop offset="1" stop-color="#794BFB"/>
    </linearGradient>
    <linearGradient id="F" x1="226.09" y1="328.122" x2="1001.72" y2="517.214" gradientUnits="userSpaceOnUse">
      <stop stop-color="#43D2FF"/>
      <stop offset="1" stop-color="#794BFB"/>
    </linearGradient>
    <linearGradient id="G" x1="226.09" y1="328.122" x2="1001.72" y2="517.214" gradientUnits="userSpaceOnUse">
      <stop stop-color="#43D2FF"/>
      <stop offset="1" stop-color="#794BFB"/>
    </linearGradient>
    <linearGradient id="H" x1="226.09" y1="328.122" x2="1001.72" y2="517.214" gradientUnits="userSpaceOnUse">
      <stop stop-color="#43D2FF"/>
      <stop offset="1" stop-color="#794BFB"/>
    </linearGradient>
    <linearGradient id="I" x1="226.09" y1="328.122" x2="1001.72" y2="517.214" gradientUnits="userSpaceOnUse">
      <stop stop-color="#43D2FF"/>
      <stop offset="1" stop-color="#794BFB"/>
    </linearGradient>
    <linearGradient id="J" x1="226.09" y1="328.122" x2="1001.72" y2="517.214" gradientUnits="userSpaceOnUse">
      <stop stop-color="#43D2FF"/>
      <stop offset="1" stop-color="#794BFB"/>
    </linearGradient>
  </defs>
</svg>
