<svg width="745" height="745" fill="none" xmlns="http://www.w3.org/2000/svg">
  <g style="mix-blend-mode:hard-light">
    <path d="M212.438 127.807c40.422-14.271 82.402-20.201 124.79-17.645 40.95 2.477 80.556 12.741 117.707 30.505 37.15 17.764 70.006 42.148 97.642 72.466 28.624 31.381 50.363 67.779 64.634 108.201 14.271 40.423 20.201 82.402 17.645 124.791-2.477 40.949-12.741 80.556-30.505 117.706-17.764 37.151-42.148 70.006-72.466 97.643-31.388 28.602-67.786 50.342-108.209 64.613-40.422 14.27-82.402 20.201-124.79 17.644-40.95-2.476-80.556-12.741-117.707-30.505-37.15-17.763-70.006-42.147-97.6424-72.465-28.6023-31.389-50.3421-67.787-64.6127-108.209C4.65325 492.129-1.27715 450.15 1.27918 407.761c2.47649-40.949 12.74122-80.555 30.50502-117.706 17.7638-37.151 42.1473-70.006 72.4658-97.643 31.367-28.595 67.786-50.342 108.188-64.605Zm211.04 597.785c164.681-58.138 251.349-239.392 193.21-404.073-58.131-164.66-239.392-251.3484-404.073-193.21C47.9554 186.44-38.7334 367.701 19.4049 532.382 77.5641 697.055 258.818 783.723 423.478 725.592Z" fill="url(#a)"/>
    <path d="M216.491 139.287c38.875-13.724 79.238-19.437 119.998-16.964 39.362 2.378 77.447 12.263 113.175 29.329 35.736 17.088 67.32 40.533 93.904 69.67 27.515 30.173 48.41 65.177 62.134 104.052 13.724 38.875 19.437 79.238 16.964 119.998-2.378 39.362-12.263 77.447-29.35 113.183-17.059 35.749-40.497 67.353-69.663 93.925-30.173 27.514-65.176 48.409-104.051 62.133-38.875 13.724-79.238 19.437-119.998 16.964-39.362-2.378-77.447-12.263-113.183-29.35-35.736-17.087-67.319-40.532-93.904-69.67-27.5147-30.173-48.4092-65.176-62.1336-104.051-13.7243-38.875-19.4368-79.238-16.964-119.998 2.3782-39.362 12.2628-77.447 29.3502-113.183 17.0873-35.736 40.5324-67.32 69.6774-93.883 30.173-27.515 65.19-48.438 104.044-62.155ZM419.417 714.09c158.345-55.901 241.664-230.187 185.77-388.511C549.293 167.256 374.999 83.916 216.675 139.81 58.352 195.704-24.9878 369.998 30.9062 528.321 86.8211 686.637 261.094 769.984 419.417 714.09Z" fill="url(#b)"/>
    <path d="M220.551 150.789c37.307-13.171 76.082-18.652 115.205-16.284 37.804 2.294 74.353 11.757 108.653 28.175 34.293 16.397 64.632 38.917 90.144 66.881 26.407 28.965 46.484 62.587 59.655 99.894 13.17 37.307 18.652 76.081 16.283 115.205-2.293 37.804-11.756 74.352-28.174 108.653-16.39 34.313-38.89 64.646-66.882 90.144-28.965 26.406-62.587 46.484-99.894 59.655-37.306 13.17-76.081 18.651-115.205 16.283-37.804-2.294-74.352-11.756-108.652-28.175-34.293-16.397-64.633-38.917-90.145-66.881-26.406-28.965-46.4835-62.587-59.6542-99.894-13.1706-37.306-18.6518-76.081-16.2834-115.205 2.2935-37.804 11.7563-74.352 28.1746-108.652 16.3974-34.293 38.9175-64.633 66.881-90.145 28.987-26.414 62.587-46.484 99.894-59.654Zm194.806 551.8c151.987-53.657 231.985-220.962 178.328-372.95-53.657-151.987-220.962-231.9847-372.949-178.328C68.7486 204.968-11.2495 372.274 42.4076 524.261 96.0646 676.248 263.37 756.246 415.357 702.589Z" fill="url(#c)"/>
    <path d="M224.612 162.29c35.759-12.624 72.897-17.88 110.413-15.603 36.216 2.196 71.264 11.271 104.142 26.992s61.939 37.281 86.385 64.093c25.298 27.757 44.551 59.977 57.175 95.736 12.625 35.759 17.881 72.897 15.603 110.413-2.195 36.216-11.271 71.264-26.991 104.142-15.721 32.878-37.282 61.939-64.114 86.392-27.758 25.298-59.977 44.551-95.736 57.176-35.76 12.624-72.897 17.88-110.413 15.602-36.217-2.195-71.265-11.27-104.143-26.991s-61.938-37.282-86.392-64.114c-25.2978-27.757-44.5511-59.977-57.1754-95.736-12.6243-35.759-17.8802-72.897-15.6027-110.413 2.1952-36.217 11.2707-71.264 26.9916-104.142 15.7209-32.878 37.2815-61.939 64.1135-86.393 27.779-25.305 59.985-44.53 95.744-57.154Zm186.692 528.818c145.651-51.42 222.307-211.736 170.887-357.387-51.42-145.651-211.736-222.307-357.387-170.887C79.1529 214.254 2.4966 374.57 53.9167 520.221 105.329 665.851 265.653 742.528 411.304 691.108Z" fill="url(#d)"/>
    <path d="M228.672 173.792c34.212-12.078 69.74-17.095 105.62-14.922 34.651 2.089 68.177 10.785 99.612 25.816 31.435 15.031 59.252 35.666 82.633 61.325 24.217 26.563 42.618 57.367 54.696 91.578 12.078 34.212 17.095 69.741 14.922 105.621-2.089 34.65-10.785 68.176-25.816 99.611-15.031 31.436-35.667 59.252-61.325 82.633-26.563 24.218-57.367 42.619-91.579 54.697-34.211 12.078-69.74 17.095-105.62 14.922-34.651-2.09-68.177-10.785-99.612-25.816-31.435-15.031-59.251-35.667-82.632-61.326-24.2181-26.563-42.6188-57.366-54.6968-91.578-12.078-34.212-17.0951-69.741-14.922-105.62 2.0895-34.651 10.785-68.177 25.8159-99.612 15.031-31.435 35.6669-59.252 61.3259-82.633 26.555-24.239 57.387-42.626 91.578-54.696Zm178.571 505.815c139.315-49.183 212.643-202.539 163.46-341.854C521.52 198.439 368.164 125.11 228.849 174.294 89.5346 223.477 16.2065 376.833 65.3896 516.147 114.594 655.454 267.95 728.783 407.243 679.607Z" fill="url(#e)"/>
    <path d="M232.725 185.272c32.665-11.532 66.577-16.331 100.828-14.241 33.071 2.012 65.068 10.307 95.081 24.64 30.02 14.355 56.565 34.052 78.894 58.53 23.109 25.355 40.665 54.764 52.196 87.428 11.532 32.664 16.331 66.576 14.263 100.82-2.013 33.071-10.307 65.068-24.662 95.089-14.354 30.02-34.051 56.564-58.529 78.894-25.355 23.109-54.764 40.664-87.428 52.196-32.665 11.532-66.577 16.331-100.821 14.262-33.071-2.012-65.068-10.307-95.088-24.661-30.02-14.355-56.565-34.052-78.873-58.537-23.109-25.355-40.6858-54.756-52.2175-87.421-11.5317-32.664-16.3309-66.576-14.2413-100.827 2.0122-33.072 10.3068-65.068 24.6404-95.081 14.3544-30.021 34.0514-56.565 58.5374-78.874 25.376-23.116 54.777-40.693 87.42-52.217Zm170.458 482.833c132.978-46.946 202.965-193.313 156.019-326.292-46.947-132.978-193.314-202.964-326.292-156.018C99.9316 232.741 29.9451 379.108 76.8914 512.087 123.838 645.065 270.226 715.044 403.183 668.105Z" fill="url(#f)"/>
    <path d="M236.786 196.774c61.522-21.72 127.789-18.21 186.585 9.904 58.796 28.113 103.125 77.468 124.852 139.011 21.727 61.544 18.209 127.79-9.904 186.586-28.114 58.796-77.489 103.132-139.012 124.851-61.543 21.728-127.789 18.21-186.585-9.904-58.796-28.113-103.132-77.489-124.8519-139.011-21.7271-61.544-18.2096-127.79 9.904-186.586 28.1139-58.796 77.4889-103.132 139.0119-124.851Zm162.337 459.83c126.642-44.71 193.279-184.109 148.577-310.73-44.709-126.642-184.109-193.279-310.73-148.578-126.642 44.71-193.279 184.109-148.5771 310.73C133.102 634.668 272.502 701.306 399.123 656.604Z" fill="url(#g)"/>
    <path d="M240.846 208.275c58.47-20.641 121.409-17.297 177.262 9.41 55.854 26.706 97.979 73.617 118.613 132.065 20.642 58.47 17.298 121.409-9.409 177.262-26.706 55.853-73.617 97.979-132.065 118.613-58.449 20.635-121.409 17.298-177.262-9.409-55.854-26.706-97.979-73.617-118.6134-132.065-20.6419-58.47-17.2976-121.409 9.4094-177.262 26.706-55.854 73.617-97.979 132.065-118.614ZM395.07 645.123c120.284-42.465 183.601-174.883 141.136-295.167-42.465-120.285-174.883-183.602-295.168-141.137S57.4368 383.702 99.9018 503.987C142.367 624.272 274.785 687.588 395.07 645.123Z" fill="url(#h)"/>
    <path d="M244.907 219.777c55.395-19.557 115.028-16.385 167.938 8.914 52.911 25.3 92.826 69.745 112.375 125.12 19.556 55.395 16.385 115.028-8.914 167.938-25.3 52.911-69.745 92.826-125.12 112.375-55.395 19.556-115.028 16.385-167.959-8.907-52.911-25.299-92.826-69.745-112.375-125.119-19.5565-55.396-16.3853-115.028 8.914-167.939 25.321-52.918 69.766-92.833 125.141-112.382Zm146.102 413.845c113.949-40.228 173.944-165.665 133.709-279.634-40.228-113.949-165.665-173.944-279.634-133.709-113.949 40.228-173.9445 165.665-133.709 279.634 40.256 113.962 165.686 173.937 279.634 133.709Z" fill="url(#i)"/>
    <path d="M248.96 231.258c52.321-18.472 108.647-15.474 158.636 8.411 49.975 23.914 87.672 65.873 106.143 118.195 18.472 52.321 15.474 108.647-8.412 158.636-23.913 49.975-65.873 87.672-118.194 106.143-52.321 18.472-108.647 15.474-158.636-8.412-49.997-23.906-87.672-65.872-106.143-118.194-18.472-52.321-15.474-108.647 8.411-158.636 23.914-49.976 65.894-87.679 118.195-106.143ZM386.949 622.12c107.612-37.991 164.258-156.46 126.267-264.072-37.991-107.612-156.46-164.259-264.072-126.268-107.612 37.991-164.2587 156.46-126.268 264.073 37.991 107.612 156.46 164.258 264.073 126.267Z" fill="url(#j)"/>
    <path d="M253.02 242.759c49.248-17.386 102.267-14.562 149.313 7.917 47.054 22.499 82.519 62 99.905 111.248 17.386 49.247 14.561 102.267-7.917 149.313-22.499 47.054-62.001 82.518-111.248 99.904-49.247 17.386-102.267 14.562-149.313-7.916-47.054-22.499-82.519-62.001-99.905-111.249-17.386-49.247-14.561-102.266 7.917-149.313 22.506-47.033 62.022-82.526 111.248-99.904Zm129.868 367.86c101.276-35.755 154.581-147.235 118.827-248.511-35.754-101.276-147.234-154.581-248.51-118.826-101.276 35.754-154.5811 147.234-118.827 248.51 35.754 101.276 147.234 154.581 248.51 118.827Z" fill="url(#k)"/>
    <path d="M257.081 254.26c46.173-16.301 95.878-13.67 139.989 7.422 44.111 21.092 77.365 58.129 93.666 104.302 16.301 46.174 13.649 95.886-7.422 139.99-21.092 44.111-58.128 77.365-104.302 93.666-46.173 16.301-95.886 13.649-139.989-7.422-44.111-21.092-77.365-58.129-93.666-104.302-16.301-46.173-13.65-95.886 7.422-139.99 21.092-44.111 58.149-77.372 104.302-93.666Zm121.754 344.878c94.94-33.517 144.896-138.03 111.379-232.969-33.518-94.94-138.03-144.896-232.949-111.386C162.326 288.3 112.349 392.82 145.859 487.739c33.538 94.932 138.037 144.916 232.976 111.399Z" fill="url(#l)"/>
    <path d="M261.134 265.741c43.099-15.216 89.498-12.758 130.673 6.948 41.169 19.685 72.233 54.249 87.449 97.348 15.215 43.1 12.758 89.498-6.948 130.674-19.685 41.169-54.25 72.233-97.349 87.448-43.099 15.216-89.498 12.758-130.674-6.947-41.168-19.685-72.232-54.25-87.448-97.349-15.215-43.099-12.758-89.498 6.948-130.674 19.685-41.168 54.27-72.24 97.349-87.448Zm113.641 321.896c88.603-31.281 135.238-128.812 103.958-217.415-31.28-88.603-128.811-135.238-217.415-103.958-88.603 31.28-135.238 128.811-103.958 217.414 31.301 88.596 128.832 135.231 217.415 103.959Z" fill="url(#m)"/>
    <path d="M265.194 277.242c40.026-14.13 83.118-11.845 121.351 6.453 38.226 18.278 67.086 50.399 81.209 90.403 14.131 40.025 11.846 83.117-6.452 121.35-18.278 38.226-50.399 67.087-90.403 81.21-40.025 14.13-83.117 11.846-121.35-6.453-38.226-18.278-67.087-50.398-81.21-90.402-14.13-40.026-11.846-83.118 6.453-121.351 18.27-38.247 50.398-67.087 90.402-81.21Zm105.521 298.893c82.267-29.043 125.56-119.585 96.517-201.853-29.044-82.267-119.586-125.56-201.853-96.517-82.267 29.044-125.56 119.586-96.517 201.853 29.043 82.267 119.606 125.553 201.853 96.517Z" fill="url(#n)"/>
    <path d="M269.255 288.744c36.951-13.045 76.736-10.934 112.048 5.951 35.311 16.884 61.933 46.526 74.978 83.477 13.045 36.951 10.934 76.737-5.95 112.048-16.885 35.312-46.526 61.933-83.478 74.978-36.951 13.045-76.736 10.934-112.048-5.95-35.311-16.885-61.933-46.526-74.978-83.478-13.045-36.951-10.934-76.736 5.95-112.048 16.885-35.311 46.548-61.94 83.478-74.978Zm97.406 275.911c75.931-26.807 115.875-110.381 89.076-186.291-26.806-75.931-110.38-115.875-186.29-89.076-75.931 26.806-115.875 110.38-89.076 186.29 26.799 75.91 110.38 115.876 186.29 89.077Z" fill="url(#o)"/>
    <path d="M273.315 300.245c33.877-11.96 70.356-10.022 102.725 5.456 32.369 15.477 56.78 42.654 68.74 76.531 11.959 33.877 10.021 70.356-5.456 102.725s-42.654 56.78-76.531 68.739c-33.877 11.96-70.356 10.022-102.725-5.455s-56.78-42.654-68.74-76.531c-11.96-33.878-10.021-70.356 5.456-102.725s42.675-56.787 76.531-68.74Zm89.286 252.908c69.573-24.562 106.218-101.163 81.648-170.757-24.569-69.595-101.162-106.218-170.757-81.649-69.594 24.57-106.218 101.163-81.648 170.757 24.569 69.595 101.183 106.211 170.757 81.649Z" fill="url(#p)"/>
    <path d="M277.368 311.726c30.803-10.875 63.976-9.11 93.402 4.961 29.426 14.07 51.626 38.782 62.501 69.585 10.874 30.803 9.109 63.975-4.961 93.401-14.07 29.427-38.782 51.627-69.585 62.501-30.803 10.875-63.975 9.11-93.402-4.96-29.426-14.071-51.626-38.782-62.501-69.585-10.874-30.804-9.109-63.976 4.961-93.402 14.07-29.426 38.782-51.626 69.585-62.501Zm81.172 229.925c63.238-22.325 96.54-91.936 74.208-155.195-22.325-63.237-91.958-96.532-155.195-74.207-63.238 22.325-96.54 91.937-74.208 155.195 22.354 63.251 91.958 96.533 155.195 74.207Z" fill="url(#q)"/>
    <path d="M281.429 323.227c27.729-9.789 57.594-8.197 84.078 4.466 26.483 12.663 46.473 34.91 56.262 62.639 9.789 27.729 8.198 57.595-4.466 84.078-12.663 26.484-34.91 46.473-62.639 56.263-27.729 9.789-57.594 8.197-84.078-4.466s-46.473-34.91-56.262-62.639c-9.79-27.729-8.198-57.595 4.466-84.078 12.684-26.491 34.909-46.473 62.639-56.263ZM354.48 530.15c56.901-20.088 86.854-82.732 66.766-139.633-20.088-56.901-82.732-86.855-139.633-66.767-56.901 20.088-86.855 82.732-66.766 139.633 20.088 56.901 82.732 86.855 139.633 66.767Z" fill="url(#r)"/>
    <path d="M321.48 18.2228C361.903 3.95213 403.882-1.97833 446.271.577999 487.22 3.05449 526.827 13.3192 563.977 31.083c37.151 17.7638 70.006 42.1473 97.643 72.466 28.623 31.381 50.363 67.779 64.634 108.201 14.27 40.423 20.201 82.402 17.644 124.791-2.476 40.949-12.741 80.555-30.505 117.706-17.764 37.151-42.147 70.006-72.465 97.643-31.389 28.602-67.787 50.342-108.209 64.612-40.423 14.271-82.402 20.201-124.791 17.645-40.949-2.476-80.556-12.741-117.706-30.505-37.151-17.764-70.006-42.147-97.643-72.465-28.602-31.389-50.342-67.787-64.613-108.209-14.27-40.423-20.201-82.402-17.644-124.791 2.476-40.949 12.741-80.556 30.505-117.706 17.763-37.151 42.147-70.006 72.465-97.643 31.368-28.5949 67.787-50.342 108.188-64.6052ZM532.521 616.008c164.68-58.138 251.348-239.393 193.21-404.073C667.6 47.2751 486.338-39.4137 321.658 18.7246 156.998 76.8555 70.3091 258.117 128.447 422.798c58.16 164.673 239.414 251.341 404.074 193.21Z" fill="url(#s)"/>
    <path d="M325.533 29.7029c38.875-13.7243 79.238-19.4368 119.998-16.964 39.362 2.3782 77.447 12.2629 113.176 29.3294 35.736 17.0873 67.319 40.5323 93.904 69.6697 27.515 30.173 48.409 65.176 62.133 104.051 13.725 38.875 19.437 79.238 16.964 119.998-2.378 39.363-12.262 77.447-29.35 113.183-17.059 35.75-40.496 67.354-69.662 93.925-30.173 27.515-65.176 48.41-104.052 62.134-38.875 13.724-79.238 19.437-119.997 16.964-39.363-2.378-77.448-12.263-113.183-29.35-35.736-17.088-67.32-40.533-93.905-69.67-27.514-30.173-48.409-65.176-62.133-104.051-13.724-38.876-19.437-79.239-16.964-119.998 2.378-39.363 12.263-77.448 29.35-113.183 17.087-35.736 40.533-67.32 69.677-93.8836 30.173-27.5147 65.19-48.4375 104.044-62.1545ZM528.46 604.506c158.344-55.901 241.663-230.188 185.769-388.511C658.335 57.6715 484.041-25.6682 325.718 30.2258 167.394 86.1197 84.0547 260.414 139.949 418.737 195.864 577.053 370.137 660.4 528.46 604.506Z" fill="url(#t)"/>
    <path d="M329.594 41.2043C366.9 28.0337 405.675 22.5526 444.799 24.921c37.804 2.2934 74.352 11.7563 108.652 28.1746 34.293 16.3973 64.633 38.9174 90.145 66.8814 26.406 28.965 46.484 62.587 59.654 99.894 13.171 37.306 18.652 76.081 16.284 115.205-2.294 37.804-11.757 74.352-28.175 108.652-16.39 34.314-38.889 64.646-66.881 90.145-28.966 26.406-62.587 46.484-99.894 59.654-37.307 13.171-76.082 18.652-115.205 16.284-37.804-2.294-74.353-11.757-108.653-28.175-34.293-16.397-64.632-38.917-90.144-66.881-26.407-28.966-46.484-62.587-59.655-99.894-13.17-37.307-18.651-76.082-16.283-115.205 2.293-37.804 11.756-74.352 28.174-108.653 16.398-34.293 38.918-64.632 66.882-90.144 28.986-26.4138 62.587-46.484 99.894-59.6547ZM524.399 593.005c151.987-53.658 231.985-220.963 178.328-372.95C649.07 68.0681 481.765-11.9299 329.778 41.7271 177.791 95.3841 97.793 262.689 151.45 414.676c53.657 151.988 220.962 231.986 372.949 178.329Z" fill="url(#u)"/>
    <path d="M333.654 52.7058c35.759-12.6244 72.897-17.8802 110.413-15.6027 36.217 2.1952 71.264 11.2706 104.143 26.9915 32.878 15.7209 61.938 37.2814 86.384 64.0934 25.298 27.757 44.552 59.976 57.176 95.736 12.624 35.759 17.88 72.896 15.603 110.412-2.196 36.217-11.271 71.265-26.992 104.143s-37.282 61.938-64.114 86.392c-27.757 25.298-59.977 44.551-95.736 57.176-35.759 12.624-72.897 17.88-110.413 15.602-36.217-2.195-71.264-11.27-104.142-26.991s-61.939-37.282-86.393-64.114c-25.297-27.757-44.551-59.977-57.175-95.736-12.624-35.759-17.88-72.897-15.603-110.413 2.196-36.217 11.271-71.264 26.992-104.142 15.721-32.879 37.282-61.939 64.114-86.393 27.778-25.305 59.984-44.5299 95.743-57.1542ZM520.346 581.524c145.651-51.42 222.308-211.737 170.888-357.388C639.813 78.4857 479.497 1.82941 333.846 53.2495 188.195 104.67 111.539 264.986 162.959 410.637c51.413 145.63 211.737 222.307 357.387 170.887Z" fill="url(#v)"/>
    <path d="M337.714 64.2075c34.212-12.078 69.741-17.0951 105.621-14.922 34.65 2.0895 68.176 10.785 99.611 25.816 31.436 15.0309 59.252 35.6665 82.633 61.3255 24.218 26.563 42.618 57.367 54.696 91.578 12.078 34.212 17.096 69.741 14.923 105.62-2.09 34.651-10.786 68.177-25.816 99.612-15.031 31.435-35.667 59.252-61.326 82.633-26.563 24.218-57.367 42.618-91.578 54.696-34.212 12.078-69.741 17.095-105.62 14.922-34.651-2.089-68.177-10.785-99.612-25.816-31.435-15.031-59.252-35.666-82.633-61.325-24.218-26.563-42.618-57.367-54.696-91.578-12.078-34.212-17.095-69.741-14.922-105.621 2.089-34.65 10.785-68.176 25.816-99.611 15.031-31.436 35.666-59.252 61.325-82.633 26.556-24.2387 57.388-42.6259 91.578-54.6965ZM516.286 570.023c139.314-49.184 212.642-202.54 163.459-341.854C630.562 88.8544 477.206 15.5262 337.892 64.7093 198.577 113.893 125.249 267.249 174.432 406.563c49.204 139.307 202.56 212.635 341.854 163.46Z" fill="url(#w)"/>
    <path d="M341.768 75.6879c32.664-11.5317 66.576-16.3309 100.827-14.2413 33.072 2.0122 65.068 10.3068 95.081 24.6403 30.021 14.3541 56.565 34.0521 78.894 58.5301 23.11 25.355 40.665 54.763 52.197 87.428 11.532 32.664 16.331 66.576 14.262 100.82-2.012 33.071-10.307 65.068-24.661 95.088-14.355 30.021-34.052 56.565-58.53 78.894-25.355 23.11-54.764 40.665-87.428 52.197-32.664 11.531-66.576 16.331-100.82 14.262-33.071-2.012-65.068-10.307-95.089-24.661-30.02-14.355-56.565-34.052-78.873-58.537-23.109-25.355-40.685-54.757-52.217-87.421-11.532-32.664-16.331-66.576-14.241-100.828 2.012-33.071 10.306-65.068 24.64-95.081 14.355-30.02 34.052-56.565 58.537-78.873 25.376-23.116 54.777-40.6928 87.421-52.2171ZM512.226 558.521c132.978-46.946 202.964-193.314 156.018-326.292C621.298 99.2509 474.931 29.2645 341.952 76.2107 208.974 123.157 138.988 269.524 185.934 402.502 232.88 535.481 379.268 605.46 512.226 558.521Z" fill="url(#x)"/>
    <path d="M345.828 87.1893c61.523-21.7197 127.79-18.2095 186.586 9.9041 58.795 28.1136 103.124 77.4686 124.851 139.0116 21.727 61.544 18.21 127.79-9.904 186.585-28.113 58.796-77.489 103.132-139.011 124.852-61.544 21.727-127.79 18.21-186.586-9.904-58.796-28.113-103.132-77.489-124.851-139.011-21.728-61.544-18.21-127.79 9.904-186.586 28.113-58.796 77.489-103.132 139.011-124.8517ZM508.165 547.019C634.807 502.31 701.444 362.911 656.742 236.29 612.033 109.648 472.634 43.0103 346.013 87.7122 219.371 132.421 152.733 271.821 197.435 398.442c44.71 126.642 184.109 193.279 310.73 148.577Z" fill="url(#y)"/>
    <path d="M349.889 98.6912c58.469-20.6419 121.408-17.2975 177.262 9.4088 55.853 26.707 97.978 73.617 118.613 132.066 20.642 58.469 17.297 121.409-9.409 177.262-26.707 55.853-73.617 97.978-132.066 118.613-58.448 20.634-121.409 17.297-177.262-9.409-55.853-26.707-97.978-73.617-118.613-132.066-20.642-58.469-17.297-121.408 9.409-177.262 26.707-55.853 73.617-97.978 132.066-118.6128ZM504.112 535.539c120.285-42.465 183.601-174.883 141.136-295.168C602.783 120.087 470.365 56.77 350.081 99.2349 229.796 141.7 166.479 274.118 208.944 394.403c42.465 120.284 174.883 183.601 295.168 141.136Z" fill="url(#z)"/>
    <path d="M353.949 110.193c55.396-19.5568 115.028-16.3856 167.939 8.914 52.91 25.299 92.825 69.745 112.374 125.119 19.557 55.396 16.386 115.029-8.914 167.939-25.299 52.911-69.745 92.825-125.119 112.375-55.396 19.556-115.028 16.385-167.96-8.907-52.911-25.3-92.825-69.745-112.374-125.12-19.557-55.395-16.386-115.028 8.914-167.938 25.32-52.918 69.766-92.833 125.14-112.382Zm146.103 413.845C614 483.81 673.996 358.373 633.76 244.404 593.532 130.455 468.096 70.4593 354.126 110.695c-113.948 40.228-173.944 165.664-133.709 279.634 40.257 113.962 165.686 173.937 279.635 133.709Z" fill="url(#A)"/>
    <path d="M358.002 121.673c52.321-18.471 108.647-15.473 158.636 8.412 49.976 23.914 87.672 65.873 106.144 118.194 18.471 52.322 15.473 108.648-8.412 158.637-23.914 49.975-65.873 87.672-118.194 106.143-52.322 18.471-108.648 15.473-158.637-8.412-49.996-23.906-87.672-65.873-106.143-118.194-18.471-52.321-15.473-108.647 8.412-158.636 23.913-49.976 65.894-87.68 118.194-106.144Zm137.989 390.863c107.612-37.991 164.259-156.46 126.268-264.072-37.991-107.612-156.46-164.2589-264.072-126.268-107.613 37.991-164.259 156.46-126.268 264.072 37.991 107.613 156.46 164.259 264.072 126.268Z" fill="url(#B)"/>
    <path d="M362.063 133.174c49.247-17.386 102.266-14.561 149.313 7.917 47.053 22.499 82.518 62.001 99.904 111.249 17.386 49.247 14.562 102.266-7.916 149.313-22.499 47.053-62.001 82.518-111.249 99.904-49.247 17.386-102.266 14.561-149.313-7.917-47.053-22.499-82.518-62.001-99.904-111.248-17.386-49.247-14.562-102.267 7.917-149.313 22.506-47.033 62.021-82.526 111.248-99.905Zm129.868 367.86C593.207 465.28 646.512 353.8 610.758 252.524 575.003 151.248 463.523 97.9431 362.247 133.697c-101.276 35.754-154.581 147.235-118.826 248.511 35.754 101.275 147.234 154.58 248.51 118.826Z" fill="url(#C)"/>
    <path d="M366.123 144.676c46.173-16.301 95.879-13.67 139.99 7.422 44.111 21.092 77.365 58.129 93.666 104.302 16.301 46.173 13.649 95.886-7.422 139.99-21.092 44.111-58.129 77.365-104.302 93.666-46.173 16.301-95.886 13.649-139.99-7.422-44.111-21.092-77.365-58.129-93.666-104.302-16.301-46.174-13.649-95.886 7.422-139.99 21.092-44.111 58.15-77.372 104.302-93.666Zm121.755 344.878c94.939-33.517 144.895-138.03 111.378-232.969-33.517-94.94-138.03-144.896-232.948-111.386-94.94 33.517-144.917 138.037-111.407 232.956 33.538 94.932 138.037 144.916 232.977 111.399Z" fill="url(#D)"/>
    <path d="M370.176 156.157c43.099-15.216 89.498-12.758 130.674 6.948 41.168 19.685 72.232 54.249 87.448 97.348 15.216 43.099 12.758 89.498-6.948 130.674-19.685 41.168-54.249 72.233-97.348 87.448-43.1 15.216-89.498 12.758-130.674-6.948-41.169-19.685-72.233-54.249-87.448-97.348-15.216-43.1-12.758-89.498 6.947-130.674 19.685-41.169 54.271-72.24 97.349-87.448Zm113.641 321.895c88.603-31.28 135.239-128.811 103.958-217.414-31.28-88.604-128.811-135.239-217.414-103.958-88.604 31.28-135.239 128.811-103.959 217.414 31.302 88.596 128.833 135.231 217.415 103.958Z" fill="url(#E)"/>
    <path d="M374.237 167.658c40.025-14.13 83.117-11.846 121.35 6.453 38.226 18.278 67.087 50.398 81.21 90.403 14.13 40.025 11.846 83.117-6.453 121.35-18.278 38.226-50.398 67.087-90.402 81.21-40.026 14.13-83.118 11.846-121.351-6.453-38.226-18.278-67.086-50.398-81.209-90.403-14.131-40.025-11.846-83.117 6.452-121.35 18.271-38.247 50.399-67.087 90.403-81.21Zm105.52 298.893c82.267-29.043 125.56-119.586 96.517-201.853-29.043-82.267-119.585-125.56-201.853-96.517-82.267 29.043-125.56 119.586-96.517 201.853 29.044 82.267 119.607 125.553 201.853 96.517Z" fill="url(#F)"/>
    <path d="M378.297 179.16c36.951-13.045 76.737-10.934 112.048 5.95 35.312 16.885 61.934 46.526 74.979 83.478 13.045 36.951 10.934 76.736-5.951 112.048-16.884 35.311-46.526 61.933-83.477 74.978-36.951 13.045-76.737 10.934-112.048-5.951-35.312-16.884-61.933-46.526-74.979-83.477-13.045-36.951-10.933-76.737 5.951-112.048 16.884-35.312 46.547-61.94 83.477-74.978Zm97.407 275.91c75.931-26.806 115.875-110.381 89.076-186.29-26.806-75.931-110.381-115.876-186.291-89.077-75.931 26.807-115.875 110.381-89.076 186.291 26.799 75.91 110.381 115.875 186.291 89.076Z" fill="url(#G)"/>
    <path d="M382.358 190.661c33.877-11.96 70.356-10.022 102.724 5.456 32.369 15.477 56.78 42.654 68.74 76.531 11.96 33.877 10.022 70.356-5.455 102.725-15.478 32.369-42.655 56.779-76.532 68.739-33.877 11.96-70.356 10.022-102.725-5.455-32.368-15.478-56.779-42.654-68.739-76.532-11.96-33.877-10.022-70.356 5.455-102.724 15.478-32.369 42.675-56.788 76.532-68.74Zm89.285 252.908c69.574-24.563 106.218-101.163 81.649-170.758-24.57-69.594-101.163-106.218-170.757-81.648-69.595 24.569-106.218 101.162-81.649 170.757 24.57 69.594 101.184 106.211 170.757 81.649Z" fill="url(#H)"/>
    <path d="M386.411 202.142c30.803-10.875 63.975-9.11 93.401 4.96 29.426 14.071 51.627 38.782 62.501 69.586 10.875 30.803 9.11 63.975-4.96 93.401-14.071 29.426-38.782 51.626-69.586 62.501-30.803 10.875-63.975 9.11-93.401-4.961-29.426-14.07-51.626-38.782-62.501-69.585-10.875-30.803-9.11-63.975 4.961-93.401 14.07-29.427 38.782-51.627 69.585-62.501Zm81.172 229.925c63.237-22.325 96.54-91.937 74.207-155.195-22.325-63.237-91.957-96.533-155.195-74.207-63.237 22.325-96.54 91.936-74.207 155.195 22.353 63.251 91.957 96.532 155.195 74.207Z" fill="url(#I)"/>
    <path d="M390.471 213.643c27.729-9.789 57.595-8.197 84.078 4.466 26.484 12.663 46.473 34.91 56.263 62.639 9.789 27.729 8.197 57.595-4.466 84.078-12.663 26.484-34.91 46.473-62.639 56.262-27.729 9.79-57.595 8.198-84.078-4.465-26.484-12.664-46.473-34.91-56.263-62.639-9.789-27.729-8.197-57.595 4.466-84.079 12.684-26.491 34.91-46.472 62.639-56.262Zm73.051 206.923c56.901-20.089 86.855-82.732 66.767-139.634-20.088-56.901-82.732-86.854-139.633-66.766-56.901 20.088-86.855 82.732-66.767 139.633 20.088 56.901 82.732 86.855 139.633 66.767Z" fill="url(#J)"/>
  </g>
  <defs>
    <linearGradient id="a" x1="212.063" y1="529.771" x2="601.981" y2="23.346" gradientUnits="userSpaceOnUse">
      <stop stop-color="#794BFB"/>
      <stop offset="1" stop-color="#43D2FF"/>
    </linearGradient>
    <linearGradient id="b" x1="212.063" y1="529.771" x2="601.981" y2="23.346" gradientUnits="userSpaceOnUse">
      <stop stop-color="#794BFB"/>
      <stop offset="1" stop-color="#43D2FF"/>
    </linearGradient>
    <linearGradient id="c" x1="212.063" y1="529.771" x2="601.981" y2="23.346" gradientUnits="userSpaceOnUse">
      <stop stop-color="#794BFB"/>
      <stop offset="1" stop-color="#43D2FF"/>
    </linearGradient>
    <linearGradient id="d" x1="212.063" y1="529.771" x2="601.981" y2="23.346" gradientUnits="userSpaceOnUse">
      <stop stop-color="#794BFB"/>
      <stop offset="1" stop-color="#43D2FF"/>
    </linearGradient>
    <linearGradient id="e" x1="212.063" y1="529.771" x2="601.981" y2="23.346" gradientUnits="userSpaceOnUse">
      <stop stop-color="#794BFB"/>
      <stop offset="1" stop-color="#43D2FF"/>
    </linearGradient>
    <linearGradient id="f" x1="212.063" y1="529.771" x2="601.981" y2="23.346" gradientUnits="userSpaceOnUse">
      <stop stop-color="#794BFB"/>
      <stop offset="1" stop-color="#43D2FF"/>
    </linearGradient>
    <linearGradient id="g" x1="212.063" y1="529.771" x2="601.981" y2="23.346" gradientUnits="userSpaceOnUse">
      <stop stop-color="#794BFB"/>
      <stop offset="1" stop-color="#43D2FF"/>
    </linearGradient>
    <linearGradient id="h" x1="212.063" y1="529.771" x2="601.981" y2="23.346" gradientUnits="userSpaceOnUse">
      <stop stop-color="#794BFB"/>
      <stop offset="1" stop-color="#43D2FF"/>
    </linearGradient>
    <linearGradient id="i" x1="212.063" y1="529.771" x2="601.981" y2="23.346" gradientUnits="userSpaceOnUse">
      <stop stop-color="#794BFB"/>
      <stop offset="1" stop-color="#43D2FF"/>
    </linearGradient>
    <linearGradient id="j" x1="212.063" y1="529.771" x2="601.981" y2="23.346" gradientUnits="userSpaceOnUse">
      <stop stop-color="#794BFB"/>
      <stop offset="1" stop-color="#43D2FF"/>
    </linearGradient>
    <linearGradient id="k" x1="212.063" y1="529.771" x2="601.981" y2="23.346" gradientUnits="userSpaceOnUse">
      <stop stop-color="#794BFB"/>
      <stop offset="1" stop-color="#43D2FF"/>
    </linearGradient>
    <linearGradient id="l" x1="212.063" y1="529.771" x2="601.981" y2="23.346" gradientUnits="userSpaceOnUse">
      <stop stop-color="#794BFB"/>
      <stop offset="1" stop-color="#43D2FF"/>
    </linearGradient>
    <linearGradient id="m" x1="212.063" y1="529.771" x2="601.981" y2="23.346" gradientUnits="userSpaceOnUse">
      <stop stop-color="#794BFB"/>
      <stop offset="1" stop-color="#43D2FF"/>
    </linearGradient>
    <linearGradient id="n" x1="212.063" y1="529.771" x2="601.981" y2="23.346" gradientUnits="userSpaceOnUse">
      <stop stop-color="#794BFB"/>
      <stop offset="1" stop-color="#43D2FF"/>
    </linearGradient>
    <linearGradient id="o" x1="212.063" y1="529.771" x2="601.981" y2="23.346" gradientUnits="userSpaceOnUse">
      <stop stop-color="#794BFB"/>
      <stop offset="1" stop-color="#43D2FF"/>
    </linearGradient>
    <linearGradient id="p" x1="212.063" y1="529.771" x2="601.981" y2="23.346" gradientUnits="userSpaceOnUse">
      <stop stop-color="#794BFB"/>
      <stop offset="1" stop-color="#43D2FF"/>
    </linearGradient>
    <linearGradient id="q" x1="212.063" y1="529.771" x2="601.981" y2="23.346" gradientUnits="userSpaceOnUse">
      <stop stop-color="#794BFB"/>
      <stop offset="1" stop-color="#43D2FF"/>
    </linearGradient>
    <linearGradient id="r" x1="212.063" y1="529.771" x2="601.981" y2="23.346" gradientUnits="userSpaceOnUse">
      <stop stop-color="#794BFB"/>
      <stop offset="1" stop-color="#43D2FF"/>
    </linearGradient>
    <linearGradient id="s" x1="212.063" y1="529.771" x2="601.981" y2="23.346" gradientUnits="userSpaceOnUse">
      <stop stop-color="#794BFB"/>
      <stop offset="1" stop-color="#43D2FF"/>
    </linearGradient>
    <linearGradient id="t" x1="212.063" y1="529.771" x2="601.981" y2="23.346" gradientUnits="userSpaceOnUse">
      <stop stop-color="#794BFB"/>
      <stop offset="1" stop-color="#43D2FF"/>
    </linearGradient>
    <linearGradient id="u" x1="212.063" y1="529.771" x2="601.981" y2="23.346" gradientUnits="userSpaceOnUse">
      <stop stop-color="#794BFB"/>
      <stop offset="1" stop-color="#43D2FF"/>
    </linearGradient>
    <linearGradient id="v" x1="212.063" y1="529.771" x2="601.981" y2="23.346" gradientUnits="userSpaceOnUse">
      <stop stop-color="#794BFB"/>
      <stop offset="1" stop-color="#43D2FF"/>
    </linearGradient>
    <linearGradient id="w" x1="212.063" y1="529.771" x2="601.981" y2="23.346" gradientUnits="userSpaceOnUse">
      <stop stop-color="#794BFB"/>
      <stop offset="1" stop-color="#43D2FF"/>
    </linearGradient>
    <linearGradient id="x" x1="212.063" y1="529.771" x2="601.981" y2="23.346" gradientUnits="userSpaceOnUse">
      <stop stop-color="#794BFB"/>
      <stop offset="1" stop-color="#43D2FF"/>
    </linearGradient>
    <linearGradient id="y" x1="212.063" y1="529.771" x2="601.981" y2="23.346" gradientUnits="userSpaceOnUse">
      <stop stop-color="#794BFB"/>
      <stop offset="1" stop-color="#43D2FF"/>
    </linearGradient>
    <linearGradient id="z" x1="212.063" y1="529.771" x2="601.981" y2="23.346" gradientUnits="userSpaceOnUse">
      <stop stop-color="#794BFB"/>
      <stop offset="1" stop-color="#43D2FF"/>
    </linearGradient>
    <linearGradient id="A" x1="212.063" y1="529.771" x2="601.981" y2="23.346" gradientUnits="userSpaceOnUse">
      <stop stop-color="#794BFB"/>
      <stop offset="1" stop-color="#43D2FF"/>
    </linearGradient>
    <linearGradient id="B" x1="212.063" y1="529.771" x2="601.981" y2="23.346" gradientUnits="userSpaceOnUse">
      <stop stop-color="#794BFB"/>
      <stop offset="1" stop-color="#43D2FF"/>
    </linearGradient>
    <linearGradient id="C" x1="212.063" y1="529.771" x2="601.981" y2="23.346" gradientUnits="userSpaceOnUse">
      <stop stop-color="#794BFB"/>
      <stop offset="1" stop-color="#43D2FF"/>
    </linearGradient>
    <linearGradient id="D" x1="212.063" y1="529.771" x2="601.981" y2="23.346" gradientUnits="userSpaceOnUse">
      <stop stop-color="#794BFB"/>
      <stop offset="1" stop-color="#43D2FF"/>
    </linearGradient>
    <linearGradient id="E" x1="212.063" y1="529.771" x2="601.981" y2="23.346" gradientUnits="userSpaceOnUse">
      <stop stop-color="#794BFB"/>
      <stop offset="1" stop-color="#43D2FF"/>
    </linearGradient>
    <linearGradient id="F" x1="212.063" y1="529.771" x2="601.981" y2="23.346" gradientUnits="userSpaceOnUse">
      <stop stop-color="#794BFB"/>
      <stop offset="1" stop-color="#43D2FF"/>
    </linearGradient>
    <linearGradient id="G" x1="212.063" y1="529.771" x2="601.981" y2="23.346" gradientUnits="userSpaceOnUse">
      <stop stop-color="#794BFB"/>
      <stop offset="1" stop-color="#43D2FF"/>
    </linearGradient>
    <linearGradient id="H" x1="212.063" y1="529.771" x2="601.981" y2="23.346" gradientUnits="userSpaceOnUse">
      <stop stop-color="#794BFB"/>
      <stop offset="1" stop-color="#43D2FF"/>
    </linearGradient>
    <linearGradient id="I" x1="212.063" y1="529.771" x2="601.981" y2="23.346" gradientUnits="userSpaceOnUse">
      <stop stop-color="#794BFB"/>
      <stop offset="1" stop-color="#43D2FF"/>
    </linearGradient>
    <linearGradient id="J" x1="212.063" y1="529.771" x2="601.981" y2="23.346" gradientUnits="userSpaceOnUse">
      <stop stop-color="#794BFB"/>
      <stop offset="1" stop-color="#43D2FF"/>
    </linearGradient>
  </defs>
</svg>
