<svg width="16" height="16" viewBox="0 0 16 16" fill="none" xmlns="http://www.w3.org/2000/svg">
<path d="M14.8054 13.7794C15.0973 14.0924 15.0608 14.5618 14.6959 14.8435C14.5135 14.9687 14.331 15 14.1486 15C13.8931 15 13.6377 14.9374 13.4553 14.7496L8.01824 9.17884L2.54474 14.7496C2.36229 14.9374 2.10686 15 1.85143 15C1.66898 15 1.48653 14.9687 1.30408 14.8435C0.939183 14.5618 0.902693 14.0924 1.19461 13.7794L6.85056 7.98957L1.19461 2.231C0.902693 1.91803 0.939183 1.44858 1.30408 1.16692C1.66898 0.916542 2.21633 0.947839 2.54474 1.2608L8.01824 6.83159L13.4553 1.2608C13.7837 0.947839 14.331 0.916542 14.6959 1.16692C15.0608 1.44858 15.0973 1.91803 14.8054 2.231L9.14943 7.98957L14.8054 13.7794Z" fill="#B3B6BB"/>
</svg>
