<svg xmlns="http://www.w3.org/2000/svg" xmlns:xlink="http://www.w3.org/1999/xlink" width="500" zoomAndPan="magnify" viewBox="0 0 375 374.999991" height="500" preserveAspectRatio="xMidYMid meet" version="1.0"><defs><g/></defs><g fill="#162a94" fill-opacity="1"><g transform="translate(0.0211327, 221.981193)"><g><path d="M 4.296875 -33.734375 C 4.296875 -39.835938 5.222656 -45.132812 7.078125 -49.625 C 8.929688 -54.113281 11.5 -57.835938 14.78125 -60.796875 C 18.070312 -63.765625 21.914062 -65.960938 26.3125 -67.390625 C 30.707031 -68.828125 35.445312 -69.546875 40.53125 -69.546875 C 42.382812 -69.546875 44.191406 -69.382812 45.953125 -69.0625 C 47.710938 -68.738281 49.144531 -68.347656 50.25 -67.890625 L 50.25 -90.375 C 51.175781 -90.65625 52.65625 -90.957031 54.6875 -91.28125 C 56.726562 -91.601562 58.816406 -91.765625 60.953125 -91.765625 C 62.984375 -91.765625 64.804688 -91.625 66.421875 -91.34375 C 68.046875 -91.070312 69.410156 -90.519531 70.515625 -89.6875 C 71.628906 -88.851562 72.460938 -87.71875 73.015625 -86.28125 C 73.578125 -84.84375 73.859375 -82.96875 73.859375 -80.65625 L 73.859375 -14.859375 C 73.859375 -10.503906 71.820312 -7.03125 67.75 -4.4375 C 65.0625 -2.6875 61.585938 -1.140625 57.328125 0.203125 C 53.078125 1.546875 48.175781 2.21875 42.625 2.21875 C 36.601562 2.21875 31.207031 1.382812 26.4375 -0.28125 C 21.675781 -1.945312 17.648438 -4.351562 14.359375 -7.5 C 11.078125 -10.644531 8.578125 -14.414062 6.859375 -18.8125 C 5.148438 -23.207031 4.296875 -28.179688 4.296875 -33.734375 Z M 43.734375 -51.09375 C 38.734375 -51.09375 34.890625 -49.65625 32.203125 -46.78125 C 29.523438 -43.914062 28.1875 -39.566406 28.1875 -33.734375 C 28.1875 -27.992188 29.429688 -23.664062 31.921875 -20.75 C 34.421875 -17.832031 38.035156 -16.375 42.765625 -16.375 C 44.429688 -16.375 45.929688 -16.628906 47.265625 -17.140625 C 48.609375 -17.648438 49.648438 -18.226562 50.390625 -18.875 L 50.390625 -49.421875 C 48.546875 -50.535156 46.328125 -51.09375 43.734375 -51.09375 Z M 43.734375 -51.09375 "/></g></g></g><g fill="#162a94" fill-opacity="1"><g transform="translate(81.365165, 221.981193)"><g><path d="M 77.046875 -33.734375 C 77.046875 -27.992188 76.164062 -22.878906 74.40625 -18.390625 C 72.65625 -13.898438 70.179688 -10.128906 66.984375 -7.078125 C 63.785156 -4.023438 59.96875 -1.710938 55.53125 -0.140625 C 51.09375 1.429688 46.140625 2.21875 40.671875 2.21875 C 35.210938 2.21875 30.257812 1.382812 25.8125 -0.28125 C 21.375 -1.945312 17.554688 -4.328125 14.359375 -7.421875 C 11.171875 -10.523438 8.695312 -14.296875 6.9375 -18.734375 C 5.175781 -23.179688 4.296875 -28.179688 4.296875 -33.734375 C 4.296875 -39.191406 5.175781 -44.140625 6.9375 -48.578125 C 8.695312 -53.023438 11.171875 -56.800781 14.359375 -59.90625 C 17.554688 -63.007812 21.375 -65.390625 25.8125 -67.046875 C 30.257812 -68.710938 35.210938 -69.546875 40.671875 -69.546875 C 46.140625 -69.546875 51.09375 -68.691406 55.53125 -66.984375 C 59.96875 -65.273438 63.785156 -62.867188 66.984375 -59.765625 C 70.179688 -56.660156 72.65625 -52.882812 74.40625 -48.4375 C 76.164062 -44 77.046875 -39.097656 77.046875 -33.734375 Z M 28.453125 -33.734375 C 28.453125 -28.085938 29.539062 -23.757812 31.71875 -20.75 C 33.894531 -17.75 36.925781 -16.25 40.8125 -16.25 C 44.695312 -16.25 47.679688 -17.773438 49.765625 -20.828125 C 51.847656 -23.878906 52.890625 -28.179688 52.890625 -33.734375 C 52.890625 -39.285156 51.820312 -43.566406 49.6875 -46.578125 C 47.5625 -49.585938 44.554688 -51.09375 40.671875 -51.09375 C 36.785156 -51.09375 33.773438 -49.585938 31.640625 -46.578125 C 29.515625 -43.566406 28.453125 -39.285156 28.453125 -33.734375 Z M 28.453125 -33.734375 "/></g></g></g><g fill="#162a94" fill-opacity="1"><g transform="translate(162.709198, 221.981193)"><g><path d="M 45.265625 -50.953125 C 42.941406 -50.953125 40.738281 -50.582031 38.65625 -49.84375 C 36.582031 -49.101562 34.78125 -48.015625 33.25 -46.578125 C 31.71875 -45.140625 30.488281 -43.351562 29.5625 -41.21875 C 28.644531 -39.09375 28.1875 -36.597656 28.1875 -33.734375 C 28.1875 -27.992188 29.828125 -23.6875 33.109375 -20.8125 C 36.390625 -17.945312 40.394531 -16.515625 45.125 -16.515625 C 47.894531 -16.515625 50.296875 -16.835938 52.328125 -17.484375 C 54.367188 -18.140625 56.175781 -18.835938 57.75 -19.578125 C 59.601562 -18.273438 60.992188 -16.859375 61.921875 -15.328125 C 62.847656 -13.804688 63.3125 -11.984375 63.3125 -9.859375 C 63.3125 -6.066406 61.503906 -3.128906 57.890625 -1.046875 C 54.285156 1.035156 49.285156 2.078125 42.890625 2.078125 C 37.066406 2.078125 31.789062 1.222656 27.0625 -0.484375 C 22.34375 -2.191406 18.296875 -4.597656 14.921875 -7.703125 C 11.546875 -10.804688 8.929688 -14.53125 7.078125 -18.875 C 5.222656 -23.226562 4.296875 -28.039062 4.296875 -33.3125 C 4.296875 -39.425781 5.289062 -44.769531 7.28125 -49.34375 C 9.269531 -53.925781 11.976562 -57.695312 15.40625 -60.65625 C 18.832031 -63.625 22.789062 -65.847656 27.28125 -67.328125 C 31.769531 -68.804688 36.515625 -69.546875 41.515625 -69.546875 C 48.171875 -69.546875 53.300781 -68.34375 56.90625 -65.9375 C 60.519531 -63.53125 62.328125 -60.429688 62.328125 -56.640625 C 62.328125 -54.878906 61.910156 -53.234375 61.078125 -51.703125 C 60.242188 -50.179688 59.273438 -48.863281 58.171875 -47.75 C 56.597656 -48.5 54.695312 -49.21875 52.46875 -49.90625 C 50.25 -50.601562 47.847656 -50.953125 45.265625 -50.953125 Z M 45.265625 -50.953125 "/></g></g></g><g fill="#162a94" fill-opacity="1"><g transform="translate(230.588428, 221.981193)"><g><path d="M 45.265625 -50.953125 C 42.941406 -50.953125 40.738281 -50.582031 38.65625 -49.84375 C 36.582031 -49.101562 34.78125 -48.015625 33.25 -46.578125 C 31.71875 -45.140625 30.488281 -43.351562 29.5625 -41.21875 C 28.644531 -39.09375 28.1875 -36.597656 28.1875 -33.734375 C 28.1875 -27.992188 29.828125 -23.6875 33.109375 -20.8125 C 36.390625 -17.945312 40.394531 -16.515625 45.125 -16.515625 C 47.894531 -16.515625 50.296875 -16.835938 52.328125 -17.484375 C 54.367188 -18.140625 56.175781 -18.835938 57.75 -19.578125 C 59.601562 -18.273438 60.992188 -16.859375 61.921875 -15.328125 C 62.847656 -13.804688 63.3125 -11.984375 63.3125 -9.859375 C 63.3125 -6.066406 61.503906 -3.128906 57.890625 -1.046875 C 54.285156 1.035156 49.285156 2.078125 42.890625 2.078125 C 37.066406 2.078125 31.789062 1.222656 27.0625 -0.484375 C 22.34375 -2.191406 18.296875 -4.597656 14.921875 -7.703125 C 11.546875 -10.804688 8.929688 -14.53125 7.078125 -18.875 C 5.222656 -23.226562 4.296875 -28.039062 4.296875 -33.3125 C 4.296875 -39.425781 5.289062 -44.769531 7.28125 -49.34375 C 9.269531 -53.925781 11.976562 -57.695312 15.40625 -60.65625 C 18.832031 -63.625 22.789062 -65.847656 27.28125 -67.328125 C 31.769531 -68.804688 36.515625 -69.546875 41.515625 -69.546875 C 48.171875 -69.546875 53.300781 -68.34375 56.90625 -65.9375 C 60.519531 -63.53125 62.328125 -60.429688 62.328125 -56.640625 C 62.328125 -54.878906 61.910156 -53.234375 61.078125 -51.703125 C 60.242188 -50.179688 59.273438 -48.863281 58.171875 -47.75 C 56.597656 -48.5 54.695312 -49.21875 52.46875 -49.90625 C 50.25 -50.601562 47.847656 -50.953125 45.265625 -50.953125 Z M 45.265625 -50.953125 "/></g></g></g><g fill="#162a94" fill-opacity="1"><g transform="translate(298.467657, 221.981193)"><g><path d="M 17.765625 -17.21875 C 16.753906 -19.53125 15.664062 -22.117188 14.5 -24.984375 C 13.34375 -27.859375 12.140625 -31.144531 10.890625 -34.84375 C 9.648438 -38.550781 8.359375 -42.785156 7.015625 -47.546875 C 5.671875 -52.316406 4.257812 -57.800781 2.78125 -64 C 4.070312 -65.289062 5.804688 -66.421875 7.984375 -67.390625 C 10.160156 -68.367188 12.539062 -68.859375 15.125 -68.859375 C 18.363281 -68.859375 21.046875 -68.1875 23.171875 -66.84375 C 25.304688 -65.5 26.882812 -62.976562 27.90625 -59.28125 L 38.875 -21.109375 L 39.421875 -21.109375 C 40.535156 -24.253906 41.625 -27.675781 42.6875 -31.375 C 43.75 -35.070312 44.789062 -38.890625 45.8125 -42.828125 C 46.832031 -46.765625 47.78125 -50.695312 48.65625 -54.625 C 49.539062 -58.5625 50.304688 -62.425781 50.953125 -66.21875 C 54.285156 -67.976562 57.941406 -68.859375 61.921875 -68.859375 C 65.160156 -68.859375 67.84375 -68.160156 69.96875 -66.765625 C 72.09375 -65.378906 73.15625 -62.976562 73.15625 -59.5625 C 73.15625 -57.0625 72.832031 -54.164062 72.1875 -50.875 C 71.539062 -47.59375 70.6875 -44.097656 69.625 -40.390625 C 68.5625 -36.691406 67.3125 -32.875 65.875 -28.9375 C 64.4375 -25.007812 62.929688 -21.144531 61.359375 -17.34375 C 59.785156 -13.550781 58.164062 -9.96875 56.5 -6.59375 C 54.832031 -3.21875 53.210938 -0.1875 51.640625 2.5 C 49.046875 7.03125 46.640625 10.726562 44.421875 13.59375 C 42.203125 16.46875 40.070312 18.710938 38.03125 20.328125 C 36 21.953125 33.960938 23.066406 31.921875 23.671875 C 29.890625 24.273438 27.765625 24.578125 25.546875 24.578125 C 21.660156 24.578125 18.515625 23.414062 16.109375 21.09375 C 13.703125 18.78125 12.265625 15.773438 11.796875 12.078125 C 14.765625 9.765625 17.726562 7.195312 20.6875 4.375 C 23.644531 1.550781 26.328125 -1.335938 28.734375 -4.296875 C 27.160156 -4.765625 25.472656 -5.851562 23.671875 -7.5625 C 21.867188 -9.28125 19.898438 -12.5 17.765625 -17.21875 Z M 17.765625 -17.21875 "/></g></g></g></svg>