<svg width="44" height="44" viewBox="0 0 44 44" fill="none" xmlns="http://www.w3.org/2000/svg">
<path d="M29.2188 15.5547L19.25 25.6094L14.6953 21.0547C14.1797 20.5391 13.2344 20.5391 12.7188 21.0547C12.2031 21.5703 12.2031 22.5156 12.7188 23.0312L18.2188 28.5312C18.4766 28.7891 18.8203 28.875 19.25 28.875C19.5938 28.875 19.9375 28.7891 20.1953 28.5312L31.1953 17.5312C31.7109 17.0156 31.7109 16.0703 31.1953 15.5547C30.6797 15.0391 29.7344 15.0391 29.2188 15.5547ZM22 0C9.79688 0 0 9.88281 0 22C0 34.2031 9.79688 44 22 44C34.1172 44 44 34.2031 44 22C44 9.88281 34.1172 0 22 0ZM22 41.25C11.3438 41.25 2.75 32.6562 2.75 22C2.75 11.4297 11.3438 2.75 22 2.75C32.5703 2.75 41.25 11.4297 41.25 22C41.25 32.6562 32.5703 41.25 22 41.25Z" fill="#794BFB"/>
</svg>
