<svg width="229" height="54" viewBox="0 0 229 54" fill="none" xmlns="http://www.w3.org/2000/svg">
<g id="Logo Vardanants" clip-path="url(#clip0_4378_29238)">
<path id="Vector" d="M224.548 35.1H228.299V36.0112H225.71V37.6481H228.111V38.5087H225.71V40.1709H228.496V41.0822H224.548V35.1Z" fill="#002F5F"/>
<path id="Vector_2" fill-rule="evenodd" clip-rule="evenodd" d="M26.8393 50.1694C25.9335 49.7981 25.2927 48.9206 25.2927 47.8997C25.2927 46.8788 25.9335 46.0013 26.8393 45.63V50.1694ZM28.7704 45.63C29.6761 46.0013 30.317 46.8788 30.317 47.8997C30.317 48.9206 29.6761 49.7981 28.7704 50.1694V45.63ZM28.7704 36.6694H30.411C32.4276 36.6694 34.0852 38.2894 34.0852 40.2722C34.0852 42.255 32.4361 43.875 30.411 43.875H28.7704V36.6694ZM26.8393 43.8666H25.2072C23.1907 43.8666 21.533 42.2466 21.533 40.2638C21.533 38.281 23.1821 36.6609 25.2072 36.6609H26.8478V43.8666H26.8393ZM26.8393 35.0663H23.4812C19.7727 35.0663 16.7479 32.2988 16.7479 28.9153C16.7479 26.4938 18.303 24.3844 20.5418 23.3888C20.9861 23.2622 21.3364 23.2285 21.7295 23.2706C21.9602 23.8444 22.5242 24.2578 23.1992 24.2578C24.0708 24.2578 24.7714 23.566 24.7714 22.7138C24.7714 21.8616 24.0708 21.1697 23.1992 21.1697C23.0539 21.1697 22.9172 21.1866 22.7805 21.2203H22.772C18.4568 21.2203 14.9279 24.6797 14.9279 28.9069C14.9279 32.6616 17.7135 35.8172 21.3706 36.4753C20.3196 37.4203 19.6617 38.7703 19.6617 40.2638C19.6617 42.9553 21.8064 45.1828 24.498 45.3938C23.9511 46.0856 23.6264 46.9547 23.6264 47.8997C23.6264 49.7053 24.8142 51.2325 26.4633 51.7809C26.3095 51.9919 26.2155 52.245 26.2155 52.515C26.2155 52.9453 26.4462 53.325 26.7965 53.5697C12.2192 53.055 0.564087 41.31 0.564087 26.8903C0.564087 12.3778 12.3815 0.565327 27.1042 0.202515C26.2582 0.48939 25.6515 1.27408 25.6515 2.2022C25.6515 3.02908 26.1386 3.74626 26.8393 4.0922V7.72876H14.0136C13.4923 7.72876 13.0565 8.15064 13.0565 8.67376C13.0565 9.18845 13.4838 9.61876 14.0136 9.61876H26.8478V12.3188H18.6961C18.1663 12.3188 17.7391 12.7406 17.7391 13.2638C17.7391 13.7869 18.1663 14.2088 18.6961 14.2088H26.8478V16.9088H23.5154C22.9856 16.9088 22.5583 17.3306 22.5583 17.8538C22.5583 18.3685 22.9856 18.7988 23.5154 18.7988H26.8478V35.0663H26.8393ZM28.5055 0.202515C43.2282 0.565327 55.0456 12.3778 55.0456 26.8903C55.0456 41.3016 43.3905 53.0466 28.8131 53.5697C29.172 53.3166 29.3942 52.9369 29.3942 52.515C29.3942 52.245 29.3002 51.9919 29.1464 51.7809C30.7955 51.2325 31.9832 49.7053 31.9832 47.8997C31.9832 46.9547 31.6585 46.0856 31.1117 45.3938C33.8118 45.1828 35.948 42.9553 35.948 40.2638C35.948 38.7872 35.3071 37.4541 34.2818 36.5091C38.0329 35.9353 40.9211 32.7375 40.9211 28.9069C40.9211 24.6797 37.3921 21.2203 33.077 21.2203H33.0684C32.9317 21.1866 32.795 21.1697 32.6497 21.1697C31.7782 21.1697 31.0775 21.8616 31.0775 22.7138C31.0775 23.566 31.7782 24.2578 32.6497 24.2578C33.3162 24.2578 33.8887 23.8444 34.1194 23.2706C34.5125 23.2285 34.8628 23.2622 35.3071 23.3888C37.5459 24.3928 39.101 26.4938 39.101 28.9153C39.101 32.2988 36.0676 35.0663 32.3677 35.0663H28.7704V18.7903H32.1029C32.6241 18.7903 33.0599 18.3685 33.0599 17.8453C33.0599 17.3306 32.6326 16.9003 32.1029 16.9003H28.7704V14.2003H36.9221C37.4433 14.2003 37.8791 13.7785 37.8791 13.2553C37.8791 12.7406 37.4519 12.3103 36.9221 12.3103H28.7704V9.61033H41.6046C42.1259 9.61033 42.5617 9.18845 42.5617 8.66533C42.5617 8.1422 42.1344 7.72033 41.6046 7.72033H28.7704V4.08377C29.4796 3.73783 29.9667 3.02064 29.9667 2.19376C29.9581 1.27408 29.3514 0.48939 28.5055 0.202515Z" fill="#DE5D5D"/>
<path id="Vector_3" d="M68.6744 38.0109C68.6744 36.0028 69.7938 34.8975 71.9129 34.8975C72.887 34.8975 73.4082 35.0915 73.7415 35.235L73.4339 36.0956C72.981 35.969 72.6648 35.8678 71.93 35.8593C70.7765 35.8509 69.8707 36.4837 69.8707 37.9265C69.8707 39.3778 70.8106 40.0865 72.1009 40.0865C72.6819 40.0865 73.1006 40.0106 73.5108 39.8925L73.7671 40.7784C73.3143 40.9387 72.8101 41.0568 71.9471 41.0568C69.8109 41.0568 68.6744 39.9093 68.6744 38.0109Z" fill="#002F5F"/>
<path id="Vector_4" d="M74.9462 34.9902H78.6973V35.9015H76.1083V37.5299H78.5093V38.399H76.1083V40.0527H78.8939V40.964H74.9462V34.9902Z" fill="#002F5F"/>
<path id="Vector_5" d="M80.2271 34.9902H81.654L84.3029 39.5802L84.2687 38.8799V34.9902H85.4394V40.964H83.944L81.355 36.4668L81.3891 37.1924V40.964H80.2271V34.9902Z" fill="#002F5F"/>
<path id="Vector_6" d="M88.4557 35.9099H86.4904V34.9902H91.5916V35.9099H89.6263V40.964H88.4557V35.9099Z" fill="#002F5F"/>
<path id="Vector_7" d="M92.6423 34.9902H96.3935V35.9015H93.8044V37.5299H96.2055V38.399H93.8044V40.0527H96.59V40.964H92.6423V34.9902Z" fill="#002F5F"/>
<path id="Vector_8" d="M100.956 39.8587L100.11 38.7618C99.9908 38.7787 99.8285 38.7871 99.6917 38.7871H99.1022V40.964H97.9315V34.9902H100.136C101.418 34.9902 102.332 35.5809 102.332 36.8718C102.332 37.5468 102.007 38.1543 101.298 38.4918L102.042 39.403C102.4 39.8334 102.802 40.0443 103.332 40.1793L103.075 41.0652C102.204 41.023 101.546 40.5843 100.956 39.8587ZM99.7345 37.9349C100.623 37.9349 101.11 37.6059 101.11 36.9055C101.11 36.1799 100.768 35.9015 99.9395 35.9015H99.0936V37.9349H99.7345Z" fill="#002F5F"/>
<path id="Vector_9" d="M106.476 34.9902H110.45V35.9015H107.638V37.6818H110.262V38.5509H107.638V40.964H106.476V34.9902Z" fill="#002F5F"/>
<path id="Vector_10" d="M111.347 37.9687C111.347 36.0871 112.612 34.8975 114.603 34.8975C116.705 34.8975 117.679 36.2221 117.679 37.9856C117.679 39.8671 116.517 41.0737 114.44 41.0737C112.407 41.0653 111.347 39.8503 111.347 37.9687ZM116.482 37.9687C116.482 36.7368 115.85 35.8087 114.517 35.8087C113.133 35.8087 112.526 36.7284 112.526 37.9518C112.526 39.1415 113.116 40.1456 114.457 40.1456C115.901 40.1456 116.482 39.2006 116.482 37.9687Z" fill="#002F5F"/>
<path id="Vector_11" d="M122.105 39.8587L121.259 38.7618C121.139 38.7787 120.977 38.7871 120.84 38.7871H120.25V40.964H119.08V34.9902H121.293C122.575 34.9902 123.48 35.5809 123.48 36.8718C123.48 37.5468 123.156 38.1543 122.446 38.4918L123.19 39.403C123.549 39.8334 123.95 40.0443 124.48 40.1793L124.224 41.0652C123.352 41.023 122.694 40.5843 122.105 39.8587ZM120.883 37.9349C121.771 37.9349 122.258 37.6059 122.258 36.9055C122.258 36.1799 121.917 35.9015 121.088 35.9015H120.242V37.9349H120.883Z" fill="#002F5F"/>
<path id="Vector_12" d="M128.787 34.9902H127.625V40.964H128.787V34.9902Z" fill="#002F5F"/>
<path id="Vector_13" d="M130.496 34.9902H131.931L134.572 39.5802L134.538 38.8799V34.9902H135.717V40.964H134.213L131.632 36.4668L131.667 37.1924V40.964H130.496V34.9902Z" fill="#002F5F"/>
<path id="Vector_14" d="M137.443 34.9902H138.87L141.519 39.5802L141.485 38.8799V34.9902H142.655V40.964H141.16L138.571 36.4668L138.605 37.1924V40.964H137.443V34.9902Z" fill="#002F5F"/>
<path id="Vector_15" d="M144.048 37.9687C144.048 36.0871 145.312 34.8975 147.303 34.8975C149.414 34.8975 150.38 36.2221 150.38 37.9856C150.38 39.8671 149.217 41.0737 147.141 41.0737C145.107 41.0653 144.048 39.8503 144.048 37.9687ZM149.183 37.9687C149.183 36.7368 148.551 35.8087 147.218 35.8087C145.834 35.8087 145.227 36.7284 145.227 37.9518C145.227 39.1415 145.817 40.1456 147.158 40.1456C148.602 40.1456 149.183 39.2006 149.183 37.9687Z" fill="#002F5F"/>
<path id="Vector_16" d="M150.867 34.9902H152.106L153.772 40.0949L155.694 34.9902H156.874L154.515 40.964H152.977L150.867 34.9902Z" fill="#002F5F"/>
<path id="Vector_17" d="M159.104 34.9902H160.616L162.718 40.9724H161.505L160.838 39.0402H158.659L157.916 40.9724H156.745L159.104 34.9902ZM160.556 38.1796L159.821 35.7243L158.993 38.1796H160.556Z" fill="#002F5F"/>
<path id="Vector_18" d="M164.53 35.9099H162.573V34.9902H167.665V35.9099H165.709V40.964H164.53V35.9099Z" fill="#002F5F"/>
<path id="Vector_19" d="M169.879 34.9902H168.717V40.964H169.879V34.9902Z" fill="#002F5F"/>
<path id="Vector_20" d="M170.904 34.9902H172.143L173.809 40.0949L175.732 34.9902H176.919L174.552 40.964H173.023L170.904 34.9902Z" fill="#002F5F"/>
<path id="Vector_21" d="M177.953 34.9902H181.705V35.9015H179.115V37.5299H181.517V38.399H179.115V40.0527H181.901V40.964H177.953V34.9902Z" fill="#002F5F"/>
<path id="Vector_22" d="M185.37 34.9902H186.857L188.652 40.0105L190.702 34.9902H192.129V40.964H190.959V37.9602L190.993 36.7368L189.327 40.964H187.925L186.456 36.6777L186.532 37.9602V40.964H185.37V34.9902Z" fill="#002F5F"/>
<path id="Vector_23" d="M193.864 34.9902H197.615V35.9015H195.034V37.5299H197.427V38.399H195.034V40.0527H197.811V40.964H193.864V34.9902Z" fill="#002F5F"/>
<path id="Vector_24" d="M199.145 34.9902H201.11C203.152 34.9902 204.579 35.9268 204.579 37.9602C204.579 40.0359 203.28 40.9724 201.161 40.9724H199.145V34.9902ZM201.255 40.0527C202.708 40.0527 203.409 39.3609 203.409 38.0446C203.409 36.6102 202.605 35.9015 201.084 35.9015H200.307V40.0527H201.255Z" fill="#002F5F"/>
<path id="Vector_25" d="M207.125 34.9902H205.963V40.964H207.125V34.9902Z" fill="#002F5F"/>
<path id="Vector_26" d="M208.518 38.0109C208.518 36.0028 209.637 34.8975 211.757 34.8975C212.731 34.8975 213.252 35.0915 213.585 35.235L213.278 36.0956C212.825 35.969 212.508 35.8678 211.774 35.8593C210.62 35.8509 209.714 36.4837 209.714 37.9265C209.714 39.3778 210.654 40.0865 211.945 40.0865C212.526 40.0865 212.944 40.0106 213.354 39.8925L213.611 40.7784C213.158 40.9387 212.654 41.0568 211.791 41.0568C209.655 41.0568 208.518 39.9093 208.518 38.0109Z" fill="#002F5F"/>
<path id="Vector_27" d="M215.952 34.9902H214.79V40.964H215.952V34.9902Z" fill="#002F5F"/>
<path id="Vector_28" d="M217.661 34.9902H219.097L221.737 39.5802L221.703 38.8799V34.9902H222.882V40.964H221.378L218.789 36.4668L218.823 37.1924V40.964H217.661V34.9902Z" fill="#002F5F"/>
<path id="Vector_29" d="M68.3328 13.6687H72.2634L76.1171 26.2659L80.6885 13.6687H84.4909L78.4498 29.0165H73.6305L68.3328 13.6687Z" fill="#002F5F"/>
<path id="Vector_30" d="M89.4809 13.6687H94.3001L99.5381 29.025H95.6673L94.1976 24.5278H88.9425L87.2507 29.025H83.5081L89.4809 13.6687ZM93.3089 21.8531L91.7452 15.9468L89.9166 21.8531H93.3089Z" fill="#002F5F"/>
<path id="Vector_31" d="M109.074 25.7175L107.314 23.7009C107.049 23.7178 106.767 23.7178 106.477 23.7178H105.332V29.0165H101.572V13.6687H107.622C111.116 13.6687 113.629 15.255 113.629 18.689C113.629 20.4018 112.791 21.9037 111.125 22.8403L112.706 24.5362C113.56 25.4475 114.534 26.055 116.226 26.4937L115.389 29.3203C112.347 29.1515 110.698 27.5906 109.074 25.7175ZM106.613 21.1359C108.835 21.1359 109.783 20.2246 109.783 18.765C109.783 17.2209 109.143 16.5712 107.143 16.5712H105.34V21.1359H106.613Z" fill="#002F5F"/>
<path id="Vector_32" d="M118.226 13.6687H123.788C129.18 13.6687 132.871 15.9468 132.871 21.2962C132.871 26.6203 129.53 29.025 123.916 29.025H118.217V13.6687H118.226ZM124.164 26.1309C127.753 26.1309 129.137 24.5278 129.137 21.5071C129.137 18.2081 127.462 16.5543 123.728 16.5543H121.951V26.1309H124.164Z" fill="#002F5F"/>
<path id="Vector_33" d="M139.425 13.6687H144.245L149.483 29.025H145.612L144.142 24.5278H138.887L137.195 29.025H133.453L139.425 13.6687ZM143.253 21.8531L141.69 15.9468L139.861 21.8531H143.253Z" fill="#002F5F"/>
<path id="Vector_34" d="M151.516 13.6687H155.848L161.966 24.1987L161.855 22.4859V13.6687H165.598V29.0165H161.129L155.173 18.7481L155.258 20.7899V29.0165H151.516V13.6687Z" fill="#002F5F"/>
<path id="Vector_35" d="M173.613 13.6687H178.432L183.67 29.025H179.799L178.329 24.5278H173.074L171.383 29.025H167.64L173.613 13.6687ZM177.441 21.8531L175.877 15.9468L174.048 21.8531H177.441Z" fill="#002F5F"/>
<path id="Vector_36" d="M185.704 13.6687H190.036L196.154 24.1987L196.043 22.4859V13.6687H199.777V29.0165H195.317L189.352 18.7481L189.446 20.7899V29.0165H185.704V13.6687Z" fill="#002F5F"/>
<path id="Vector_37" d="M206.672 16.5543H201.785V13.6687H215.294V16.5543H210.406V29.0165H206.672V16.5543Z" fill="#002F5F"/>
<path id="Vector_38" d="M216.456 28.1729L217.516 25.5235C218.9 26.0045 219.917 26.2154 221.626 26.2154C223.497 26.2154 224.351 25.6501 224.351 24.7135C224.351 22.216 216.96 22.891 216.96 17.6767C216.96 14.7235 219.797 13.441 222.548 13.441C225.009 13.441 226.197 13.9642 227.41 14.4873L226.334 17.0523C225.189 16.7317 224.24 16.4279 222.66 16.4279C221.096 16.4279 220.617 17.0101 220.617 17.6682C220.617 19.7101 228.137 19.7101 228.137 24.5954C228.137 27.962 224.881 29.2698 221.668 29.2698C219.122 29.2614 217.627 28.8057 216.456 28.1729Z" fill="#002F5F"/>
</g>
<defs>
<clipPath id="clip0_4378_29238">
<rect width="229" height="54" fill="white"/>
</clipPath>
</defs>
</svg>
