<svg xmlns="http://www.w3.org/2000/svg" xmlns:xlink="http://www.w3.org/1999/xlink" width="108" zoomAndPan="magnify" viewBox="0 0 81 30.000001" height="40" preserveAspectRatio="xMidYMid meet" version="1.0"><defs><g/></defs><g fill="#ffffff" fill-opacity="1"><g transform="translate(9.709051, 20.159043)"><g><path d="M 0.703125 -5.546875 C 0.703125 -6.546875 0.851562 -7.410156 1.15625 -8.140625 C 1.46875 -8.878906 1.890625 -9.492188 2.421875 -9.984375 C 2.960938 -10.472656 3.59375 -10.832031 4.3125 -11.0625 C 5.039062 -11.300781 5.820312 -11.421875 6.65625 -11.421875 C 6.957031 -11.421875 7.253906 -11.394531 7.546875 -11.34375 C 7.835938 -11.289062 8.070312 -11.222656 8.25 -11.140625 L 8.25 -14.84375 C 8.40625 -14.882812 8.648438 -14.929688 8.984375 -14.984375 C 9.316406 -15.035156 9.660156 -15.0625 10.015625 -15.0625 C 10.347656 -15.0625 10.644531 -15.039062 10.90625 -15 C 11.175781 -14.957031 11.398438 -14.863281 11.578125 -14.71875 C 11.765625 -14.582031 11.898438 -14.394531 11.984375 -14.15625 C 12.078125 -13.925781 12.125 -13.625 12.125 -13.25 L 12.125 -2.4375 C 12.125 -1.726562 11.789062 -1.160156 11.125 -0.734375 C 10.6875 -0.441406 10.113281 -0.1875 9.40625 0.03125 C 8.707031 0.25 7.90625 0.359375 7 0.359375 C 6.007812 0.359375 5.125 0.222656 4.34375 -0.046875 C 3.5625 -0.316406 2.898438 -0.707031 2.359375 -1.21875 C 1.816406 -1.738281 1.40625 -2.359375 1.125 -3.078125 C 0.84375 -3.804688 0.703125 -4.628906 0.703125 -5.546875 Z M 7.1875 -8.390625 C 6.363281 -8.390625 5.726562 -8.148438 5.28125 -7.671875 C 4.84375 -7.203125 4.625 -6.492188 4.625 -5.546875 C 4.625 -4.597656 4.828125 -3.882812 5.234375 -3.40625 C 5.648438 -2.925781 6.242188 -2.6875 7.015625 -2.6875 C 7.296875 -2.6875 7.546875 -2.726562 7.765625 -2.8125 C 7.984375 -2.894531 8.15625 -2.988281 8.28125 -3.09375 L 8.28125 -8.109375 C 7.96875 -8.296875 7.601562 -8.390625 7.1875 -8.390625 Z M 7.1875 -8.390625 "/></g></g></g><g fill="#ffffff" fill-opacity="1"><g transform="translate(23.069128, 20.159043)"><g><path d="M 12.65625 -5.546875 C 12.65625 -4.597656 12.507812 -3.753906 12.21875 -3.015625 C 11.925781 -2.285156 11.519531 -1.664062 11 -1.15625 C 10.476562 -0.65625 9.851562 -0.273438 9.125 -0.015625 C 8.394531 0.234375 7.578125 0.359375 6.671875 0.359375 C 5.773438 0.359375 4.960938 0.222656 4.234375 -0.046875 C 3.503906 -0.316406 2.878906 -0.707031 2.359375 -1.21875 C 1.835938 -1.726562 1.429688 -2.347656 1.140625 -3.078125 C 0.847656 -3.804688 0.703125 -4.628906 0.703125 -5.546875 C 0.703125 -6.441406 0.847656 -7.253906 1.140625 -7.984375 C 1.429688 -8.710938 1.835938 -9.328125 2.359375 -9.828125 C 2.878906 -10.335938 3.503906 -10.726562 4.234375 -11 C 4.960938 -11.28125 5.773438 -11.421875 6.671875 -11.421875 C 7.578125 -11.421875 8.394531 -11.28125 9.125 -11 C 9.851562 -10.71875 10.476562 -10.320312 11 -9.8125 C 11.519531 -9.300781 11.925781 -8.679688 12.21875 -7.953125 C 12.507812 -7.222656 12.65625 -6.421875 12.65625 -5.546875 Z M 4.671875 -5.546875 C 4.671875 -4.617188 4.847656 -3.90625 5.203125 -3.40625 C 5.566406 -2.914062 6.066406 -2.671875 6.703125 -2.671875 C 7.335938 -2.671875 7.828125 -2.921875 8.171875 -3.421875 C 8.515625 -3.921875 8.6875 -4.628906 8.6875 -5.546875 C 8.6875 -6.453125 8.507812 -7.148438 8.15625 -7.640625 C 7.8125 -8.140625 7.316406 -8.390625 6.671875 -8.390625 C 6.035156 -8.390625 5.539062 -8.140625 5.1875 -7.640625 C 4.84375 -7.148438 4.671875 -6.453125 4.671875 -5.546875 Z M 4.671875 -5.546875 "/></g></g></g><g fill="#ffffff" fill-opacity="1"><g transform="translate(36.429206, 20.159043)"><g><path d="M 7.4375 -8.359375 C 7.050781 -8.359375 6.6875 -8.296875 6.34375 -8.171875 C 6.007812 -8.054688 5.710938 -7.878906 5.453125 -7.640625 C 5.203125 -7.410156 5 -7.117188 4.84375 -6.765625 C 4.695312 -6.421875 4.625 -6.015625 4.625 -5.546875 C 4.625 -4.597656 4.894531 -3.890625 5.4375 -3.421875 C 5.976562 -2.953125 6.632812 -2.71875 7.40625 -2.71875 C 7.863281 -2.71875 8.257812 -2.769531 8.59375 -2.875 C 8.925781 -2.976562 9.222656 -3.09375 9.484375 -3.21875 C 9.785156 -3 10.007812 -2.765625 10.15625 -2.515625 C 10.3125 -2.265625 10.390625 -1.96875 10.390625 -1.625 C 10.390625 -1 10.09375 -0.515625 9.5 -0.171875 C 8.914062 0.171875 8.097656 0.34375 7.046875 0.34375 C 6.085938 0.34375 5.21875 0.203125 4.4375 -0.078125 C 3.664062 -0.359375 3.003906 -0.753906 2.453125 -1.265625 C 1.898438 -1.773438 1.46875 -2.382812 1.15625 -3.09375 C 0.851562 -3.8125 0.703125 -4.601562 0.703125 -5.46875 C 0.703125 -6.46875 0.863281 -7.34375 1.1875 -8.09375 C 1.519531 -8.851562 1.96875 -9.472656 2.53125 -9.953125 C 3.09375 -10.441406 3.738281 -10.804688 4.46875 -11.046875 C 5.207031 -11.296875 5.988281 -11.421875 6.8125 -11.421875 C 7.90625 -11.421875 8.75 -11.222656 9.34375 -10.828125 C 9.9375 -10.429688 10.234375 -9.921875 10.234375 -9.296875 C 10.234375 -9.015625 10.164062 -8.742188 10.03125 -8.484375 C 9.894531 -8.234375 9.734375 -8.019531 9.546875 -7.84375 C 9.296875 -7.96875 8.984375 -8.082031 8.609375 -8.1875 C 8.242188 -8.300781 7.851562 -8.359375 7.4375 -8.359375 Z M 7.4375 -8.359375 "/></g></g></g><g fill="#ffffff" fill-opacity="1"><g transform="translate(47.577804, 20.159043)"><g><path d="M 7.4375 -8.359375 C 7.050781 -8.359375 6.6875 -8.296875 6.34375 -8.171875 C 6.007812 -8.054688 5.710938 -7.878906 5.453125 -7.640625 C 5.203125 -7.410156 5 -7.117188 4.84375 -6.765625 C 4.695312 -6.421875 4.625 -6.015625 4.625 -5.546875 C 4.625 -4.597656 4.894531 -3.890625 5.4375 -3.421875 C 5.976562 -2.953125 6.632812 -2.71875 7.40625 -2.71875 C 7.863281 -2.71875 8.257812 -2.769531 8.59375 -2.875 C 8.925781 -2.976562 9.222656 -3.09375 9.484375 -3.21875 C 9.785156 -3 10.007812 -2.765625 10.15625 -2.515625 C 10.3125 -2.265625 10.390625 -1.96875 10.390625 -1.625 C 10.390625 -1 10.09375 -0.515625 9.5 -0.171875 C 8.914062 0.171875 8.097656 0.34375 7.046875 0.34375 C 6.085938 0.34375 5.21875 0.203125 4.4375 -0.078125 C 3.664062 -0.359375 3.003906 -0.753906 2.453125 -1.265625 C 1.898438 -1.773438 1.46875 -2.382812 1.15625 -3.09375 C 0.851562 -3.8125 0.703125 -4.601562 0.703125 -5.46875 C 0.703125 -6.46875 0.863281 -7.34375 1.1875 -8.09375 C 1.519531 -8.851562 1.96875 -9.472656 2.53125 -9.953125 C 3.09375 -10.441406 3.738281 -10.804688 4.46875 -11.046875 C 5.207031 -11.296875 5.988281 -11.421875 6.8125 -11.421875 C 7.90625 -11.421875 8.75 -11.222656 9.34375 -10.828125 C 9.9375 -10.429688 10.234375 -9.921875 10.234375 -9.296875 C 10.234375 -9.015625 10.164062 -8.742188 10.03125 -8.484375 C 9.894531 -8.234375 9.734375 -8.019531 9.546875 -7.84375 C 9.296875 -7.96875 8.984375 -8.082031 8.609375 -8.1875 C 8.242188 -8.300781 7.851562 -8.359375 7.4375 -8.359375 Z M 7.4375 -8.359375 "/></g></g></g><g fill="#ffffff" fill-opacity="1"><g transform="translate(58.726402, 20.159043)"><g><path d="M 2.921875 -2.828125 C 2.753906 -3.203125 2.570312 -3.625 2.375 -4.09375 C 2.1875 -4.570312 1.988281 -5.113281 1.78125 -5.71875 C 1.582031 -6.332031 1.375 -7.03125 1.15625 -7.8125 C 0.9375 -8.59375 0.703125 -9.492188 0.453125 -10.515625 C 0.671875 -10.722656 0.957031 -10.90625 1.3125 -11.0625 C 1.664062 -11.226562 2.054688 -11.3125 2.484375 -11.3125 C 3.015625 -11.3125 3.453125 -11.195312 3.796875 -10.96875 C 4.148438 -10.75 4.410156 -10.335938 4.578125 -9.734375 L 6.390625 -3.46875 L 6.46875 -3.46875 C 6.65625 -3.976562 6.832031 -4.535156 7 -5.140625 C 7.175781 -5.753906 7.347656 -6.382812 7.515625 -7.03125 C 7.691406 -7.675781 7.847656 -8.320312 7.984375 -8.96875 C 8.128906 -9.613281 8.253906 -10.25 8.359375 -10.875 C 8.910156 -11.164062 9.515625 -11.3125 10.171875 -11.3125 C 10.703125 -11.3125 11.140625 -11.195312 11.484375 -10.96875 C 11.835938 -10.738281 12.015625 -10.34375 12.015625 -9.78125 C 12.015625 -9.375 11.957031 -8.898438 11.84375 -8.359375 C 11.738281 -7.816406 11.597656 -7.238281 11.421875 -6.625 C 11.253906 -6.019531 11.050781 -5.394531 10.8125 -4.75 C 10.582031 -4.101562 10.335938 -3.46875 10.078125 -2.84375 C 9.816406 -2.226562 9.550781 -1.640625 9.28125 -1.078125 C 9.007812 -0.523438 8.742188 -0.03125 8.484375 0.40625 C 8.054688 1.15625 7.660156 1.765625 7.296875 2.234375 C 6.929688 2.703125 6.582031 3.066406 6.25 3.328125 C 5.914062 3.597656 5.578125 3.78125 5.234375 3.875 C 4.898438 3.976562 4.550781 4.03125 4.1875 4.03125 C 3.550781 4.03125 3.035156 3.835938 2.640625 3.453125 C 2.242188 3.078125 2.007812 2.585938 1.9375 1.984375 C 2.425781 1.597656 2.910156 1.171875 3.390625 0.703125 C 3.878906 0.242188 4.320312 -0.222656 4.71875 -0.703125 C 4.457031 -0.785156 4.175781 -0.96875 3.875 -1.25 C 3.582031 -1.53125 3.265625 -2.054688 2.921875 -2.828125 Z M 2.921875 -2.828125 "/></g></g></g></svg>