<svg xmlns="http://www.w3.org/2000/svg" xmlns:xlink="http://www.w3.org/1999/xlink" width="200" zoomAndPan="magnify" viewBox="0 0 150 67.499998" height="90" preserveAspectRatio="xMidYMid meet" version="1.0"><defs><g/></defs><g fill="#162a94" fill-opacity="1"><g transform="translate(0.559862, 47.192898)"><g><path d="M 1.703125 -13.390625 C 1.703125 -15.816406 2.066406 -17.921875 2.796875 -19.703125 C 3.535156 -21.484375 4.554688 -22.960938 5.859375 -24.140625 C 7.171875 -25.316406 8.695312 -26.191406 10.4375 -26.765625 C 12.1875 -27.335938 14.070312 -27.625 16.09375 -27.625 C 16.832031 -27.625 17.550781 -27.554688 18.25 -27.421875 C 18.945312 -27.296875 19.515625 -27.140625 19.953125 -26.953125 L 19.953125 -35.890625 C 20.316406 -35.992188 20.90625 -36.109375 21.71875 -36.234375 C 22.53125 -36.367188 23.359375 -36.4375 24.203125 -36.4375 C 25.003906 -36.4375 25.726562 -36.378906 26.375 -36.265625 C 27.019531 -36.160156 27.5625 -35.941406 28 -35.609375 C 28.445312 -35.273438 28.78125 -34.820312 29 -34.25 C 29.21875 -33.6875 29.328125 -32.945312 29.328125 -32.03125 L 29.328125 -5.890625 C 29.328125 -4.171875 28.519531 -2.796875 26.90625 -1.765625 C 25.832031 -1.066406 24.453125 -0.453125 22.765625 0.078125 C 21.078125 0.609375 19.128906 0.875 16.921875 0.875 C 14.535156 0.875 12.394531 0.546875 10.5 -0.109375 C 8.601562 -0.773438 7.003906 -1.726562 5.703125 -2.96875 C 4.398438 -4.21875 3.40625 -5.71875 2.71875 -7.46875 C 2.039062 -9.21875 1.703125 -11.191406 1.703125 -13.390625 Z M 17.359375 -20.28125 C 15.378906 -20.28125 13.851562 -19.710938 12.78125 -18.578125 C 11.71875 -17.441406 11.1875 -15.710938 11.1875 -13.390625 C 11.1875 -11.117188 11.679688 -9.398438 12.671875 -8.234375 C 13.671875 -7.078125 15.109375 -6.5 16.984375 -6.5 C 17.640625 -6.5 18.234375 -6.597656 18.765625 -6.796875 C 19.296875 -7.003906 19.710938 -7.238281 20.015625 -7.5 L 20.015625 -19.625 C 19.273438 -20.0625 18.390625 -20.28125 17.359375 -20.28125 Z M 17.359375 -20.28125 "/></g></g></g><g fill="#162a94" fill-opacity="1"><g transform="translate(32.858227, 47.192898)"><g><path d="M 30.59375 -13.390625 C 30.59375 -11.117188 30.242188 -9.085938 29.546875 -7.296875 C 28.847656 -5.515625 27.863281 -4.019531 26.59375 -2.8125 C 25.332031 -1.601562 23.816406 -0.6875 22.046875 -0.0625 C 20.285156 0.5625 18.320312 0.875 16.15625 0.875 C 13.988281 0.875 12.019531 0.546875 10.25 -0.109375 C 8.488281 -0.773438 6.972656 -1.722656 5.703125 -2.953125 C 4.429688 -4.179688 3.445312 -5.675781 2.75 -7.4375 C 2.050781 -9.207031 1.703125 -11.191406 1.703125 -13.390625 C 1.703125 -15.554688 2.050781 -17.519531 2.75 -19.28125 C 3.445312 -21.050781 4.429688 -22.550781 5.703125 -23.78125 C 6.972656 -25.019531 8.488281 -25.96875 10.25 -26.625 C 12.019531 -27.289062 13.988281 -27.625 16.15625 -27.625 C 18.320312 -27.625 20.285156 -27.28125 22.046875 -26.59375 C 23.816406 -25.914062 25.332031 -24.960938 26.59375 -23.734375 C 27.863281 -22.503906 28.847656 -21.003906 29.546875 -19.234375 C 30.242188 -17.472656 30.59375 -15.523438 30.59375 -13.390625 Z M 11.296875 -13.390625 C 11.296875 -11.148438 11.726562 -9.429688 12.59375 -8.234375 C 13.457031 -7.046875 14.660156 -6.453125 16.203125 -6.453125 C 17.742188 -6.453125 18.925781 -7.054688 19.75 -8.265625 C 20.582031 -9.484375 21 -11.191406 21 -13.390625 C 21 -15.597656 20.578125 -17.296875 19.734375 -18.484375 C 18.890625 -19.679688 17.695312 -20.28125 16.15625 -20.28125 C 14.613281 -20.28125 13.414062 -19.679688 12.5625 -18.484375 C 11.71875 -17.296875 11.296875 -15.597656 11.296875 -13.390625 Z M 11.296875 -13.390625 "/></g></g></g><g fill="#162a94" fill-opacity="1"><g transform="translate(65.156592, 47.192898)"><g><path d="M 17.96875 -20.234375 C 17.050781 -20.234375 16.175781 -20.082031 15.34375 -19.78125 C 14.519531 -19.488281 13.804688 -19.054688 13.203125 -18.484375 C 12.597656 -17.921875 12.109375 -17.21875 11.734375 -16.375 C 11.367188 -15.53125 11.1875 -14.535156 11.1875 -13.390625 C 11.1875 -11.117188 11.835938 -9.410156 13.140625 -8.265625 C 14.453125 -7.128906 16.046875 -6.5625 17.921875 -6.5625 C 19.015625 -6.5625 19.96875 -6.6875 20.78125 -6.9375 C 21.59375 -7.195312 22.3125 -7.472656 22.9375 -7.765625 C 23.664062 -7.253906 24.210938 -6.695312 24.578125 -6.09375 C 24.953125 -5.488281 25.140625 -4.757812 25.140625 -3.90625 C 25.140625 -2.40625 24.421875 -1.238281 22.984375 -0.40625 C 21.554688 0.414062 19.570312 0.828125 17.03125 0.828125 C 14.71875 0.828125 12.625 0.488281 10.75 -0.1875 C 8.875 -0.875 7.265625 -1.832031 5.921875 -3.0625 C 4.578125 -4.289062 3.535156 -5.769531 2.796875 -7.5 C 2.066406 -9.226562 1.703125 -11.140625 1.703125 -13.234375 C 1.703125 -15.660156 2.097656 -17.78125 2.890625 -19.59375 C 3.679688 -21.414062 4.753906 -22.914062 6.109375 -24.09375 C 7.472656 -25.269531 9.046875 -26.148438 10.828125 -26.734375 C 12.609375 -27.328125 14.492188 -27.625 16.484375 -27.625 C 19.128906 -27.625 21.164062 -27.144531 22.59375 -26.1875 C 24.03125 -25.226562 24.75 -23.992188 24.75 -22.484375 C 24.75 -21.785156 24.582031 -21.132812 24.25 -20.53125 C 23.925781 -19.925781 23.539062 -19.40625 23.09375 -18.96875 C 22.46875 -19.257812 21.710938 -19.539062 20.828125 -19.8125 C 19.953125 -20.09375 19 -20.234375 17.96875 -20.234375 Z M 17.96875 -20.234375 "/></g></g></g><g fill="#162a94" fill-opacity="1"><g transform="translate(92.108638, 47.192898)"><g><path d="M 17.96875 -20.234375 C 17.050781 -20.234375 16.175781 -20.082031 15.34375 -19.78125 C 14.519531 -19.488281 13.804688 -19.054688 13.203125 -18.484375 C 12.597656 -17.921875 12.109375 -17.21875 11.734375 -16.375 C 11.367188 -15.53125 11.1875 -14.535156 11.1875 -13.390625 C 11.1875 -11.117188 11.835938 -9.410156 13.140625 -8.265625 C 14.453125 -7.128906 16.046875 -6.5625 17.921875 -6.5625 C 19.015625 -6.5625 19.96875 -6.6875 20.78125 -6.9375 C 21.59375 -7.195312 22.3125 -7.472656 22.9375 -7.765625 C 23.664062 -7.253906 24.210938 -6.695312 24.578125 -6.09375 C 24.953125 -5.488281 25.140625 -4.757812 25.140625 -3.90625 C 25.140625 -2.40625 24.421875 -1.238281 22.984375 -0.40625 C 21.554688 0.414062 19.570312 0.828125 17.03125 0.828125 C 14.71875 0.828125 12.625 0.488281 10.75 -0.1875 C 8.875 -0.875 7.265625 -1.832031 5.921875 -3.0625 C 4.578125 -4.289062 3.535156 -5.769531 2.796875 -7.5 C 2.066406 -9.226562 1.703125 -11.140625 1.703125 -13.234375 C 1.703125 -15.660156 2.097656 -17.78125 2.890625 -19.59375 C 3.679688 -21.414062 4.753906 -22.914062 6.109375 -24.09375 C 7.472656 -25.269531 9.046875 -26.148438 10.828125 -26.734375 C 12.609375 -27.328125 14.492188 -27.625 16.484375 -27.625 C 19.128906 -27.625 21.164062 -27.144531 22.59375 -26.1875 C 24.03125 -25.226562 24.75 -23.992188 24.75 -22.484375 C 24.75 -21.785156 24.582031 -21.132812 24.25 -20.53125 C 23.925781 -19.925781 23.539062 -19.40625 23.09375 -18.96875 C 22.46875 -19.257812 21.710938 -19.539062 20.828125 -19.8125 C 19.953125 -20.09375 19 -20.234375 17.96875 -20.234375 Z M 17.96875 -20.234375 "/></g></g></g><g fill="#162a94" fill-opacity="1"><g transform="translate(119.060684, 47.192898)"><g><path d="M 7.0625 -6.828125 C 6.65625 -7.753906 6.222656 -8.785156 5.765625 -9.921875 C 5.304688 -11.054688 4.828125 -12.359375 4.328125 -13.828125 C 3.828125 -15.304688 3.3125 -16.988281 2.78125 -18.875 C 2.25 -20.769531 1.691406 -22.945312 1.109375 -25.40625 C 1.617188 -25.925781 2.304688 -26.378906 3.171875 -26.765625 C 4.035156 -27.148438 4.984375 -27.34375 6.015625 -27.34375 C 7.296875 -27.34375 8.359375 -27.078125 9.203125 -26.546875 C 10.046875 -26.015625 10.671875 -25.007812 11.078125 -23.53125 L 15.4375 -8.375 L 15.65625 -8.375 C 16.09375 -9.625 16.519531 -10.984375 16.9375 -12.453125 C 17.363281 -13.921875 17.78125 -15.4375 18.1875 -17 C 18.59375 -18.5625 18.96875 -20.125 19.3125 -21.6875 C 19.664062 -23.25 19.972656 -24.785156 20.234375 -26.296875 C 21.554688 -26.992188 23.003906 -27.34375 24.578125 -27.34375 C 25.867188 -27.34375 26.9375 -27.066406 27.78125 -26.515625 C 28.625 -25.960938 29.046875 -25.007812 29.046875 -23.65625 C 29.046875 -22.65625 28.914062 -21.503906 28.65625 -20.203125 C 28.40625 -18.898438 28.066406 -17.515625 27.640625 -16.046875 C 27.222656 -14.578125 26.726562 -13.0625 26.15625 -11.5 C 25.582031 -9.9375 24.984375 -8.398438 24.359375 -6.890625 C 23.734375 -5.378906 23.085938 -3.953125 22.421875 -2.609375 C 21.765625 -1.273438 21.125 -0.0703125 20.5 1 C 19.476562 2.789062 18.523438 4.253906 17.640625 5.390625 C 16.753906 6.535156 15.90625 7.429688 15.09375 8.078125 C 14.289062 8.722656 13.484375 9.160156 12.671875 9.390625 C 11.867188 9.628906 11.023438 9.75 10.140625 9.75 C 8.597656 9.75 7.347656 9.289062 6.390625 8.375 C 5.441406 7.457031 4.875 6.265625 4.6875 4.796875 C 5.863281 3.878906 7.039062 2.859375 8.21875 1.734375 C 9.394531 0.617188 10.457031 -0.523438 11.40625 -1.703125 C 10.78125 -1.890625 10.109375 -2.320312 9.390625 -3 C 8.679688 -3.6875 7.90625 -4.960938 7.0625 -6.828125 Z M 7.0625 -6.828125 "/></g></g></g></svg>