<svg width="40" height="44" viewBox="0 0 40 44" fill="none" xmlns="http://www.w3.org/2000/svg">
<path d="M1 8.5V36C1 39.0078 3.40625 41.5 6.5 41.5H34C37.0078 41.5 39.5 39.0078 39.5 36V8.5C39.5 5.40625 37.0078 3 34 3H6.5C3.40625 3 1 5.49219 1 8.5ZM34 5.75C35.4609 5.75 36.75 7.03906 36.75 8.5V36C36.75 37.5469 35.4609 38.75 34 38.75H6.5C4.95312 38.75 3.75 37.5469 3.75 36V8.5C3.75 7.03906 4.95312 5.75 6.5 5.75H34ZM13.375 31.875V20.875C13.375 20.1875 12.6875 19.5 12 19.5C11.2266 19.5 10.625 20.1875 10.625 20.875V31.875C10.625 32.6484 11.2266 33.25 12 33.25C12.6875 33.25 13.375 32.6484 13.375 31.875ZM18.875 12.625V31.875C18.875 32.6484 19.4766 33.25 20.25 33.25C20.9375 33.25 21.625 32.6484 21.625 31.875V12.625C21.625 11.9375 20.9375 11.25 20.25 11.25C19.4766 11.25 18.875 11.9375 18.875 12.625ZM27.125 26.375V31.875C27.125 32.6484 27.7266 33.25 28.5 33.25C29.1875 33.25 29.875 32.6484 29.875 31.875V26.375C29.875 25.6875 29.1875 25 28.5 25C27.7266 25 27.125 25.6875 27.125 26.375Z" fill="#794BFB"/>
</svg>
