<svg width="55" height="44" viewBox="0 0 55 44" fill="none" xmlns="http://www.w3.org/2000/svg">
<path d="M11.7734 12.25H12.375L12.8047 11.8203C15.2969 9.24219 18.6484 7.4375 22.1719 6.92188C22.9453 6.83594 23.4609 6.14844 23.2891 5.375C23.2031 4.6875 22.5156 4.08594 21.7422 4.25781C17.7891 4.77344 14.0938 6.66406 11.1719 9.5H1.375C0.601562 9.5 0 10.1875 0 10.875C0 11.6484 0.601562 12.25 1.375 12.25H11.7734ZM18.9922 12.7656C17.1875 14.5703 17.1016 17.3203 18.8203 19.2109C19.4219 19.8984 20.625 20.6719 22.0859 20.7578C22.1719 20.7578 22.2578 20.7578 22.3438 20.7578C23.4609 20.7578 24.4922 20.3281 25.3516 19.5547L31.8828 13.4531C32.4844 12.9375 32.4844 12.0781 31.9688 11.4766C31.4531 10.9609 30.5938 10.875 30.0781 11.3906C25.9531 15.1719 24.2344 16.8047 23.5469 17.5781L23.4609 17.4922C23.1172 17.8359 22.6875 18.0078 22.2578 18.0078C21.5703 18.0078 21.0547 17.5781 20.8828 17.4062C20.1953 16.7188 20.1094 15.4297 20.9688 14.6562L28.9609 7.09375C29.2188 6.92188 29.4766 6.75 29.8203 6.75H30.5078C34.7188 6.75 39.0156 8.64062 42.1094 11.9062L42.5391 12.25H53.625C54.3125 12.25 55 11.6484 55 10.875C55 10.1875 54.3125 9.5 53.625 9.5H43.7422C40.0469 6.0625 35.3203 4 30.5078 4H29.8203C28.7891 4 27.8438 4.42969 27.0703 5.11719L18.9922 12.6797V12.7656ZM53.625 28.75H42.8828C42.625 28.1484 42.2812 27.5469 41.6797 27.0312L32.3984 19.4688C31.7969 19.0391 30.9375 19.125 30.4219 19.6406C29.9922 20.2422 30.0781 21.1016 30.6797 21.6172L39.9609 29.1797C40.4766 29.6094 40.5625 30.3828 40.1328 30.8984L39.3594 31.8438C38.9297 32.4453 38.1562 32.5312 37.6406 32.1016L36.1797 30.8125L32.7422 35.0234C32.1406 35.7969 31.0234 35.8828 30.4219 35.3672L28.9609 34.0781L27.8438 33.3047L26.8984 34.25C26.2969 35.0234 25.3516 35.5391 24.3203 35.625C23.2891 35.7109 22.3438 35.4531 21.4844 34.7656L13.75 28.75H2.75C1.97656 28.75 1.375 29.4375 1.375 30.125C1.375 30.8984 1.97656 31.5 2.75 31.5H12.8047L19.7656 36.9141C20.9688 37.8594 22.4297 38.375 23.9766 38.375C24.1484 38.375 24.4062 38.375 24.6641 38.375C25.9531 38.2891 27.1562 37.7734 28.1016 37L28.6172 37.4297C30.5078 38.9766 33.2578 38.6328 34.8047 36.8281L36.6094 34.6797C38.2422 35.4531 40.3047 35.1094 41.5078 33.6484L42.2812 32.6172C42.5391 32.2734 42.7109 31.9297 42.8828 31.5H53.625C54.3125 31.5 55 30.8984 55 30.125C55 29.4375 54.3125 28.75 53.625 28.75Z" fill="#794BFB"/>
</svg>
