<svg width="230" height="54" viewBox="0 0 230 54" fill="none" xmlns="http://www.w3.org/2000/svg">
<g id="VMC_LOGO_ARM_HORISONTAL_FULL_COLOR 1" clip-path="url(#clip0_4378_29277)">
<g id="Group">
<path id="Vector" d="M26.1187 0.028923C21.9521 0.226936 18.2769 1.19638 14.6802 3.04863C10.3732 5.26391 6.67734 8.65902 4.12122 12.7472C2.13084 15.9278 0.838326 19.4384 0.313889 23.1016C0.132195 24.3557 0.078512 25.0529 0.0537354 26.505C0.0289588 27.9942 0.0661237 28.7945 0.210654 30.094C1.02415 37.3669 4.88929 44.0664 10.8398 48.534C12.8756 50.0604 15.2913 51.3805 17.7236 52.2839C20.2384 53.2204 22.8771 53.7649 25.7429 53.9382L26.1971 53.967L26.0031 53.7567C25.6355 53.3441 25.5488 52.8202 25.7759 52.3664L25.8792 52.1643L25.5901 52.0447C25.1896 51.8796 24.6114 51.4836 24.2646 51.133C23.5832 50.4482 23.1992 49.6272 23.0794 48.6248C22.9762 47.7461 23.2363 46.723 23.7649 45.9351L23.9053 45.7288L23.4469 45.6381C22.2824 45.4112 21.3781 44.9327 20.5811 44.12C19.8667 43.3939 19.3753 42.4492 19.173 41.4179C19.0821 40.9476 19.0863 40.0277 19.1771 39.5822C19.396 38.5508 19.8874 37.6144 20.5687 36.9214L20.7917 36.6945L20.2673 36.5625C19.4166 36.3479 18.5949 35.9849 17.8805 35.5064C15.0848 33.6376 13.7965 30.3168 14.6182 27.1032C15.3078 24.4011 17.5377 22.1982 20.2962 21.4969C21.0932 21.2948 22.6169 21.1504 22.9844 21.2411C23.7938 21.4474 24.3182 22.2023 24.1944 22.9903C24.1366 23.3409 24.0085 23.5843 23.7236 23.869C23.3478 24.2485 22.8606 24.4011 22.3568 24.298C21.8901 24.2031 21.5639 23.9762 21.2996 23.5678L21.1221 23.2997L20.7504 23.3244C20.2549 23.3574 20.0278 23.4234 19.5488 23.6751C17.9754 24.5001 16.7697 26.0058 16.3774 27.6395C15.9273 29.4958 16.3774 31.3646 17.6368 32.8662C18.5701 33.9759 19.9204 34.7597 21.4937 35.1104C21.886 35.197 22.014 35.2052 24.087 35.2176L26.2632 35.2341V27.0248V18.8114H24.5206C22.778 18.8114 22.7738 18.8114 22.5674 18.7123C22.1503 18.5185 21.9108 18.0647 22.0099 17.6521C22.076 17.3758 22.2742 17.1282 22.5261 17.0004L22.7284 16.8931L24.4958 16.8807L26.2632 16.8683V15.5317V14.1952L22.1049 14.1828C17.4015 14.1704 17.7483 14.1952 17.4345 13.8363C17.162 13.531 17.1083 13.1638 17.2776 12.8091C17.3932 12.5615 17.5088 12.4502 17.7566 12.3388C17.9383 12.2563 18.0044 12.2521 22.1049 12.2521H26.2632V10.8908V9.52946H19.7717H13.2762L13.0697 9.43045C12.7063 9.26544 12.5122 8.96017 12.5122 8.55589C12.5122 8.13511 12.7889 7.77208 13.206 7.64833C13.3587 7.59882 14.4943 7.59057 19.8296 7.59057H26.2632V5.75895V3.92732L26.0856 3.82006C25.8255 3.67155 25.4415 3.2384 25.3052 2.94138C25.2391 2.80111 25.1524 2.53709 25.1194 2.35146C25.0574 2.05031 25.0574 1.99256 25.1194 1.69141C25.2143 1.19638 25.3878 0.866356 25.7181 0.536331C25.875 0.37957 26.1022 0.202183 26.2426 0.132053C26.3788 0.061924 26.4614 0.00829697 26.4284 0.00829697C26.3953 0.0124207 26.2549 0.0206718 26.1187 0.028923Z" fill="#DE5D5D"/>
<path id="Vector_2" d="M28.1215 0.0660477C28.3651 0.169182 28.7615 0.482704 28.9391 0.709595C29.4677 1.39439 29.542 2.27308 29.1414 3.028C28.9969 3.3044 28.5922 3.72931 28.3568 3.85719L28.2041 3.93969V5.76307V7.59057H34.6377C41.7362 7.59057 41.3398 7.5782 41.6495 7.84634C42.0707 8.21349 42.0996 8.77866 41.7197 9.19943C41.3976 9.55833 42.0005 9.52946 34.679 9.52946H28.2041V10.8908V12.2521H32.3459C35.2447 12.2521 36.5331 12.2645 36.6487 12.2975C36.752 12.3264 36.8882 12.4172 37.0039 12.5368C37.52 13.0525 37.3507 13.8115 36.6487 14.1168C36.5496 14.158 35.6783 14.1745 32.3665 14.1828L28.2041 14.1952V15.5317V16.8683L29.9921 16.8807C31.743 16.8931 31.7801 16.8931 31.9453 16.9838C32.3128 17.1819 32.5358 17.5861 32.4863 17.9657C32.4532 18.2049 32.3706 18.3576 32.1848 18.5391C31.9123 18.8031 31.8545 18.8114 29.9302 18.8114H28.2041V27.0248V35.2341L30.5083 35.2176C32.6721 35.2011 32.8331 35.197 33.2213 35.1145C36.4629 34.4173 38.6887 31.7276 38.5111 28.7327C38.3955 26.8185 37.4085 25.1354 35.7361 24.0092C34.9763 23.5018 34.4643 23.312 33.8407 23.312C33.6012 23.3079 33.5641 23.3285 33.4773 23.4936C33.275 23.8937 32.734 24.2609 32.2674 24.3227C31.6273 24.4011 30.9666 24.034 30.6735 23.4399C30.5496 23.1883 30.5372 23.1347 30.5372 22.7716C30.5372 22.4251 30.5496 22.3508 30.6569 22.124C30.8593 21.6784 31.3631 21.2906 31.8214 21.2205C32.032 21.1916 33.2089 21.27 33.7168 21.3484C34.935 21.5423 36.1862 22.0662 37.1856 22.8005C37.6604 23.1553 38.4739 23.968 38.8291 24.4424C39.593 25.4737 40.0968 26.7154 40.2868 28.0107C40.3817 28.6667 40.3487 29.83 40.2207 30.4653C39.6013 33.551 37.2434 35.9519 34.1628 36.6367L33.7457 36.7316L33.9935 36.9997C34.5097 37.5649 34.8772 38.1796 35.1167 38.9015C35.6288 40.4279 35.4016 42.0491 34.4808 43.4228C34.2 43.8395 33.5186 44.5201 33.1016 44.8007C32.4408 45.2421 31.6273 45.5597 30.8964 45.667L30.5661 45.7165L30.7024 45.9104C31.4828 47.0036 31.6356 48.5464 31.0947 49.8459C30.8428 50.4564 30.3307 51.1082 29.7774 51.529C29.5502 51.6981 28.8648 52.0818 28.6665 52.1478C28.6253 52.1602 28.6418 52.2303 28.7244 52.4077C28.8193 52.6181 28.8317 52.6841 28.8152 52.9646C28.7946 53.3317 28.7078 53.5256 28.4518 53.7897L28.2784 53.967L28.7285 53.9382C33.2337 53.6618 37.2888 52.4489 41.0466 50.2543C44.1725 48.4309 46.9434 45.9599 49.0907 43.0887C53.4225 37.305 55.2229 30.1353 54.1534 22.9573C52.9765 15.0532 48.1905 7.96597 41.2448 3.84481C37.3094 1.5099 33.0355 0.239311 28.3734 0.028923C28.01 0.0124207 27.9935 0.0124207 28.1215 0.0660477Z" fill="#DE5D5D"/>
<path id="Vector_3" d="M220.986 12.8585C219.504 12.9782 218.467 13.3123 217.633 13.9393C216.75 14.6035 216.254 15.573 216.13 16.8889C216.027 18.0069 216.316 18.8938 217.039 19.6859L217.291 19.9581L216.948 20.0695C216.386 20.2552 215.746 20.6058 215.3 20.973C215.214 21.0431 215.143 21.1132 215.143 21.1297C215.143 21.1503 216.411 22.3095 217.402 23.1924C217.489 23.2749 217.489 23.2749 217.794 23.0438C218.401 22.5777 219.161 22.2642 220.057 22.1074C220.677 21.996 221.924 21.9589 222.601 22.029C224.282 22.2023 225.165 22.8293 225.248 23.906C225.314 24.7435 224.864 25.4448 224.001 25.849C223.336 26.1626 222.646 26.2904 221.627 26.2863C220.512 26.2863 219.723 26.1254 218.905 25.7377C218.29 25.4448 217.807 25.0652 217.427 24.5743L217.336 24.4547L215.87 25.42C214.854 26.0842 214.408 26.3977 214.421 26.439C214.491 26.6246 214.883 27.1361 215.226 27.4785C216.246 28.5057 217.609 29.075 219.706 29.3597C220.479 29.4628 222.75 29.4628 223.485 29.3597C226.433 28.9389 228.238 27.7879 228.915 25.8944C229.138 25.2756 229.2 24.8714 229.2 24.071C229.2 22.9778 229.022 22.2848 228.564 21.5876C228.093 20.8739 227.325 20.3129 226.404 20.0076L226.128 19.9169L226.342 19.6859C226.78 19.2073 227.048 18.7082 227.189 18.1141C227.288 17.6851 227.243 16.6084 227.102 16.068C226.925 15.3832 226.631 14.8387 226.185 14.3601C225.409 13.5227 224.166 13.0112 222.556 12.875C222.093 12.8338 221.37 12.8255 220.986 12.8585ZM222.37 15.4121C223.274 15.6761 223.774 16.3939 223.774 17.4252C223.77 18.44 223.303 19.0836 222.386 19.327C222.052 19.4177 221.313 19.4177 220.966 19.327C220.045 19.0877 219.603 18.4689 219.603 17.417C219.607 16.299 220.181 15.5565 221.189 15.3626C221.536 15.2966 222.052 15.3172 222.37 15.4121Z" fill="#002F5F"/>
<path id="Vector_4" d="M112.073 12.9163C111.115 13.0153 110.004 13.3123 109.232 13.6753C108.014 14.2529 107.01 15.2347 106.457 16.398C106.254 16.827 106.027 17.5572 105.912 18.1513C105.821 18.6215 105.821 18.6752 105.808 23.9184L105.792 29.207L107.745 29.1988L109.698 29.1864L109.719 24.0504C109.74 19.4054 109.752 18.8856 109.814 18.6257C110.008 17.8254 110.239 17.3798 110.685 16.9343C111.226 16.398 111.837 16.1381 112.8 16.0474C113.65 15.9649 114.431 16.0845 115.067 16.3939C115.513 16.6125 115.872 16.9261 116.136 17.3221C116.611 18.0358 116.805 18.8196 116.85 20.2015L116.875 20.9977H118.771H120.662V20.3872C120.662 18.11 120.137 16.4475 119.01 15.1192C117.998 13.9311 116.392 13.1555 114.476 12.9328C113.91 12.8668 112.659 12.8585 112.073 12.9163Z" fill="#002F5F"/>
<path id="Vector_5" d="M128.425 12.8956C126.365 13.1432 125.06 13.7125 123.924 14.8469C123.214 15.5565 122.756 16.3114 122.438 17.285C122.14 18.1884 122.025 18.9681 122.012 20.1727L122.004 20.9771L123.895 20.9895L125.782 20.9977V20.6594C125.787 17.9698 126.538 16.596 128.256 16.1464C128.88 15.9855 129.891 15.9896 130.568 16.1546C130.94 16.2454 131.539 16.5342 131.803 16.7528C132.464 17.2932 132.84 18.176 132.926 19.3847C132.951 19.7024 132.968 21.9672 132.968 24.5743V29.207H134.908H136.849L136.858 26.8226L136.87 24.4423L138.493 24.4299L140.112 24.4217V22.8953V21.369L138.493 21.3607L136.87 21.3484L136.845 19.9664C136.816 18.3864 136.763 17.9615 136.482 17.1158C135.705 14.8057 133.893 13.4237 131.027 12.974C130.61 12.908 128.78 12.8544 128.425 12.8956Z" fill="#002F5F"/>
<path id="Vector_6" d="M77.7984 17.0622V21.0018L77.4805 21.3195C76.8404 21.9548 75.8865 22.3013 74.5362 22.3838C74.0324 22.4127 73.2602 22.3467 72.8059 22.2312C71.8025 21.9795 71.1253 21.3319 70.8651 20.3789C70.7288 19.888 70.6958 19.4136 70.6958 18.0564V16.7899H68.8334H66.9711L66.9917 18.7164C67.0124 20.7543 67.033 21.0225 67.2354 21.7403C67.735 23.543 69.1349 24.7682 71.2533 25.2591C72.0503 25.4448 72.5251 25.4984 73.5658 25.5232C74.4577 25.5438 74.6105 25.5355 75.0854 25.4571C75.9567 25.3086 76.8528 24.9827 77.53 24.5743L77.7778 24.4217L77.7984 26.8061L77.8191 29.1864L81.5273 29.1988L85.2314 29.207V27.6807V26.1543L83.4888 26.1461L81.742 26.1337L81.7296 19.624L81.7214 13.1184H79.7599H77.7984V17.0622Z" fill="#002F5F"/>
<path id="Vector_7" d="M86.718 17.9121C86.718 22.9779 86.7345 23.5678 86.9038 24.4053C87.5604 27.6477 90.1496 29.4587 94.151 29.4711C95.0595 29.4711 95.5013 29.434 96.2363 29.2855C97.1737 29.0957 98.2143 28.6626 98.8957 28.1716L99.2467 27.92L100.853 29.0008C101.737 29.5949 102.472 30.0652 102.492 30.0487C102.509 30.028 102.897 29.4917 103.355 28.8606C104.02 27.9406 104.177 27.6972 104.136 27.656C104.107 27.6312 103.384 27.1692 102.534 26.6288C101.683 26.0884 100.981 25.6428 100.973 25.6387C100.969 25.6346 101.043 25.3788 101.146 25.0777C101.336 24.496 101.472 23.8648 101.543 23.2461C101.567 23.0233 101.584 20.9318 101.584 17.9946V13.1185H99.6844H97.7849V17.9121C97.7849 21.1463 97.7684 22.8294 97.7395 23.081C97.6693 23.6586 97.5165 24.1949 97.2852 24.6652C97.1035 25.0364 97.0251 25.1478 96.736 25.4325C96.1414 26.0182 95.4848 26.2658 94.4194 26.307C93.449 26.34 92.6148 26.1544 92.0367 25.7666C91.5247 25.4283 91.0993 24.8508 90.8887 24.2031C90.6616 23.5059 90.6699 23.6957 90.6534 18.2008L90.6368 13.1185H88.6795H86.718V17.9121Z" fill="#002F5F"/>
<path id="Vector_8" d="M141.722 18.1719C141.722 21.4474 141.738 23.3698 141.767 23.6297C142.023 25.9935 143.122 27.6601 145.046 28.6089C145.889 29.0256 146.673 29.2525 147.71 29.3886C150.229 29.7145 152.463 29.236 154.094 28.019L154.222 27.9241L155.725 28.9307C156.551 29.4835 157.277 29.9703 157.339 30.0074L157.447 30.0775L157.996 29.3226C158.297 28.9059 158.69 28.3696 158.863 28.1304L159.185 27.689L157.897 26.8722C157.187 26.4225 156.456 25.9564 156.27 25.8367L155.931 25.6222L156.08 25.2179C156.249 24.7394 156.394 24.1536 156.493 23.5554C156.555 23.1677 156.563 22.5819 156.575 18.1183L156.592 13.1185H154.692H152.793L152.776 18.0358C152.76 23.3244 152.768 23.1305 152.545 23.9515C152.496 24.1289 152.368 24.4547 152.264 24.6693C152.107 24.9993 152.021 25.1189 151.719 25.4159C151.434 25.7006 151.294 25.8037 151.013 25.944C150.406 26.2369 150.125 26.2905 149.196 26.2905C148.457 26.2946 148.358 26.2823 147.99 26.1832C146.673 25.8326 145.93 24.9498 145.707 23.4729C145.657 23.147 145.645 22.2271 145.645 18.0977V13.1185H143.683H141.722V18.1719Z" fill="#002F5F"/>
<path id="Vector_9" d="M158.405 14.6241V16.1299H160.015H161.626V19.4384C161.626 21.336 161.647 22.9985 161.667 23.3285C161.931 26.8639 164.017 28.9306 167.82 29.4174C168.411 29.4958 169.922 29.4834 170.545 29.3968C173.027 29.0585 174.766 28.0891 175.691 26.5256C175.922 26.1337 176.1 25.6758 176.232 25.123C176.331 24.7146 176.339 24.6073 176.356 23.3161L176.376 21.9465H174.518H172.66L172.639 22.8623C172.618 23.873 172.581 24.0917 172.342 24.6073C172.061 25.2179 171.648 25.6304 171.02 25.9316C170.483 26.1873 170.071 26.2781 169.327 26.307C167.225 26.3812 166.032 25.5067 165.64 23.6049C165.582 23.3285 165.574 22.6561 165.561 18.2008L165.545 13.1184H161.977H158.405V14.6241Z" fill="#002F5F"/>
<path id="Vector_10" d="M178.639 18.0357C178.639 20.9399 178.656 23.1511 178.68 23.4316C178.965 26.7318 180.865 28.7409 184.272 29.3349C185.704 29.5865 187.468 29.5082 188.74 29.1451C189.537 28.9141 190.263 28.5676 190.87 28.1303L191.151 27.9282L192.766 29.0049C193.654 29.5948 194.385 30.0733 194.393 30.0651C194.397 30.0568 194.785 29.5247 195.256 28.877C195.912 27.9694 196.094 27.693 196.053 27.6559C196.028 27.6312 195.305 27.1691 194.455 26.6287C193.604 26.0924 192.898 25.6428 192.89 25.6345C192.881 25.6263 192.952 25.3911 193.047 25.1147C193.253 24.4959 193.365 24.0092 193.443 23.3161C193.493 22.883 193.505 21.9795 193.505 17.9574V13.1184H191.605H189.706V17.879C189.706 21.8764 189.698 22.7179 189.644 23.114C189.359 25.2756 188.203 26.3193 186.101 26.3193C185.32 26.3193 184.544 26.1296 184.028 25.8202C183.9 25.7418 183.656 25.5355 183.491 25.3623C183 24.8507 182.719 24.1742 182.607 23.246C182.579 23.0026 182.562 21.2081 182.562 17.9945V13.1184H180.601H178.639V18.0357Z" fill="#002F5F"/>
<path id="Vector_11" d="M195.363 14.6242V16.1299H196.974H198.584V19.6983C198.584 21.9795 198.601 23.4151 198.63 23.6709C198.853 25.6758 199.724 27.2228 201.186 28.1964C201.941 28.6996 202.858 29.0709 203.845 29.2689C204.646 29.4257 205.113 29.4711 206.058 29.4711C207.347 29.4711 208.28 29.3308 209.333 28.9843C211.538 28.2624 212.88 26.8268 213.219 24.8384C213.268 24.5372 213.285 24.1577 213.285 23.1965V21.9465H211.447H209.61V22.5323C209.61 23.5637 209.515 24.1206 209.238 24.6899C208.961 25.2674 208.429 25.7542 207.797 26.01C207.231 26.241 206.889 26.2987 206.038 26.2946C205.328 26.2905 205.216 26.2822 204.853 26.1832C203.948 25.9439 203.312 25.4489 202.945 24.7105C202.842 24.496 202.701 24.1329 202.639 23.9061L202.528 23.4935L202.515 18.3039L202.503 13.1184H198.935H195.363V14.6242Z" fill="#002F5F"/>
<path id="Vector_12" d="M75.2795 36.711C74.3338 36.8513 73.7227 37.3669 73.5245 38.2085C73.4749 38.4147 73.4625 38.8149 73.4625 40.168V41.8717H73.9333H74.4082L74.4206 40.168C74.4329 38.5344 74.4371 38.4601 74.5238 38.2497C74.6559 37.928 74.7963 37.7671 75.0606 37.6351C75.2712 37.5361 75.3455 37.5196 75.6718 37.5196C76.2334 37.5196 76.5431 37.6846 76.7495 38.0847C76.9023 38.3859 76.9312 38.72 76.9312 40.3577V41.8759L77.4185 41.8635L77.9017 41.8511V40.0979C77.9017 38.3982 77.8975 38.3364 77.8108 38.0517C77.6002 37.3834 77.146 36.9585 76.4522 36.7811C76.1467 36.7027 75.5768 36.6697 75.2795 36.711Z" fill="#002F5F"/>
<path id="Vector_13" d="M81.0194 36.7151C80.0903 36.843 79.4585 37.3834 79.2892 38.1919C79.2603 38.3322 79.2438 39.0253 79.2438 40.1391V41.8717H79.7393H80.2348V40.1886C80.2348 38.3405 80.2472 38.2456 80.4785 37.9238C80.5569 37.8165 80.6849 37.7134 80.8419 37.6392C81.0525 37.536 81.1268 37.5195 81.453 37.5195C81.899 37.5195 82.0889 37.5814 82.3243 37.7959C82.5804 38.0311 82.6795 38.2992 82.7084 38.819L82.7331 39.2521L83.2245 39.2645L83.7159 39.2769L83.6912 38.8107C83.6457 37.9609 83.3897 37.4205 82.8612 37.0616C82.4358 36.7729 81.6595 36.6285 81.0194 36.7151Z" fill="#002F5F"/>
<path id="Vector_14" d="M92.5405 36.711C91.5659 36.8512 90.9589 37.3669 90.7813 38.1961C90.74 38.4023 90.7235 38.8685 90.7235 40.168V41.8717H91.2149H91.7104L91.7228 40.1267C91.7352 38.3941 91.7352 38.3858 91.8343 38.1672C92.0408 37.7134 92.5198 37.4618 93.0979 37.5072C93.8165 37.5649 94.1757 37.9981 94.2211 38.8685L94.2459 39.2728H94.7125H95.1833V38.8891C95.1833 37.7835 94.6547 37.0204 93.7173 36.7811C93.4076 36.7027 92.8378 36.6697 92.5405 36.711Z" fill="#002F5F"/>
<path id="Vector_15" d="M104.165 36.6986C103.508 36.7894 103.066 36.9709 102.757 37.2803C102.488 37.5526 102.302 37.961 102.245 38.4065C102.22 38.6169 102.203 39.3677 102.212 40.3041L102.224 41.8511L102.707 41.8635L103.186 41.8759L103.203 40.1515C103.223 38.2374 103.227 38.2043 103.504 37.8826C103.723 37.6227 104 37.5237 104.475 37.5237C104.941 37.5237 105.172 37.6144 105.404 37.8785C105.602 38.1095 105.676 38.3611 105.701 38.852L105.726 39.2769L106.205 39.2645L106.684 39.2522L106.671 38.8396C106.659 38.3694 106.589 38.0476 106.428 37.7217C106.213 37.2844 105.738 36.9214 105.205 36.7811C104.954 36.7151 104.371 36.6697 104.165 36.6986Z" fill="#002F5F"/>
<path id="Vector_16" d="M134.021 36.7151C133.55 36.7894 133.021 37.0369 132.774 37.3009C132.6 37.4865 132.398 37.8743 132.323 38.1713C132.253 38.4354 132.245 38.6499 132.245 40.1597V41.8511L132.732 41.8635L133.215 41.8759V41.1911V40.5104H134.95H136.684V40.0979V39.6853H134.95H133.215V39.1697C133.215 38.3941 133.31 38.0517 133.608 37.7959C133.851 37.5773 134.017 37.5278 134.454 37.5237C134.797 37.5196 134.875 37.5361 135.082 37.6309C135.445 37.8001 135.693 38.2167 135.693 38.6623V38.819H136.189H136.684V38.6128C136.684 37.6969 136.081 36.9544 135.177 36.7646C134.863 36.6986 134.297 36.6739 134.021 36.7151Z" fill="#002F5F"/>
<path id="Vector_17" d="M156.319 36.711C155.386 36.8636 154.8 37.3628 154.585 38.1878C154.536 38.3776 154.523 38.753 154.523 40.1473V41.8717H154.994H155.469L155.481 40.168C155.494 38.5343 155.498 38.4601 155.584 38.2497C155.717 37.9279 155.857 37.767 156.121 37.635C156.332 37.5319 156.406 37.5195 156.732 37.5195C157.302 37.5237 157.6 37.6804 157.818 38.0971L157.93 38.3033L157.951 40.0772L157.971 41.8511H158.467H158.962V40.1185C158.962 38.5962 158.954 38.3528 158.888 38.1218C158.64 37.2225 157.988 36.7563 156.873 36.6986C156.683 36.6862 156.435 36.6945 156.319 36.711Z" fill="#002F5F"/>
<path id="Vector_18" d="M167.49 36.7193C166.366 36.8554 165.656 37.3752 165.359 38.2827C165.293 38.4808 165.285 38.7076 165.268 40.1886L165.256 41.8717H165.751H166.247L166.259 40.2258L166.271 38.5839L166.416 38.2992C166.693 37.7588 167.188 37.5196 168.026 37.5196C168.848 37.5196 169.36 37.763 169.625 38.2786C169.699 38.4189 169.761 38.5798 169.761 38.6334C169.761 38.7242 169.753 38.7283 169.154 38.7489C168.477 38.7695 168.262 38.819 167.903 39.0335C167.448 39.3099 167.221 39.7637 167.229 40.4073C167.234 40.8198 167.291 41.0302 167.49 41.3148C168.031 42.0986 169.608 42.1688 170.314 41.4386C170.661 41.0838 170.83 40.5434 170.834 39.7967V39.4378H171.227H171.619V39.0872V38.7365H171.21H170.806L170.756 38.4931C170.686 38.126 170.45 37.6928 170.182 37.4288C169.909 37.1648 169.352 36.8801 168.914 36.7811C168.534 36.6986 167.878 36.6698 167.49 36.7193ZM169.823 39.9329C169.819 40.4526 169.773 40.6465 169.604 40.8487C169.389 41.1003 168.914 41.2076 168.592 41.0714C168.225 40.9229 168.043 40.3124 168.245 39.9122C168.415 39.5657 168.741 39.442 169.43 39.4502L169.823 39.4585V39.9329Z" fill="#002F5F"/>
<path id="Vector_19" d="M174.138 36.7151C173.349 36.8142 172.837 37.1359 172.581 37.6887C172.523 37.8166 172.486 37.9239 172.49 37.928C172.507 37.9445 173.275 38.0765 173.341 38.0765C173.366 38.0765 173.432 38.0022 173.49 37.9156C173.642 37.6846 173.894 37.5526 174.278 37.4907C174.691 37.4288 175.183 37.4907 175.439 37.6392C175.852 37.8826 175.856 38.489 175.443 38.7077C175.278 38.7943 175.224 38.7984 173.841 38.8108L172.404 38.8232V39.1903V39.5575L173.861 39.5698C175.253 39.5822 175.323 39.5863 175.509 39.673C175.769 39.7926 175.872 39.9617 175.872 40.2753C175.872 40.531 175.814 40.6837 175.658 40.8281C175.29 41.1705 174.332 41.2282 173.762 40.9436C173.585 40.8528 173.37 40.6507 173.279 40.4815C173.238 40.4114 173.213 40.4155 172.821 40.5434C172.544 40.6342 172.404 40.7002 172.404 40.7414C172.404 40.8363 172.565 41.1333 172.713 41.3148C173.205 41.9171 174.662 42.1358 175.724 41.7686C176.483 41.5046 176.872 40.9848 176.88 40.2216C176.88 39.9329 176.863 39.838 176.785 39.6895C176.665 39.4626 176.521 39.3265 176.273 39.2109L176.079 39.1202L176.223 39.0212C176.533 38.8108 176.678 38.4684 176.649 37.9981C176.599 37.1689 176.017 36.7564 174.819 36.6986C174.592 36.6904 174.287 36.6945 174.138 36.7151Z" fill="#002F5F"/>
<path id="Vector_20" d="M209.63 36.7151C208.478 36.876 207.863 37.8042 208.317 38.6911C208.532 39.1119 208.871 39.2934 209.953 39.578C210.601 39.7472 210.869 39.8709 211.034 40.0648C211.134 40.1803 211.146 40.2216 211.129 40.4155C211.113 40.5887 211.084 40.663 210.989 40.762C210.481 41.2983 209.312 41.2199 208.656 40.6052L208.445 40.4113L208.156 40.7042L207.867 41.0013L207.979 41.1498C208.206 41.4468 208.681 41.7191 209.197 41.8552C209.569 41.9542 210.361 41.9542 210.721 41.8552C211.29 41.7026 211.757 41.3684 211.984 40.9559C212.096 40.7579 212.108 40.7042 212.108 40.3453C212.108 39.8833 212.042 39.7224 211.736 39.4419C211.485 39.2109 211.154 39.0582 210.498 38.8809C209.63 38.6457 209.453 38.5756 209.275 38.4106C209.139 38.2744 209.114 38.2291 209.114 38.0764C209.114 37.9279 209.139 37.8784 209.271 37.7464C209.469 37.5443 209.692 37.4865 210.147 37.5071C210.543 37.5278 210.811 37.635 211.092 37.8949L211.253 38.0393L211.526 37.8083C211.675 37.6804 211.798 37.5525 211.798 37.5195C211.798 37.4246 211.452 37.1111 211.196 36.975C211.059 36.9048 210.857 36.8182 210.737 36.7852C210.46 36.7027 209.944 36.6697 209.63 36.7151Z" fill="#002F5F"/>
<path id="Vector_21" d="M214.945 36.7151C214.053 36.8389 213.462 37.2844 213.235 38.0063C213.145 38.2951 213.14 38.3487 213.14 40.0772V41.8511L213.624 41.8635L214.107 41.8759L214.119 40.1515C214.131 38.4807 214.136 38.4189 214.226 38.1961C214.334 37.9238 214.511 37.7423 214.792 37.6144C214.957 37.5402 215.073 37.5237 215.37 37.5196C215.82 37.5196 216.101 37.6268 216.32 37.8826C216.514 38.1095 216.593 38.357 216.617 38.8479L216.642 39.2728H217.109H217.58V38.8685C217.575 37.5443 216.857 36.777 215.544 36.6986C215.358 36.6904 215.089 36.6945 214.945 36.7151Z" fill="#002F5F"/>
<path id="Vector_22" d="M220.367 36.7192C219.405 36.8678 218.822 37.3958 218.637 38.2951C218.583 38.5509 218.571 38.9139 218.571 40.2422V41.8759L219.058 41.8635L219.541 41.8511L219.562 40.1185C219.582 38.4065 219.582 38.3817 219.681 38.1713C219.789 37.928 220.016 37.7011 220.251 37.5979C220.449 37.5072 221.085 37.4948 221.312 37.5773C221.54 37.6557 221.808 37.9156 221.92 38.1713C222.019 38.3859 222.019 38.3982 222.031 40.1267L222.043 41.8717H222.539H223.03V40.168C223.03 38.2827 223.01 38.0971 222.778 37.6598C222.551 37.2349 222.122 36.9214 221.581 36.7811C221.267 36.7027 220.672 36.6697 220.367 36.7192Z" fill="#002F5F"/>
<path id="Vector_23" d="M143.778 37.0946C143.741 37.305 143.721 37.4865 143.729 37.4948C143.737 37.503 143.973 37.5525 144.249 37.6062C145.03 37.7547 144.992 37.7341 144.703 37.8702C143.783 38.3033 143.332 39.1078 143.456 40.102C143.588 41.2076 144.183 41.781 145.327 41.9089C146.268 42.0161 147.165 41.7191 147.569 41.1622C147.734 40.9353 147.891 40.5516 147.937 40.2587L147.966 40.0731L147.598 39.9988C147.4 39.9617 147.198 39.9163 147.148 39.904C147.074 39.8875 147.057 39.9081 147.032 40.0442C146.995 40.2752 146.834 40.597 146.673 40.7538C146.595 40.8322 146.43 40.9435 146.306 41.0013C145.984 41.1498 145.438 41.1539 145.116 41.0095C144.848 40.8899 144.6 40.6176 144.501 40.333C144.39 40.0195 144.402 39.4502 144.526 39.1367C144.666 38.7736 145.034 38.4065 145.459 38.1961C145.938 37.961 146.103 37.9527 147.049 38.1342C147.466 38.2167 147.821 38.2703 147.838 38.2497C147.867 38.2167 147.957 37.569 147.937 37.5443C147.92 37.5278 143.956 36.7151 143.886 36.7151C143.861 36.7151 143.811 36.8843 143.778 37.0946Z" fill="#002F5F"/>
<path id="Vector_24" d="M67.0206 37.1482V37.5401H67.5327H68.0447L68.0612 38.951C68.0778 40.2463 68.086 40.3866 68.1645 40.6217C68.3833 41.2818 68.7922 41.6613 69.5024 41.8552C69.6965 41.9129 69.9112 41.9294 70.3242 41.9294C70.8073 41.9253 70.9229 41.9129 71.1996 41.8222C72.1205 41.5169 72.5541 40.8651 72.5045 39.8462L72.4921 39.5822L72.0338 39.5698L71.5754 39.5574L71.5506 39.8998C71.5176 40.333 71.468 40.498 71.3111 40.7125C70.9601 41.1993 69.9236 41.2776 69.4529 40.8527C69.2423 40.663 69.1432 40.465 69.0853 40.1349C69.0647 39.9864 69.044 39.1861 69.044 38.3116V36.7563H68.0323H67.0206V37.1482Z" fill="#002F5F"/>
<path id="Vector_25" d="M84.641 36.7811C84.5955 36.8306 84.6079 40.0484 84.6575 40.3454C84.7442 40.9064 85.0911 41.4097 85.5536 41.6572C85.9376 41.8594 86.2597 41.9295 86.842 41.9295C87.4407 41.9336 87.7711 41.8511 88.1799 41.6036L88.4235 41.4551L88.9356 41.7934C89.2164 41.979 89.4517 42.1234 89.4559 42.1151C89.5798 41.9584 89.8564 41.5417 89.8564 41.5087C89.8564 41.484 89.7862 41.4221 89.7036 41.3726C89.6169 41.319 89.3939 41.1787 89.2081 41.0591L88.8695 40.8446L88.9603 40.6053C89.0471 40.3743 89.0512 40.3 89.0636 38.5591L89.076 36.7564H88.6011H88.1262L88.1138 38.4766C88.0973 40.3949 88.0932 40.4155 87.8082 40.7497C87.5811 41.0178 87.3499 41.1086 86.8832 41.1086C86.6561 41.1086 86.4249 41.0838 86.3299 41.0508C86.111 40.9766 85.855 40.7332 85.7518 40.5104C85.6692 40.333 85.6651 40.2381 85.6444 38.5509L85.6238 36.777L85.1448 36.7646C84.8846 36.7605 84.6575 36.7688 84.641 36.7811Z" fill="#002F5F"/>
<path id="Vector_26" d="M96.1331 38.5385C96.1331 40.4278 96.1454 40.5392 96.3354 40.9353C96.6203 41.521 97.2563 41.8758 98.1234 41.9377C98.747 41.9831 99.3953 41.8304 99.7504 41.5623C99.8248 41.5045 99.895 41.4592 99.9115 41.4592C99.9239 41.4592 100.159 41.6077 100.432 41.7933C100.708 41.9748 100.944 42.111 100.964 42.0903C101.047 41.9955 101.386 41.4963 101.373 41.4839C101.365 41.4798 101.138 41.3354 100.87 41.1663C100.469 40.9146 100.386 40.8445 100.403 40.7785C100.411 40.7331 100.457 40.5846 100.498 40.4485C100.564 40.2257 100.572 40.0236 100.572 38.489V36.777H100.097H99.6224L99.6018 38.5096C99.5811 40.2216 99.5811 40.2463 99.482 40.4567C99.3499 40.7537 99.0897 40.9848 98.7924 41.0714C98.334 41.2034 97.7022 41.0796 97.4421 40.8074C97.3843 40.7455 97.2934 40.6011 97.2397 40.4897C97.1448 40.2876 97.1448 40.2628 97.1324 38.5178L97.12 36.7563H96.6286H96.1331V38.5385Z" fill="#002F5F"/>
<path id="Vector_27" d="M107.613 38.4973C107.613 40.4031 107.629 40.5723 107.852 40.9766C108.203 41.6284 109.025 41.9914 110.008 41.9378C110.475 41.913 110.838 41.8099 111.168 41.6036L111.412 41.4551L111.908 41.7851C112.176 41.9708 112.407 42.1193 112.415 42.1193C112.44 42.1193 112.808 41.6077 112.837 41.5335C112.853 41.4963 112.684 41.3685 112.362 41.1704C111.945 40.9106 111.87 40.8487 111.887 40.7785C112.077 40.0979 112.073 40.1639 112.073 38.4189V36.7564H111.602H111.127L111.115 38.4354C111.098 39.8751 111.086 40.1474 111.028 40.3289C110.921 40.6548 110.739 40.8734 110.47 40.9972C110.268 41.0921 110.181 41.1086 109.839 41.1086C109.484 41.1086 109.422 41.0962 109.203 40.9848C108.91 40.8363 108.757 40.6342 108.666 40.2835C108.616 40.0855 108.604 39.7348 108.604 38.3983V36.7564H108.108H107.613V38.4973Z" fill="#002F5F"/>
<path id="Vector_28" d="M113.27 38.0063C113.27 38.9882 113.283 39.3058 113.332 39.4956C113.485 40.0814 113.869 40.4485 114.493 40.6094C115.153 40.7785 115.888 40.7166 116.409 40.4526L116.698 40.3082V41.0921V41.8759L117.185 41.8635L117.668 41.8511L117.68 39.8998L117.689 37.9527H117.193H116.698V38.7076C116.698 39.4419 116.694 39.4667 116.607 39.5492C116.475 39.6688 116.202 39.8008 115.971 39.8503C115.707 39.9122 115.129 39.9081 114.922 39.8462C114.711 39.7802 114.451 39.5574 114.332 39.3388C114.245 39.1779 114.241 39.1078 114.22 37.9733L114.199 36.777L113.737 36.7646L113.27 36.7522V38.0063Z" fill="#002F5F"/>
<path id="Vector_29" d="M118.791 36.7811C118.746 36.8265 118.758 39.7843 118.804 40.1886C118.878 40.8404 119.113 41.257 119.568 41.5623C119.881 41.7727 120.166 41.8676 120.674 41.9253C121.319 41.9996 121.954 41.8717 122.376 41.5871C122.479 41.5169 122.574 41.4592 122.586 41.4592C122.599 41.4592 122.83 41.6118 123.102 41.7975C123.371 41.9831 123.598 42.1275 123.606 42.1151C123.697 42.012 124.052 41.4922 124.044 41.4839C124.027 41.4757 123.499 41.1415 123.193 40.9518L123.024 40.8445L123.098 40.6424C123.235 40.2794 123.268 39.8132 123.255 38.2621L123.243 36.777H122.768H122.293L122.272 38.5096C122.252 40.2216 122.252 40.2464 122.153 40.4567C122.041 40.7125 121.773 40.9724 121.546 41.0508C121.455 41.0838 121.224 41.1085 121.013 41.1085C120.571 41.1085 120.286 41.0013 120.08 40.7661C119.811 40.465 119.815 40.498 119.795 38.5509L119.774 36.777L119.295 36.7646C119.035 36.7605 118.808 36.7687 118.791 36.7811Z" fill="#002F5F"/>
<path id="Vector_30" d="M124.16 36.7811C124.143 36.7976 124.131 36.975 124.131 37.173V37.536L124.659 37.5484L125.184 37.5608L125.204 39.0253C125.229 40.6341 125.233 40.6754 125.502 41.1003C125.733 41.4633 126.166 41.7479 126.691 41.8758C126.988 41.9501 127.843 41.9501 128.136 41.8758C128.685 41.7397 129.173 41.4138 129.396 41.026C129.536 40.7868 129.623 40.3825 129.623 39.9411V39.5615H129.152H128.685L128.665 39.9204C128.619 40.7331 128.215 41.1292 127.438 41.1292C126.889 41.1292 126.489 40.9105 126.303 40.5104C126.22 40.333 126.216 40.2381 126.195 38.5508L126.175 36.777L125.179 36.7646C124.634 36.7605 124.176 36.7687 124.16 36.7811Z" fill="#002F5F"/>
<path id="Vector_31" d="M140.888 37.4247L140.875 38.0971L140.008 38.1218C139.021 38.1466 138.79 38.2002 138.344 38.4849C137.919 38.7613 137.679 39.1738 137.584 39.7967C137.436 40.8115 138.001 41.6242 139.038 41.8758C139.376 41.9584 140.149 41.9419 140.491 41.8387C141.032 41.682 141.445 41.3519 141.66 40.9023C141.817 40.5681 141.85 40.3784 141.875 39.6111L141.9 38.9015H142.325H142.754V38.5096V38.1177H142.321H141.887L141.879 37.4453L141.866 36.777L141.383 36.7646L140.896 36.7522L140.888 37.4247ZM140.884 39.5492C140.855 40.3454 140.793 40.5805 140.549 40.8239C140.322 41.0549 140.008 41.1498 139.591 41.1168C138.902 41.0632 138.542 40.6919 138.542 40.0236C138.542 39.6894 138.604 39.4832 138.757 39.2934C139.017 38.9799 139.281 38.9098 140.211 38.9056L140.908 38.9015L140.884 39.5492Z" fill="#002F5F"/>
<path id="Vector_32" d="M148.866 37.9857C148.866 39.3223 148.891 39.5079 149.105 39.9039C149.295 40.2546 149.679 40.5145 150.187 40.6382C150.311 40.6671 150.629 40.6919 150.889 40.6919C151.422 40.6919 151.719 40.6259 152.079 40.4237L152.293 40.3041V41.0879V41.8717H152.789H153.284V39.9122V37.9527H152.789H152.293V38.7117V39.4749L152.145 39.5945C151.922 39.7802 151.525 39.8916 151.1 39.8957C150.559 39.8998 150.307 39.8132 150.072 39.545C149.845 39.2851 149.816 39.0995 149.816 37.8619V36.7563H149.341H148.866V37.9857Z" fill="#002F5F"/>
<path id="Vector_33" d="M160.346 39.314V41.8717H160.841H161.337V40.3082C161.337 39.1779 161.349 38.7324 161.382 38.7117C161.411 38.6952 161.601 38.6746 161.808 38.6664C162.41 38.6375 162.505 38.7365 162.683 39.5533C162.861 40.3577 163.092 40.6754 163.6 40.8239C163.806 40.8858 164.273 40.8899 164.326 40.8363C164.355 40.8074 164.442 40.0483 164.417 40.0277C164.409 40.0153 164.318 39.9988 164.219 39.9864C163.984 39.9534 163.757 39.8379 163.653 39.6894C163.604 39.6234 163.509 39.3512 163.443 39.0871C163.377 38.8231 163.269 38.5096 163.207 38.3941C163.079 38.1672 162.836 37.9816 162.555 37.9073C162.39 37.8619 161.667 37.8784 161.452 37.9321L161.337 37.9609V37.3586V36.7563H160.841H160.346V39.314Z" fill="#002F5F"/>
<path id="Vector_34" d="M177.896 38.4559C177.896 40.271 177.916 40.4979 178.106 40.8981C178.234 41.1786 178.552 41.5045 178.833 41.653C179.221 41.8593 179.539 41.9294 180.126 41.9294C180.724 41.9335 181.055 41.851 181.464 41.6035L181.711 41.455L182.104 41.719C182.322 41.8634 182.55 42.0119 182.612 42.0532L182.723 42.1233L182.93 41.8428C183.045 41.6901 183.136 41.5416 183.14 41.5127C183.14 41.4839 183.099 41.4385 183.049 41.4137C183 41.389 182.777 41.2487 182.558 41.1043L182.153 40.8445L182.244 40.6052C182.327 40.3742 182.331 40.2958 182.347 38.559L182.36 36.7563H181.885H181.41L181.398 38.4559C181.381 40.3535 181.373 40.4237 181.092 40.7537C180.869 41.0136 180.629 41.1043 180.167 41.1085C179.936 41.1085 179.709 41.0837 179.614 41.0507C179.411 40.9806 179.151 40.7496 179.052 40.5474C178.916 40.2834 178.887 39.9163 178.887 38.3115V36.7563H178.391H177.896V38.4559Z" fill="#002F5F"/>
<path id="Vector_35" d="M183.264 37.1482V37.5401H183.78H184.296V38.786C184.296 40.1886 184.329 40.5021 184.503 40.8692C184.837 41.5829 185.494 41.9294 186.526 41.9294C187.298 41.9294 187.79 41.7727 188.215 41.3932C188.587 41.059 188.785 40.465 188.748 39.809L188.736 39.5822L188.281 39.5698L187.823 39.5574L187.782 39.9617C187.753 40.234 187.707 40.432 187.645 40.5681C187.46 40.9476 187.014 41.1539 186.448 41.1209C185.915 41.0879 185.622 40.9022 185.415 40.4691L185.308 40.2422L185.296 38.4972L185.283 36.7563H184.272H183.264V37.1482Z" fill="#002F5F"/>
<path id="Vector_36" d="M191.139 36.7853C191.093 36.8306 191.106 38.9799 191.155 39.2728C191.217 39.6565 191.374 39.9823 191.605 40.1969C191.985 40.5516 192.407 40.6878 193.133 40.6919C193.658 40.6919 193.947 40.63 194.318 40.4279L194.537 40.3124L194.546 41.0838L194.558 41.8511L195.045 41.8635L195.528 41.8759V39.9122V37.9527H195.033H194.537V38.7118V39.4708L194.393 39.5987C194.182 39.7802 193.773 39.8957 193.319 39.8957C192.58 39.8957 192.217 39.6317 192.105 39.0088C192.08 38.8726 192.06 38.3116 192.06 37.7588V36.7564H191.614C191.366 36.7564 191.151 36.7688 191.139 36.7853Z" fill="#002F5F"/>
<path id="Vector_37" d="M196.767 38.5426C196.767 40.5186 196.78 40.6259 197.027 41.0425C197.387 41.6407 198.023 41.9295 198.997 41.9295C199.414 41.9336 199.567 41.9171 199.802 41.8428C200.104 41.748 200.422 41.5706 200.62 41.3849C200.868 41.1498 201.091 40.6919 201.161 40.2752L201.19 40.1102L200.731 40.0195C200.475 39.97 200.265 39.9328 200.261 39.9411C200.257 39.9493 200.224 40.0813 200.182 40.2422C200.087 40.6218 199.934 40.828 199.633 40.9848C199.418 41.0962 199.36 41.1085 199.001 41.1085C198.522 41.1085 198.25 41.0054 198.023 40.7455C197.8 40.4815 197.758 40.2752 197.758 39.4295V38.6952H199.472H201.186V38.3033V37.9114H199.472H197.762L197.75 37.3421L197.738 36.777L197.254 36.7646L196.767 36.7522V38.5426Z" fill="#002F5F"/>
<path id="Vector_38" d="M201.723 37.1482V37.5401H202.239H202.755V38.8066C202.759 40.2546 202.796 40.5681 203.003 40.96C203.354 41.6159 203.99 41.9294 204.985 41.9294C205.757 41.9294 206.248 41.7727 206.674 41.3932C207.045 41.059 207.244 40.465 207.206 39.809L207.194 39.5822L206.74 39.5698L206.281 39.5574L206.24 39.9617C206.191 40.4526 206.079 40.7125 205.84 40.8857C205.513 41.1209 204.977 41.1951 204.535 41.0631C204.258 40.9806 203.994 40.7414 203.866 40.4567C203.767 40.2422 203.767 40.2298 203.754 38.4972L203.742 36.7563H202.73H201.723V37.1482Z" fill="#002F5F"/>
<path id="Vector_39" d="M223.732 37.1483V37.536L224.24 37.5484L224.744 37.5608L224.769 39.0046C224.794 40.6341 224.802 40.6878 225.108 41.1333C225.392 41.5541 225.859 41.8098 226.499 41.913C227.342 42.045 228.25 41.814 228.708 41.356C228.816 41.2488 228.956 41.0467 229.03 40.8899C229.15 40.6341 229.163 40.5722 229.175 40.0855L229.192 39.5615H228.713H228.233V39.8627C228.233 40.3041 228.139 40.5722 227.907 40.8074C227.655 41.059 227.366 41.1498 226.891 41.1209C226.359 41.0838 226.061 40.9023 225.871 40.4897C225.776 40.2876 225.776 40.2587 225.764 38.5179L225.752 36.7564H224.744H223.732V37.1483Z" fill="#002F5F"/>
<path id="Vector_40" d="M24.0044 36.9419C23.3395 37.0616 22.7862 37.3215 22.2246 37.7835C21.7538 38.1713 21.2376 39.0252 21.0766 39.6852C20.9651 40.1349 20.9734 40.9558 21.089 41.3972C21.4358 42.6926 22.365 43.6331 23.6823 44.025C23.9383 44.1034 24.1076 44.1158 25.1193 44.1282L26.2631 44.1488V40.5144V36.88L25.2845 36.8842C24.6733 36.8842 24.1902 36.9089 24.0044 36.9419Z" fill="#DE5D5D"/>
<path id="Vector_41" d="M28.204 40.5062V44.1406H29.1868C29.7236 44.1406 30.2811 44.12 30.4256 44.0994C31.8131 43.8725 32.9776 42.8412 33.3699 41.4922C33.4938 41.059 33.5227 40.267 33.4318 39.8049C33.3534 39.4295 33.1634 38.9428 32.9446 38.588C32.6225 38.0476 31.937 37.4618 31.3217 37.1895C30.7518 36.942 30.5495 36.909 29.3313 36.8884L28.204 36.8719V40.5062Z" fill="#DE5D5D"/>
<path id="Vector_42" d="M26.0196 46.0795C25.5612 46.3311 25.2308 46.6818 24.9913 47.1727C24.8179 47.5233 24.756 47.8162 24.7601 48.2659C24.7642 48.9672 25.0161 49.5364 25.5323 50.0232C25.7759 50.2584 26.2012 50.5265 26.2467 50.4811C26.2549 50.4729 26.2591 49.4498 26.2549 48.2122L26.2425 45.9598L26.0196 46.0795Z" fill="#DE5D5D"/>
<path id="Vector_43" d="M28.2041 48.2411V50.5348L28.361 50.4564C28.9474 50.1594 29.3933 49.6479 29.6122 49.0249C29.732 48.6825 29.7609 48.0472 29.6741 47.6801C29.5337 47.0778 29.0712 46.4343 28.5675 46.1331C28.1628 45.8897 28.2041 45.6422 28.2041 48.2411Z" fill="#DE5D5D"/>
</g>
</g>
<defs>
<clipPath id="clip0_4378_29277">
<rect width="229.224" height="54" fill="white"/>
</clipPath>
</defs>
</svg>
